{
.appVersion = "939";
date = "2015-06-08 08:53:00 +0000";
familyName = "Noname Sans";
featurePrefixes = (
{
automatic = 1;
code = "languagesystem DFLT dflt;\012languagesystem latn dflt;\012languagesystem latn CAT;\012languagesystem latn ROM;\012languagesystem latn MOL;\012languagesystem latn KAZ;\012languagesystem latn TAT;\012languagesystem latn TRK;\012languagesystem latn CRT;\012languagesystem latn AZE;\012";
name = Languagesystems;
}
);
features = (
{
automatic = 1;
code = "feature ccmp;\012feature locl;\012feature sinf;\012feature sups;\012feature numr;\012feature dnom;\012feature frac;\012feature lnum;\012feature onum;\012feature c2sc;\012feature smcp;\012feature case;\012feature zero;\012";
name = aalt;
},
{
automatic = 1;

glyphs = (
{
glyphname = A;
lastChange = "2016-11-25 19:43:40 +0000";
layers = (
{
anchors = (
{
name = bottom;
position = "{362, 0}";
},
{
name = ogonek;
position = "{718, 0}";
},
{
name = top;
position = "{362, 700}";
}
);
background = {
paths = (
{
closed = 1;
nodes = (
"552 700 LINE",
"176 700 LINE",
"9 0 LINE",
"255 0 LINE",
"349 470 LINE",
"364 470 LINE",
"462 0 LINE",
"718 0 LINE"
);
}
);
};
layerId = "BFFFD157-90D3-4B85-B99D-9A2F366F03CA";
paths = (
{
closed = 1;
nodes = (
"540 700 LINE",
"190 700 LINE",
"5 0 LINE",
"238 0 LINE",
"341 470 LINE",
"370 470 LINE",
"476 0 LINE",
"718 0 LINE"
);
},
{
closed = 1;
nodes = (
"147 271 LINE",
"139 86 LINE",
"581 86 LINE",
"585 271 LINE"
);
}
);
width = 723;
},
{
anchors = (
{
name = bottom;
position = "{309, 0}";
},
{
name = ogonek;
position = "{597, 0}";
},
{
name = top;
position = "{309, 700}";
}
);
layerId = "3E7589AA-8194-470F-8E2F-13C1C581BE24";
paths = (
{
closed = 1;
nodes = (
"392 700 LINE",
"228 700 LINE",
"20 0 LINE",
"114 0 LINE",
"293 610 LINE",
"322 610 LINE",
"501 0 LINE",
"597 0 LINE"
);
},
{
closed = 1;
nodes = (
"130 269 LINE",
"128 178 LINE",
"490 178 LINE",
"494 269 LINE"
);
}
);
width = 617;
},
{
anchors = (
{
name = bottom;
position = "{278, 0}";
},
{
name = ogonek;
position = "{522, 0}";
},
{
name = top;
position = "{278, 700}";
}
);
hints = (
{
horizontal = 1;
origin = "{0, 2}";
type = Anchor;
options = 4;
},
{
horizontal = 1;
origin = "{1, 1}";
target = "{1, 0}";
type = TTStem;
stem = 2;
options = 4;
},
{
horizontal = 1;
origin = "{0, 1}";
target = "{0, 4}";
type = TTStem;
options = 4;
},
{
horizontal = 1;
origin = "{0, 6}";
type = Anchor;
options = 4;
}
);
layerId = "4E6F1D76-CF39-4449-9239-DE310961C1DD";
paths = (
{
closed = 1;
nodes = (
"292 700 LINE",
"265 700 LINE",
"32 0 LINE",
"38 0 LINE",
"270 694 LINE",
"287 694 LINE",
"515 0 LINE",
"522 0 LINE"
);
},
{
closed = 1;
nodes = (
"110 218 LINE",
"105 212 LINE",
"452 212 LINE",
"445 218 LINE"
);
}
);
width = 554;
}
);
leftKerningGroup = A;
rightKerningGroup = A;
unicode = 0041;
},
{
glyphname = Aringacute;
lastChange = "2016-11-25 19:43:40 +0000";
layers = (
{
background = {
components = (
{
name = Aacute;
}
);
guideLines = (
{
angle = 90;
position = "{288, 966}";
}
);
paths = (
{
closed = 1;
nodes = (
"587 0 LINE",
"325 712 LINE",
"277 712 LINE",
"15 0 LINE",
"73 0 LINE",
"135 173 LINE",
"467 173 LINE",
"529 0 LINE"
);
},
{
closed = 1;
nodes = (
"301 640 LINE",
"450 221 LINE",
"152 221 LINE"
);
},
{
closed = 1;
nodes = (
"415 924 OFFCURVE",
"364 975 OFFCURVE",
"301 975 CURVE SMOOTH",
"238 975 OFFCURVE",
"187 924 OFFCURVE",
"187 861 CURVE SMOOTH",
"187 798 OFFCURVE",
"238 746 OFFCURVE",
"301 746 CURVE SMOOTH",
"364 746 OFFCURVE",
"415 798 OFFCURVE",
"415 861 CURVE SMOOTH"
);
},
{
closed = 1;
nodes = (
"374 821 OFFCURVE",
"341 788 OFFCURVE",
"301 788 CURVE SMOOTH",
"261 788 OFFCURVE",
"228 821 OFFCURVE",
"228 861 CURVE SMOOTH",
"228 901 OFFCURVE",
"261 933 OFFCURVE",
"301 933 CURVE SMOOTH",
"341 933 OFFCURVE",
"374 901 OFFCURVE",
"374 861 CURVE SMOOTH"
);
},
{
closed = 1;
nodes = (
"418 1132 LINE",
"351 1132 LINE",
"254 985 LINE",
"312 985 LINE"
);
}
);
};
components = (
{
name = A;
},
{
name = ring;
transform = "{1, 0, 0, 1, 143, 220}";
},
{
name = acutecomb;
transform = "{1, 0, 0, 1, 192, 455}";
}
);
guideLines = (
{
angle = 90;
position = "{288, 966}";
}
);
layerId = "3E7589AA-8194-470F-8E2F-13C1C581BE24";
width = 617;
},
{
background = {
components = (
{
name = Aacute;
}
);
};
components = (
{
name = A;
},
{
name = ring;
transform = "{1, 0, 0, 1, 167, 210}";
},
{
name = acutecomb;
transform = "{1, 0, 0, 1, 191, 514}";
}
);
guideLines = (
{
angle = 90;
position = "{273, 1115}";
}
);
layerId = "BFFFD157-90D3-4B85-B99D-9A2F366F03CA";
width = 723;
},
{
components = (
{
name = A;
},
{
name = ring;
transform = "{1, 0, 0, 1, 152, 232}";
},
{
name = acutecomb;
transform = "{1, 0, 0, 1, 203, 428}";
}
);
layerId = "4E6F1D76-CF39-4449-9239-DE310961C1DD";
width = 554;
}
);
leftKerningGroup = A;
leftMetricsKey = A;
rightKerningGroup = A;
rightMetricsKey = A;
unicode = 01FA;
},
{
glyphname = AE;
lastChange = "2016-11-25 19:43:40 +0000";
layers = (
{
anchors = (
{
name = bottom;
position = "{524, 0}";
},
{
name = ogonek;
position = "{895, 0}";
},
{
name = top;
position = "{572, 700}";
}
);
layerId = "3E7589AA-8194-470F-8E2F-13C1C581BE24";
paths = (
{
closed = 1;
nodes = (
"526 700 LINE",
"362 700 LINE",
"30 0 LINE",
"124 0 LINE",
"411 610 LINE",
"534 610 LINE"
);
},
{
closed = 1;
nodes = (
"188 269 LINE",
"170 178 LINE",
"512 178 LINE",
"532 269 LINE"
);
},
{
closed = 1;
nodes = (
"572 700 LINE",
"479 700 LINE",
"479 0 LINE",
"572 0 LINE"
);
},
{
closed = 1;
nodes = (
"533 700 LINE",
"531 611 LINE",
"885 611 LINE",
"885 700 LINE"
);
},
{
closed = 1;
nodes = (
"533 89 LINE",
"531 0 LINE",
"895 0 LINE",
"895 89 LINE"
);
},
{
closed = 1;
nodes = (
"533 367 LINE",
"531 278 LINE",
"865 278 LINE",
"865 367 LINE"
);
}
);
width = 945;
},
{
anchors = (
{
name = bottom;
position = "{552, 0}";
},
{
name = ogonek;
position = "{879, 0}";
},
{
name = top;
position = "{545, 700}";
}
);
layerId = "BFFFD157-90D3-4B85-B99D-9A2F366F03CA";
paths = (
{
closed = 1;
nodes = (
"649 700 LINE",
"299 700 LINE",
"-10 0 LINE",
"223 0 LINE",
"409 470 LINE",
"653 470 LINE"
);
},
{
closed = 1;
nodes = (
"180 268 LINE",
"142 103 LINE",
"584 103 LINE",
"618 268 LINE"
);
},
{
closed = 1;
nodes = (
"669 700 LINE",
"444 700 LINE",
"444 0 LINE",
"669 0 LINE"
);
},
{
closed = 1;
nodes = (
"574 700 LINE",
"566 530 LINE",
"869 530 LINE",
"869 700 LINE"
);
},
{
closed = 1;
nodes = (
"574 170 LINE",
"566 0 LINE",
"879 0 LINE",
"879 170 LINE"
);
},
{
closed = 1;
nodes = (
"574 430 LINE",
"566 260 LINE",
"849 260 LINE",
"849 430 LINE"
);
}
);
width = 909;
},
{
anchors = (
{
name = bottom;
position = "{508, 0}";
},
{
name = ogonek;
position = "{881, 0}";
},
{
name = top;
position = "{600, 700}";
}
);
layerId = "4E6F1D76-CF39-4449-9239-DE310961C1DD";
paths = (
{
closed = 1;
nodes = (
"503 700 LINE",
"405 700 LINE",
"47 0 LINE",
"54 0 LINE",
"409 694 LINE",
"503 694 LINE"
);
},
{
closed = 1;
nodes = (
"163 218 LINE",
"159 212 LINE",
"504 212 LINE",
"504 218 LINE"
);
},
{
closed = 1;
nodes = (
"507 700 LINE",
"501 700 LINE",
"501 0 LINE",
"507 0 LINE"
);
},
{
closed = 1;
nodes = (
"505 700 LINE",
"505 694 LINE",
"871 694 LINE",
"871 700 LINE"
);
},
{
closed = 1;
nodes = (
"505 6 LINE",
"507 0 LINE",
"881 0 LINE",
"881 6 LINE"
);
},
{
closed = 1;
nodes = (
"504 329 LINE",
"504 323 LINE",
"851 323 LINE",
"851 329 LINE"
);
}
);
width = 942;
}
);
leftKerningGroup = AE;
rightKerningGroup = E;
rightMetricsKey = E;
unicode = 00C6;
},
{
glyphname = B;
lastChange = "2016-11-25 19:43:40 +0000";
layers = (
{
anchors = (
{
name = bottom;
position = "{310, 0}";
},
{
name = top;
position = "{290, 700}";
}
);
background = {
paths = (
{
closed = 1;
nodes = (
"265 700 LINE",
"40 700 LINE",
"40 0 LINE",
"265 0 LINE"
);
},
{
closed = 1;
nodes = (
"170 700 LINE",
"162 510 LINE",
"485 510 LINE",
"485 700 LINE"
);
},
{
closed = 1;
nodes = (
"170 170 LINE",
"162 0 LINE",
"495 0 LINE",
"495 170 LINE"
);
},
{
closed = 1;
nodes = (
"170 430 LINE",
"162 250 LINE",
"465 250 LINE",
"465 430 LINE"
);
}
);
};
layerId = "BFFFD157-90D3-4B85-B99D-9A2F366F03CA";
paths = (
{
closed = 1;
nodes = (
"254 635 LINE",
"40 696 LINE",
"40 6 LINE",
"254 53 LINE"
);
},
{
closed = 1;
nodes = (
"360 249 OFFCURVE",
"385 233 OFFCURVE",
"385 199 CURVE SMOOTH",
"385 171 OFFCURVE",
"368 150 OFFCURVE",
"310 150 CURVE SMOOTH",
"286 150 OFFCURVE",
"262 151 OFFCURVE",
"240 153 CURVE",
"40 6 LINE",
"130 -3 OFFCURVE",
"201 -8 OFFCURVE",
"272 -8 CURVE SMOOTH",
"485 -8 OFFCURVE",
"610 48 OFFCURVE",
"610 191 CURVE SMOOTH",
"610 320 OFFCURVE",
"508 357 OFFCURVE",
"409 378 CURVE",
"414 308 LINE",
"506 323 OFFCURVE",
"590 359 OFFCURVE",
"590 488 CURVE SMOOTH",
"590 625 OFFCURVE",
"492 707 OFFCURVE",
"260 707 CURVE SMOOTH",
"185 707 OFFCURVE",
"116 703 OFFCURVE",
"40 696 CURVE",
"245 508 LINE",
"264 511 OFFCURVE",
"284 512 OFFCURVE",
"298 512 CURVE SMOOTH",
"354 512 OFFCURVE",
"378 489 OFFCURVE",
"378 459 CURVE SMOOTH",
"378 428 OFFCURVE",
"359 406 OFFCURVE",
"317 406 CURVE SMOOTH",
"247 406 LINE",
"236 249 LINE",
"308 249 LINE SMOOTH"
);
}
);
width = 620;
},
{
anchors = (
{
name = bottom;
position = "{301, 0}";
},
{
name = top;
position = "{279, 700}";
}
);
background = {
paths = (
{
closed = 1;
nodes = (
"178 700 LINE",
"85 700 LINE",
"85 0 LINE",
"178 0 LINE"
);
},
{
closed = 1;
nodes = (
"139 700 LINE",
"137 611 LINE",
"491 611 LINE",
"491 700 LINE"
);
},
{
closed = 1;
nodes = (
"139 89 LINE",
"137 0 LINE",
"501 0 LINE",
"501 89 LINE"
);
},
{
closed = 1;
nodes = (
"139 367 LINE",
"137 278 LINE",
"471 278 LINE",
"471 367 LINE"
);
}
);
};
layerId = "3E7589AA-8194-470F-8E2F-13C1C581BE24";
paths = (
{
closed = 1;
nodes = (
"178 657 LINE",
"85 700 LINE",
"85 0 LINE",
"178 49 LINE"
);
},
{
closed = 1;
nodes = (
"409 279 OFFCURVE",
"463 243 OFFCURVE",
"463 176 CURVE SMOOTH",
"463 120 OFFCURVE",
"424 80 OFFCURVE",
"297 80 CURVE SMOOTH",
"245 80 OFFCURVE",
"192 82 OFFCURVE",
"146 88 CURVE",
"85 0 LINE",
"156 -7 OFFCURVE",
"227 -9 OFFCURVE",
"282 -9 CURVE SMOOTH",
"445 -9 OFFCURVE",
"555 44 OFFCURVE",
"555 177 CURVE SMOOTH",
"555 297 OFFCURVE",
"463 354 OFFCURVE",
"311 354 CURVE",
"311 307 LINE",
"463 307 OFFCURVE",
"517 402 OFFCURVE",
"517 496 CURVE SMOOTH",
"517 609 OFFCURVE",
"448 709 OFFCURVE",
"246 709 CURVE SMOOTH",
"197 709 OFFCURVE",
"138 705 OFFCURVE",
"85 700 CURVE",
"134 613 LINE",
"175 618 OFFCURVE",
"220 620 OFFCURVE",
"249 620 CURVE SMOOTH",
"371 620 OFFCURVE",
"425 578 OFFCURVE",
"425 487 CURVE SMOOTH",
"425 414 OFFCURVE",
"384 369 OFFCURVE",
"292 369 CURVE SMOOTH",
"139 369 LINE",
"137 279 LINE",
"294 279 LINE SMOOTH"
);
}
);
width = 603;
},
{
anchors = (
{
name = bottom;
position = "{306, 0}";
},
{
name = top;
position = "{285, 700}";
}
);
associatedMasterId = "3E7589AA-8194-470F-8E2F-13C1C581BE24";
background = {
paths = (
{
closed = 1;
nodes = (
"216 646 LINE",
"63 698 LINE",
"63 3 LINE",
"216 51 LINE"
);
},
{
closed = 1;
nodes = (
"385 267 OFFCURVE",
"424 241 OFFCURVE",
"424 190 CURVE SMOOTH",
"424 148 OFFCURVE",
"396 118 OFFCURVE",
"304 118 CURVE SMOOTH",
"266 118 OFFCURVE",
"227 119 OFFCURVE",
"193 123 CURVE",
"63 3 LINE",
"143 -5 OFFCURVE",
"214 -9 OFFCURVE",
"277 -9 CURVE SMOOTH",
"465 -9 OFFCURVE",
"583 46 OFFCURVE",
"583 184 CURVE SMOOTH",
"583 309 OFFCURVE",
"486 356 OFFCURVE",
"360 366 CURVE",
"363 308 LINE",
"485 315 OFFCURVE",
"554 381 OFFCURVE",
"554 492 CURVE SMOOTH",
"554 617 OFFCURVE",
"470 708 OFFCURVE",
"253 708 CURVE SMOOTH",
"191 708 OFFCURVE",
"127 704 OFFCURVE",
"63 698 CURVE",
"190 566 LINE",
"220 570 OFFCURVE",
"252 572 OFFCURVE",
"274 572 CURVE SMOOTH",
"363 572 OFFCURVE",
"402 539 OFFCURVE",
"402 475 CURVE SMOOTH",
"402 423 OFFCURVE",
"372 389 OFFCURVE",
"305 389 CURVE SMOOTH",
"193 389 LINE",
"187 267 LINE",
"301 267 LINE SMOOTH"
);
}
);
};
layerId = "7DB523F8-EDD9-40A9-A67F-E711496DD6FA";
name = "{155, 100}";
paths = (
{
closed = 1;
nodes = (
"218 646 LINE",
"64 699 LINE",
"64 2 LINE",
"218 50 LINE"
);
},
{
closed = 1;
nodes = (
"386 259 OFFCURVE",
"426 238 OFFCURVE",
"426 195 CURVE SMOOTH",
"426 159 OFFCURVE",
"398 132 OFFCURVE",
"305 132 CURVE SMOOTH",
"267 132 OFFCURVE",
"229 134 OFFCURVE",
"195 137 CURVE",
"64 2 LINE",
"145 -6 OFFCURVE",
"216 -10 OFFCURVE",
"279 -10 CURVE SMOOTH",
"467 -10 OFFCURVE",
"584 46 OFFCURVE",
"584 184 CURVE SMOOTH",
"584 309 OFFCURVE",
"487 356 OFFCURVE",
"362 366 CURVE",
"364 308 LINE",
"486 315 OFFCURVE",
"555 381 OFFCURVE",
"555 492 CURVE SMOOTH",
"555 617 OFFCURVE",
"472 709 OFFCURVE",
"255 709 CURVE SMOOTH",
"193 709 OFFCURVE",
"129 705 OFFCURVE",
"64 699 CURVE",
"191 557 LINE",
"221 560 OFFCURVE",
"254 562 OFFCURVE",
"275 562 CURVE SMOOTH",
"364 562 OFFCURVE",
"403 533 OFFCURVE",
"403 474 CURVE SMOOTH",
"403 428 OFFCURVE",
"373 399 OFFCURVE",
"306 399 CURVE SMOOTH",
"195 399 LINE",
"188 259 LINE",
"303 259 LINE SMOOTH"
);
}
);
width = 612;
},
{
anchors = (
{
name = bottom;
position = "{296, 0}";
},
{
name = top;
position = "{294, 700}";
}
);
hints = (
{
horizontal = 1;
origin = "{1, 12}";
target = "{1, 5}";
type = TTStem;
stem = 2;
options = 4;
},
{
horizontal = 1;
origin = "{1, 25}";
target = "{1, 32}";
type = TTStem;
stem = 2;
options = 4;
},
{
horizontal = 1;
origin = "{1, 41}";
target = "{1, 38}";
type = TTStem;
stem = 2;
options = 4;
}
);
layerId = "4E6F1D76-CF39-4449-9239-DE310961C1DD";
paths = (
{
closed = 1;
nodes = (
"115 689 LINE",
"109 693 LINE",
"109 9 LINE",
"115 11 LINE"
);
},
{
closed = 1;
nodes = (
"449 323 OFFCURVE",
"521 253 OFFCURVE",
"521 159 CURVE SMOOTH",
"521 47 OFFCURVE",
"427 0 OFFCURVE",
"273 0 CURVE SMOOTH",
"212 0 OFFCURVE",
"164 5 OFFCURVE",
"112 15 CURVE",
"109 9 LINE",
"165 0 OFFCURVE",
"206 -6 OFFCURVE",
"271 -6 CURVE SMOOTH",
"439 -6 OFFCURVE",
"527 47 OFFCURVE",
"527 160 CURVE SMOOTH",
"527 257 OFFCURVE",
"451 328 OFFCURVE",
"275 328 CURVE",
"275 324 LINE",
"425 324 OFFCURVE",
"486 403 OFFCURVE",
"486 517 CURVE SMOOTH",
"486 608 OFFCURVE",
"444 707 OFFCURVE",
"253 707 CURVE SMOOTH",
"212 707 OFFCURVE",
"159 703 OFFCURVE",
"109 693 CURVE",
"113 688 LINE",
"156 696 OFFCURVE",
"207 701 OFFCURVE",
"252 701 CURVE SMOOTH",
"440 701 OFFCURVE",
"480 604 OFFCURVE",
"480 516 CURVE SMOOTH",
"480 406 OFFCURVE",
"422 329 OFFCURVE",
"268 329 CURVE SMOOTH",
"112 329 LINE",
"112 323 LINE",
"267 323 LINE SMOOTH"
);
}
);
width = 598;
}
);
leftKerningGroup = H;
leftMetricsKey = H;
rightKerningGroup = B;
unicode = 0042;
},
{
glyphname = C;
lastChange = "2016-11-25 19:43:40 +0000";
layers = (
{
anchors = (
{
name = bottom;
position = "{329, 0}";
},
{
name = top;
position = "{339, 700}";
},
{
name = topright;
position = "{575, 700}";
}
);
background = {
paths = (
{
closed = 1;
nodes = (
"605 -15 OFFCURVE",
"743 114 OFFCURVE",
"743 354 CURVE SMOOTH",
"743 584 OFFCURVE",
"614 715 OFFCURVE",
"403 715 CURVE SMOOTH",
"187 715 OFFCURVE",
"50 585 OFFCURVE",
"50 342 CURVE SMOOTH",
"50 111 OFFCURVE",
"181 -15 OFFCURVE",
"391 -15 CURVE SMOOTH"
);
},
{
closed = 1;
nodes = (
"327 203 OFFCURVE",
"283 253 OFFCURVE",
"283 348 CURVE SMOOTH",
"283 444 OFFCURVE",
"328 488 OFFCURVE",
"396 488 CURVE SMOOTH",
"466 488 OFFCURVE",
"511 444 OFFCURVE",
"511 345 CURVE SMOOTH",
"511 250 OFFCURVE",
"468 203 OFFCURVE",
"399 203 CURVE SMOOTH"
);
}
);
};
layerId = "BFFFD157-90D3-4B85-B99D-9A2F366F03CA";
paths = (
{
closed = 1;
nodes = (
"529 226 LINE",
"499 213 OFFCURVE",
"455 204 OFFCURVE",
"407 204 CURVE SMOOTH",
"312 204 OFFCURVE",
"263 242 OFFCURVE",
"263 347 CURVE SMOOTH",
"263 451 OFFCURVE",
"311 490 OFFCURVE",
"402 490 CURVE SMOOTH",
"445 490 OFFCURVE",
"481 480 OFFCURVE",
"507 466 CURVE",
"575 668 LINE",
"522 700 OFFCURVE",
"452 715 OFFCURVE",
"379 715 CURVE SMOOTH",
"147 715 OFFCURVE",
"30 585 OFFCURVE",
"30 342 CURVE SMOOTH",
"30 111 OFFCURVE",
"143 -15 OFFCURVE",
"369 -15 CURVE SMOOTH",
"445 -15 OFFCURVE",
"519 1 OFFCURVE",
"567 26 CURVE"
);
}
);
width = 595;
},
{
anchors = (
{
name = bottom;
position = "{327, 0}";
},
{
name = top;
position = "{342, 700}";
},
{
name = topright;
position = "{561, 700}";
}
);
hints = (
{
horizontal = 1;
origin = "{0, 22}";
target = "{0, 3}";
type = TTStem;
options = 4;
},
{
horizontal = 1;
origin = "{0, 16}";
target = "{0, 9}";
type = TTStem;
options = 4;
}
);
layerId = "3E7589AA-8194-470F-8E2F-13C1C581BE24";
paths = (
{
closed = 1;
nodes = (
"515 107 LINE",
"467 88 OFFCURVE",
"410 80 OFFCURVE",
"367 80 CURVE SMOOTH",
"221 80 OFFCURVE",
"148 162 OFFCURVE",
"148 344 CURVE SMOOTH",
"148 533 OFFCURVE",
"222 620 OFFCURVE",
"369 620 CURVE SMOOTH",
"415 620 OFFCURVE",
"467 611 OFFCURVE",
"513 592 CURVE",
"536 678 LINE",
"493 698 OFFCURVE",
"435 711 OFFCURVE",
"372 711 CURVE SMOOTH",
"162 711 OFFCURVE",
"55 585 OFFCURVE",
"55 342 CURVE SMOOTH",
"55 111 OFFCURVE",
"156 -11 OFFCURVE",
"356 -11 CURVE SMOOTH",
"432 -11 OFFCURVE",
"495 5 OFFCURVE",
"538 26 CURVE"
);
}
);
width = 581;
},
{
anchors = (
{
name = bottom;
position = "{335, 0}";
},
{
name = top;
position = "{344, 700}";
},
{
name = topright;
position = "{562, 700}";
}
);
hints = (
{
horizontal = 1;
origin = "{0, 22}";
target = "{0, 3}";
type = TTStem;
options = 4;
},
{
horizontal = 1;
origin = "{0, 16}";
target = "{0, 9}";
type = TTStem;
options = 4;
}
);
layerId = "4E6F1D76-CF39-4449-9239-DE310961C1DD";
paths = (
{
closed = 1;
nodes = (
"524 45 LINE",
"481 10 OFFCURVE",
"422 -3 OFFCURVE",
"365 -3 CURVE SMOOTH",
"185 -3 OFFCURVE",
"90 115 OFFCURVE",
"90 342 CURVE SMOOTH",
"90 578 OFFCURVE",
"177 703 OFFCURVE",
"374 703 CURVE SMOOTH",
"429 703 OFFCURVE",
"472 693 OFFCURVE",
"514 668 CURVE",
"517 673 LINE",
"472 700 OFFCURVE",
"427 709 OFFCURVE",
"374 709 CURVE SMOOTH",
"174 709 OFFCURVE",
"84 583 OFFCURVE",
"84 342 CURVE SMOOTH",
"84 111 OFFCURVE",
"180 -9 OFFCURVE",
"365 -9 CURVE SMOOTH",
"425 -9 OFFCURVE",
"483 5 OFFCURVE",
"527 39 CURVE"
);
}
);
width = 582;
}
);
leftKerningGroup = O;
leftMetricsKey = O;
rightKerningGroup = C;
unicode = 0043;
},
{
glyphname = Ccircumflex;
lastChange = "2016-11-25 19:43:40 +0000";
layers = (
{
background = {
paths = (
{
closed = 1;
nodes = (
"515 202 LINE",
"494 103 OFFCURVE",
"422 42 OFFCURVE",
"326 42 CURVE SMOOTH",
"274 42 OFFCURVE",
"228 60 OFFCURVE",
"191 97 CURVE SMOOTH",
"140 148 OFFCURVE",
"136 206 OFFCURVE",
"136 356 CURVE SMOOTH",
"136 506 OFFCURVE",
"140 564 OFFCURVE",
"191 615 CURVE SMOOTH",
"228 652 OFFCURVE",
"274 670 OFFCURVE",
"326 670 CURVE SMOOTH",
"422 670 OFFCURVE",
"492 609 OFFCURVE",
"513 510 CURVE",
"568 510 LINE",
"544 638 OFFCURVE",
"454 718 OFFCURVE",
"326 718 CURVE SMOOTH",
"255 718 OFFCURVE",
"195 692 OFFCURVE",
"153 650 CURVE SMOOTH",
"87 584 OFFCURVE",
"82 529 OFFCURVE",
"82 356 CURVE SMOOTH",
"82 183 OFFCURVE",
"87 128 OFFCURVE",
"153 62 CURVE SMOOTH",
"195 20 OFFCURVE",
"255 -6 OFFCURVE",
"326 -6 CURVE SMOOTH",
"452 -6 OFFCURVE",
"544 74 OFFCURVE",
"568 202 CURVE"
);
},
{
closed = 1;
nodes = (
"476 780 LINE",
"353 927 LINE",
"299 927 LINE",
"176 780 LINE",
"233 780 LINE",
"326 889 LINE",
"419 780 LINE"
);
}
);
};
components = (
{
name = C;
},
{
name = circumflex;
transform = "{1, 0, 0, 1, 119, 220}";
}
);
layerId = "3E7589AA-8194-470F-8E2F-13C1C581BE24";
width = 581;
},
{
background = {
paths = (
{
closed = 1;
nodes = (
"411 226 LINE",
"400 186 OFFCURVE",
"378 150 OFFCURVE",
"320 150 CURVE SMOOTH",
"288 150 OFFCURVE",
"264 163 OFFCURVE",
"251 180 CURVE SMOOTH",
"235 201 OFFCURVE",
"224 226 OFFCURVE",
"224 356 CURVE SMOOTH",
"224 486 OFFCURVE",
"235 511 OFFCURVE",
"251 532 CURVE SMOOTH",
"264 549 OFFCURVE",
"288 562 OFFCURVE",
"320 562 CURVE SMOOTH",
"378 562 OFFCURVE",
"400 526 OFFCURVE",
"411 486 CURVE",
"589 486 LINE",
"563 643 OFFCURVE",
"455 718 OFFCURVE",
"320 718 CURVE SMOOTH",
"233 718 OFFCURVE",
"173 691 OFFCURVE",
"122 640 CURVE SMOOTH",
"49 567 OFFCURVE",
"49 476 OFFCURVE",
"49 356 CURVE SMOOTH",
"49 236 OFFCURVE",
"49 145 OFFCURVE",
"122 72 CURVE SMOOTH",
"173 21 OFFCURVE",
"233 -6 OFFCURVE",
"320 -6 CURVE SMOOTH",
"455 -6 OFFCURVE",
"563 69 OFFCURVE",
"589 226 CURVE"
);
},
{
closed = 1;
nodes = (
"520 782 LINE",
"384 961 LINE",
"254 961 LINE",
"118 782 LINE",
"240 782 LINE",
"319 865 LINE",
"398 782 LINE"
);
}
);
};
components = (
{
name = C;
},
{
name = circumflex;
transform = "{1, 0, 0, 1, 60, 210}";
}
);
layerId = "BFFFD157-90D3-4B85-B99D-9A2F366F03CA";
width = 595;
},
{
components = (
{
name = C;
},
{
name = circumflex;
transform = "{1, 0, 0, 1, 156, 232}";
}
);
layerId = "4E6F1D76-CF39-4449-9239-DE310961C1DD";
width = 582;
}
);
leftKerningGroup = O;
rightKerningGroup = C;
unicode = 0108;
},
{
glyphname = D;
lastChange = "2016-11-25 19:43:40 +0000";
layers = (
{
anchors = (
{
name = bottom;
position = "{318, 0}";
},
{
name = center;
position = "{348, 350}";
},
{
name = stroke;
position = "{165, 329}";
},
{
name = top;
position = "{318, 700}";
},
{
name = topright;
position = "{686, 700}";
}
);
background = {
paths = (
{
closed = 1;
nodes = (
"575 -15 OFFCURVE",
"713 114 OFFCURVE",
"713 354 CURVE SMOOTH",
"713 584 OFFCURVE",
"584 715 OFFCURVE",
"373 715 CURVE SMOOTH",
"157 715 OFFCURVE",
"20 585 OFFCURVE",
"20 342 CURVE SMOOTH",
"20 111 OFFCURVE",
"151 -15 OFFCURVE",
"361 -15 CURVE SMOOTH"
);
},
{
closed = 1;
nodes = (
"297 203 OFFCURVE",
"253 253 OFFCURVE",
"253 348 CURVE SMOOTH",
"253 444 OFFCURVE",
"298 488 OFFCURVE",
"366 488 CURVE SMOOTH",
"436 488 OFFCURVE",
"481 444 OFFCURVE",
"481 345 CURVE SMOOTH",
"481 250 OFFCURVE",
"438 203 OFFCURVE",
"369 203 CURVE SMOOTH"
);
}
);
};
layerId = "BFFFD157-90D3-4B85-B99D-9A2F366F03CA";
paths = (
{
closed = 1;
nodes = (
"265 686 LINE",
"40 694 LINE",
"40 7 LINE",
"265 20 LINE"
);
},
{
closed = 1;
nodes = (
"537 -8 OFFCURVE",
"672 108 OFFCURVE",
"672 349 CURVE SMOOTH",
"672 588 OFFCURVE",
"541 707 OFFCURVE",
"250 707 CURVE SMOOTH",
"186 707 OFFCURVE",
"103 701 OFFCURVE",
"40 694 CURVE",
"224 480 LINE",
"249 484 OFFCURVE",
"276 487 OFFCURVE",
"296 487 CURVE SMOOTH",
"395 487 OFFCURVE",
"442 439 OFFCURVE",
"442 338 CURVE SMOOTH",
"442 230 OFFCURVE",
"388 196 OFFCURVE",
"294 196 CURVE SMOOTH",
"271 196 OFFCURVE",
"247 198 OFFCURVE",
"221 203 CURVE",
"40 7 LINE",
"119 -2 OFFCURVE",
"186 -8 OFFCURVE",
"250 -8 CURVE SMOOTH"
);
}
);
width = 702;
},
{
anchors = (
{
name = bottom;
position = "{317, 0}";
},
{
name = center;
position = "{347, 350}";
},
{
name = stroke;
position = "{160, 319}";
},
{
name = top;
position = "{317, 700}";
},
{
name = topright;
position = "{678, 700}";
}
);
background = {
paths = (
{
closed = 1;
nodes = (
"564 -15 OFFCURVE",
"691 110 OFFCURVE",
"691 350 CURVE SMOOTH",
"691 580 OFFCURVE",
"573 712 OFFCURVE",
"377 712 CURVE SMOOTH",
"181 712 OFFCURVE",
"55 585 OFFCURVE",
"55 342 CURVE SMOOTH",
"55 111 OFFCURVE",
"175 -15 OFFCURVE",
"368 -15 CURVE SMOOTH"
);
},
{
closed = 1;
nodes = (
"224 75 OFFCURVE",
"148 169 OFFCURVE",
"148 349 CURVE SMOOTH",
"148 532 OFFCURVE",
"229 621 OFFCURVE",
"372 621 CURVE SMOOTH",
"518 621 OFFCURVE",
"598 529 OFFCURVE",
"598 343 CURVE SMOOTH",
"598 164 OFFCURVE",
"519 75 OFFCURVE",
"374 75 CURVE SMOOTH"
);
}
);
};
hints = (
{
horizontal = 1;
origin = "{1, 25}";
target = "{1, 18}";
type = TTStem;
options = 4;
},
{
horizontal = 1;
origin = "{1, 5}";
target = "{1, 12}";
type = TTStem;
options = 4;
}
);
layerId = "3E7589AA-8194-470F-8E2F-13C1C581BE24";
paths = (
{
closed = 1;
nodes = (
"178 669 LINE",
"85 693 LINE",
"85 7 LINE",
"178 34 LINE"
);
},
{
closed = 1;
nodes = (
"486 -6 OFFCURVE",
"638 104 OFFCURVE",
"638 352 CURVE SMOOTH",
"638 585 OFFCURVE",
"498 706 OFFCURVE",
"253 706 CURVE SMOOTH",
"211 706 OFFCURVE",
"148 702 OFFCURVE",
"85 693 CURVE",
"143 607 LINE",
"186 611 OFFCURVE",
"229 613 OFFCURVE",
"262 613 CURVE SMOOTH",
"466 613 OFFCURVE",
"545 505 OFFCURVE",
"545 342 CURVE SMOOTH",
"545 171 OFFCURVE",
"453 86 OFFCURVE",
"267 86 CURVE SMOOTH",
"231 86 OFFCURVE",
"184 89 OFFCURVE",
"138 94 CURVE",
"85 7 LINE",
"148 -2 OFFCURVE",
"211 -6 OFFCURVE",
"254 -6 CURVE SMOOTH"
);
}
);
width = 693;
},
{
anchors = (
{
name = bottom;
position = "{315, 0}";
},
{
name = center;
position = "{356, 350}";
},
{
name = stroke;
position = "{166, 331}";
},
{
name = top;
position = "{326, 700}";
},
{
name = topright;
position = "{692, 700}";
}
);
hints = (
{
horizontal = 1;
origin = "{1, 25}";
target = "{1, 18}";
type = TTStem;
options = 4;
},
{
horizontal = 1;
origin = "{1, 5}";
target = "{1, 12}";
type = TTStem;
options = 4;
}
);
layerId = "4E6F1D76-CF39-4449-9239-DE310961C1DD";
paths = (
{
closed = 1;
nodes = (
"115 690 LINE",
"109 693 LINE",
"109 8 LINE",
"115 11 LINE"
);
},
{
closed = 1;
nodes = (
"498 -6 OFFCURVE",
"623 103 OFFCURVE",
"623 340 CURVE SMOOTH",
"623 585 OFFCURVE",
"496 706 OFFCURVE",
"275 706 CURVE SMOOTH",
"220 706 OFFCURVE",
"165 701 OFFCURVE",
"109 693 CURVE",
"112 687 LINE",
"166 695 OFFCURVE",
"222 700 OFFCURVE",
"274 700 CURVE SMOOTH",
"491 700 OFFCURVE",
"616 580 OFFCURVE",
"616 342 CURVE SMOOTH",
"616 107 OFFCURVE",
"491 0 OFFCURVE",
"277 0 CURVE SMOOTH",
"223 0 OFFCURVE",
"167 5 OFFCURVE",
"114 14 CURVE",
"109 8 LINE",
"165 -1 OFFCURVE",
"220 -6 OFFCURVE",
"280 -6 CURVE SMOOTH"
);
}
);
width = 707;
}
);
leftKerningGroup = H;
leftMetricsKey = H;
rightKerningGroup = O;
rightMetricsKey = O;
unicode = 0044;
},
{
glyphname = E;
lastChange = "2016-11-25 19:43:40 +0000";
layers = (
{
anchors = (
{
name = bottom;
position = "{251, 0}";
},
{
name = ogonek;
position = "{475, 0}";
},
{
name = top;
position = "{251, 700}";
},
{
name = topleft;
position = "{10, 700}";
}
);
layerId = "BFFFD157-90D3-4B85-B99D-9A2F366F03CA";
paths = (
{
closed = 1;
nodes = (
"265 700 LINE",
"40 700 LINE",
"40 0 LINE",
"265 0 LINE"
);
},
{
closed = 1;
nodes = (
"170 700 LINE",
"162 510 LINE",
"485 510 LINE",
"485 700 LINE"
);
},
{
closed = 1;
nodes = (
"170 170 LINE",
"162 0 LINE",
"495 0 LINE",
"495 170 LINE"
);
},
{
closed = 1;
nodes = (
"170 430 LINE",
"162 250 LINE",
"465 250 LINE",
"465 430 LINE"
);
}
);
width = 525;
},
{
anchors = (
{
name = bottom;
position = "{303, 0}";
},
{
name = ogonek;
position = "{501, 0}";
},
{
name = top;
position = "{303, 700}";
},
{
name = topleft;
position = "{15, 700}";
}
);
hints = (
{
horizontal = 1;
origin = "{0, 2}";
target = "{2, 0}";
type = TTStem;
options = 4;
},
{
horizontal = 1;
origin = "{3, 1}";
target = "{3, 0}";
type = TTStem;
options = 4;
},
{
horizontal = 1;
origin = "{0, 1}";
target = "{1, 1}";
type = TTStem;
options = 4;
}
);
layerId = "3E7589AA-8194-470F-8E2F-13C1C581BE24";
paths = (
{
closed = 1;
nodes = (
"178 700 LINE",
"85 700 LINE",
"85 0 LINE",
"178 0 LINE"
);
},
{
closed = 1;
nodes = (
"139 700 LINE",
"137 611 LINE",
"511 611 LINE",
"511 700 LINE"
);
},
{
closed = 1;
nodes = (
"139 89 LINE",
"137 0 LINE",
"521 0 LINE",
"521 89 LINE"
);
},
{
closed = 1;
nodes = (
"139 367 LINE",
"137 278 LINE",
"491 278 LINE",
"491 367 LINE"
);
}
);
width = 571;
},
{
anchors = (
{
name = bottom;
position = "{285, 0}";
},
{
name = ogonek;
position = "{496, 0}";
},
{
name = top;
position = "{285, 700}";
},
{
name = topleft;
position = "{20, 700}";
}
);
associatedMasterId = "3E7589AA-8194-470F-8E2F-13C1C581BE24";
layerId = "C547734F-1E61-42F6-9333-BE0363325E41";
name = "{155, 100}";
paths = (
{
closed = 1;
nodes = (
"229 700 LINE",
"70 700 LINE",
"70 0 LINE",
"229 0 LINE"
);
},
{
closed = 1;
nodes = (
"162 700 LINE",
"157 548 LINE",
"486 548 LINE",
"486 700 LINE"
);
},
{
closed = 1;
nodes = (
"162 153 LINE",
"157 0 LINE",
"496 0 LINE",
"496 153 LINE"
);
},
{
closed = 1;
nodes = (
"162 407 LINE",
"157 264 LINE",
"466 264 LINE",
"466 407 LINE"
);
}
);
width = 536;
},
{
anchors = (
{
name = bottom;
position = "{300, 0}";
},
{
name = ogonek;
position = "{490, 0}";
},
{
name = top;
position = "{300, 700}";
},
{
name = topleft;
position = "{20, 700}";
}
);
hints = (
{
horizontal = 1;
origin = "{0, 2}";
target = "{2, 0}";
type = TTStem;
options = 4;
},
{
horizontal = 1;
origin = "{3, 1}";
target = "{3, 0}";
type = TTStem;
options = 4;
},
{
horizontal = 1;
origin = "{0, 1}";
target = "{1, 1}";
type = TTStem;
options = 4;
}
);
layerId = "4E6F1D76-CF39-4449-9239-DE310961C1DD";
paths = (
{
closed = 1;
nodes = (
"115 700 LINE",
"109 700 LINE",
"109 0 LINE",
"115 0 LINE"
);
},
{
closed = 1;
nodes = (
"113 700 LINE",
"113 694 LINE",
"500 694 LINE",
"500 700 LINE"
);
},
{
closed = 1;
nodes = (
"113 6 LINE",
"113 0 LINE",
"510 0 LINE",
"510 6 LINE"
);
},
{
closed = 1;
nodes = (
"113 329 LINE",
"113 323 LINE",
"480 323 LINE",
"480 329 LINE"
);
}
);
width = 571;
}
);
leftKerningGroup = H;
leftMetricsKey = H;
rightKerningGroup = E;
unicode = 0045;
},
{
glyphname = Ebreve;
lastChange = "2016-11-25 19:43:40 +0000";
layers = (
{
background = {
paths = (
{
closed = 1;
nodes = (
"542 0 LINE",
"542 48 LINE",
"164 48 LINE",
"164 335 LINE",
"486 335 LINE",
"486 383 LINE",
"164 383 LINE",
"164 664 LINE",
"542 664 LINE",
"542 712 LINE",
"110 712 LINE",
"110 0 LINE"
);
},
{
closed = 1;
nodes = (
"434 927 LINE",
"426 871 OFFCURVE",
"383 837 OFFCURVE",
"314 837 CURVE SMOOTH",
"245 837 OFFCURVE",
"202 871 OFFCURVE",
"194 927 CURVE",
"149 927 LINE",
"158 842 OFFCURVE",
"206 792 OFFCURVE",
"314 792 CURVE SMOOTH",
"422 792 OFFCURVE",
"470 842 OFFCURVE",
"479 927 CURVE"
);
}
);
};
components = (
{
name = E;
},
{
name = breve;
transform = "{1, 0, 0, 1, 106, 220}";
}
);
layerId = "3E7589AA-8194-470F-8E2F-13C1C581BE24";
width = 571;
},
{
background = {
paths = (
{
closed = 1;
nodes = (
"556 0 LINE",
"556 156 LINE",
"247 156 LINE",
"247 281 LINE",
"511 281 LINE",
"511 437 LINE",
"247 437 LINE",
"247 556 LINE",
"556 556 LINE",
"556 712 LINE",
"72 712 LINE",
"72 0 LINE"
);
},
{
closed = 1;
nodes = (
"367 931 LINE",
"364 894 OFFCURVE",
"334 884 OFFCURVE",
"309 884 CURVE SMOOTH",
"284 884 OFFCURVE",
"254 894 OFFCURVE",
"251 931 CURVE",
"145 931 LINE",
"148 813 OFFCURVE",
"232 774 OFFCURVE",
"309 774 CURVE SMOOTH",
"386 774 OFFCURVE",
"470 813 OFFCURVE",
"473 931 CURVE"
);
}
);
};
components = (
{
name = E;
},
{
name = breve;
transform = "{1, 0, 0, 1, -3, 210}";
}
);
layerId = "BFFFD157-90D3-4B85-B99D-9A2F366F03CA";
width = 525;
},
{
components = (
{
name = E;
},
{
name = breve;
transform = "{1, 0, 0, 1, 127, 232}";
}
);
layerId = "4E6F1D76-CF39-4449-9239-DE310961C1DD";
width = 571;
}
);
leftKerningGroup = H;
rightKerningGroup = E;
unicode = 0114;
},
{
glyphname = F;
lastChange = "2016-11-25 19:43:40 +0000";
layers = (
{
anchors = (
{
name = bottom;
position = "{164, 0}";
},
{
name = top;
position = "{243, 700}";
}
);
background = {
paths = (
{
closed = 1;
nodes = (
"265 700 LINE",
"40 700 LINE",
"40 0 LINE",
"265 0 LINE"
);
},
{
closed = 1;
nodes = (
"170 700 LINE",
"162 530 LINE",
"465 530 LINE",
"465 700 LINE"
);
},
{
closed = 1;
nodes = (
"170 170 LINE",
"162 0 LINE",
"475 0 LINE",
"475 170 LINE"
);
},
{
closed = 1;
nodes = (
"170 430 LINE",
"162 260 LINE",
"445 260 LINE",
"445 430 LINE"
);
}
);
};
layerId = "BFFFD157-90D3-4B85-B99D-9A2F366F03CA";
paths = (
{
closed = 1;
nodes = (
"265 700 LINE",
"40 700 LINE",
"40 0 LINE",
"265 0 LINE"
);
},
{
closed = 1;
nodes = (
"170 700 LINE",
"162 490 LINE",
"485 490 LINE",
"485 700 LINE"
);
},
{
closed = 1;
nodes = (
"170 397 LINE",
"162 207 LINE",
"470 207 LINE",
"470 397 LINE"
);
}
);
width = 515;
},
{
anchors = (
{
name = bottom;
position = "{137, 0}";
},
{
name = top;
position = "{273, 700}";
}
);
background = {
paths = (
{
closed = 1;
nodes = (
"139 369 LINE",
"137 278 LINE",
"549 278 LINE",
"553 369 LINE"
);
}
);
};
hints = (
{
horizontal = 1;
origin = "{0, 2}";
type = Anchor;
options = 4;
},
{
horizontal = 1;
origin = "{2, 1}";
target = "{2, 0}";
type = TTStem;
options = 4;
},
{
horizontal = 1;
origin = "{0, 1}";
target = "{1, 1}";
type = TTStem;
options = 4;
}
);
layerId = "3E7589AA-8194-470F-8E2F-13C1C581BE24";
paths = (
{
closed = 1;
nodes = (
"178 700 LINE",
"85 700 LINE",
"85 0 LINE",
"178 0 LINE"
);
},
{
closed = 1;
nodes = (
"139 700 LINE",
"137 609 LINE",
"481 609 LINE",
"481 700 LINE"
);
},
{
closed = 1;
nodes = (
"139 369 LINE",
"137 278 LINE",
"461 278 LINE",
"461 369 LINE"
);
}
);
width = 531;
},
{
anchors = (
{
name = bottom;
position = "{113, 0}";
},
{
name = top;
position = "{279, 700}";
}
);
hints = (
{
horizontal = 1;
origin = "{0, 2}";
type = Anchor;
options = 4;
},
{
horizontal = 1;
origin = "{2, 1}";
target = "{2, 0}";
type = TTStem;
options = 4;
},
{
horizontal = 1;
origin = "{0, 1}";
target = "{1, 1}";
type = TTStem;
options = 4;
}
);
layerId = "4E6F1D76-CF39-4449-9239-DE310961C1DD";
paths = (
{
closed = 1;
nodes = (
"115 700 LINE",
"109 700 LINE",
"109 0 LINE",
"115 0 LINE"
);
},
{
closed = 1;
nodes = (
"114 700 LINE",
"113 694 LINE",
"494 694 LINE",
"494 700 LINE"
);
},
{
closed = 1;
nodes = (
"112 329 LINE",
"112 323 LINE",
"474 323 LINE",
"474 329 LINE"
);
}
);
width = 548;
}
);
leftKerningGroup = H;
leftMetricsKey = H;
rightKerningGroup = F;
unicode = 0046;
},
{
glyphname = G;
lastChange = "2016-11-25 19:43:40 +0000";
layers = (
{
anchors = (
{
name = bottom;
position = "{378, 0}";
},
{
name = top;
position = "{378, 700}";
},
{
name = topright;
position = "{671, 700}";
}
);
background = {
paths = (
{
closed = 1;
nodes = (
"275 700 LINE",
"50 700 LINE",
"50 0 LINE",
"275 0 LINE"
);
},
{
closed = 1;
nodes = (
"690 700 LINE",
"465 700 LINE",
"465 0 LINE",
"690 0 LINE"
);
},
{
closed = 1;
nodes = (
"180 423 LINE",
"172 208 LINE",
"614 208 LINE",
"618 423 LINE"
);
}
);
};
layerId = "BFFFD157-90D3-4B85-B99D-9A2F366F03CA";
paths = (
{
closed = 1;
nodes = (
"505 -15 OFFCURVE",
"590 6 OFFCURVE",
"656 34 CURVE",
"656 409 LINE",
"371 409 LINE",
"371 259 LINE",
"469 259 LINE",
"469 83 LINE",
"494 199 LINE",
"472 192 OFFCURVE",
"433 188 OFFCURVE",
"405 188 CURVE SMOOTH",
"302 188 OFFCURVE",
"263 241 OFFCURVE",
"263 343 CURVE SMOOTH",
"263 448 OFFCURVE",
"301 501 OFFCURVE",
"426 501 CURVE SMOOTH",
"496 501 OFFCURVE",
"545 484 OFFCURVE",
"583 464 CURVE",
"629 664 LINE",
"579 695 OFFCURVE",
"509 715 OFFCURVE",
"407 715 CURVE SMOOTH",
"167 715 OFFCURVE",
"30 595 OFFCURVE",
"30 342 CURVE SMOOTH",
"30 101 OFFCURVE",
"163 -15 OFFCURVE",
"397 -15 CURVE SMOOTH"
);
}
);
width = 691;
},
{
anchors = (
{
name = bottom;
position = "{372, 0}";
},
{
name = top;
position = "{372, 700}";
},
{
name = topright;
position = "{649, 700}";
}
);
background = {
paths = (
{
closed = 1;
nodes = (
"198 700 LINE",
"105 700 LINE",
"105 0 LINE",
"198 0 LINE"
);
},
{
closed = 1;
nodes = (
"605 700 LINE",
"512 700 LINE",
"512 0 LINE",
"605 0 LINE"
);
},
{
closed = 1;
nodes = (
"159 369 LINE",
"157 278 LINE",
"569 278 LINE",
"573 369 LINE"
);
}
);
};
hints = (
{
horizontal = 1;
origin = "{0, 30}";
target = "{0, 11}";
type = TTStem;
options = 4;
},
{
horizontal = 1;
origin = "{0, 5}";
target = "{0, 4}";
type = TTStem;
options = 4;
},
{
horizontal = 1;
origin = "{0, 24}";
target = "{0, 17}";
type = TTStem;
options = 4;
}
);
layerId = "3E7589AA-8194-470F-8E2F-13C1C581BE24";
paths = (
{
closed = 1;
nodes = (
"494 -11 OFFCURVE",
"561 5 OFFCURVE",
"614 26 CURVE",
"614 369 LINE",
"366 369 LINE",
"366 278 LINE",
"521 278 LINE",
"521 51 LINE",
"565 102 LINE",
"518 85 OFFCURVE",
"474 80 OFFCURVE",
"413 80 CURVE SMOOTH",
"231 80 OFFCURVE",
"148 162 OFFCURVE",
"148 344 CURVE SMOOTH",
"148 533 OFFCURVE",
"232 619 OFFCURVE",
"405 619 CURVE SMOOTH",
"465 619 OFFCURVE",
"517 610 OFFCURVE",
"563 591 CURVE",
"586 678 LINE",
"543 698 OFFCURVE",
"485 711 OFFCURVE",
"408 711 CURVE SMOOTH",
"172 711 OFFCURVE",
"55 585 OFFCURVE",
"55 342 CURVE SMOOTH",
"55 111 OFFCURVE",
"166 -11 OFFCURVE",
"402 -11 CURVE SMOOTH"
);
}
);
width = 674;
},
{
anchors = (
{
name = bottom;
position = "{405, 0}";
},
{
name = top;
position = "{405, 700}";
},
{
name = topright;
position = "{665, 700}";
}
);
associatedMasterId = "3E7589AA-8194-470F-8E2F-13C1C581BE24";
background = {
paths = (
{
closed = 1;
nodes = (
"203 700 LINE",
"110 700 LINE",
"110 0 LINE",
"203 0 LINE"
);
},
{
closed = 1;
nodes = (
"610 700 LINE",
"517 700 LINE",
"517 0 LINE",
"610 0 LINE"
);
},
{
closed = 1;
nodes = (
"164 369 LINE",
"162 278 LINE",
"574 278 LINE",
"578 369 LINE"
);
}
);
};
layerId = "90EAFF21-2A4C-4990-BD9B-8CA04631CB3B";
name = "{155, 100}";
paths = (
{
closed = 1;
nodes = (
"504 -13 OFFCURVE",
"580 6 OFFCURVE",
"640 30 CURVE",
"640 399 LINE",
"373 399 LINE",
"373 259 LINE",
"500 259 LINE",
"500 67 LINE",
"534 157 LINE",
"500 145 OFFCURVE",
"458 140 OFFCURVE",
"414 140 CURVE SMOOTH",
"271 140 OFFCURVE",
"210 208 OFFCURVE",
"210 344 CURVE SMOOTH",
"210 482 OFFCURVE",
"271 555 OFFCURVE",
"420 555 CURVE SMOOTH",
"485 555 OFFCURVE",
"536 542 OFFCURVE",
"578 523 CURVE",
"612 671 LINE",
"566 697 OFFCURVE",
"502 713 OFFCURVE",
"412 713 CURVE SMOOTH",
"174 713 OFFCURVE",
"47 590 OFFCURVE",
"47 342 CURVE SMOOTH",
"47 106 OFFCURVE",
"169 -13 OFFCURVE",
"404 -13 CURVE SMOOTH"
);
}
);
width = 685;
},
{
anchors = (
{
name = bottom;
position = "{365, 0}";
},
{
name = top;
position = "{359, 700}";
},
{
name = topright;
position = "{652, 700}";
}
);
hints = (
{
horizontal = 1;
origin = "{0, 30}";
target = "{0, 11}";
type = TTStem;
options = 4;
},
{
horizontal = 1;
origin = "{0, 5}";
target = "{0, 4}";
type = TTStem;
options = 4;
},
{
horizontal = 1;
origin = "{0, 24}";
target = "{0, 17}";
type = TTStem;
options = 4;
}
);
layerId = "4E6F1D76-CF39-4449-9239-DE310961C1DD";
paths = (
{
closed = 1;
nodes = (
"470 -9 OFFCURVE",
"532 9 OFFCURVE",
"588 43 CURVE",
"588 329 LINE",
"373 329 LINE",
"373 323 LINE",
"582 323 LINE",
"582 41 LINE",
"587 49 LINE",
"532 15 OFFCURVE",
"466 -3 OFFCURVE",
"389 -3 CURVE SMOOTH",
"194 -3 OFFCURVE",
"90 115 OFFCURVE",
"90 342 CURVE SMOOTH",
"90 578 OFFCURVE",
"183 703 OFFCURVE",
"388 703 CURVE SMOOTH",
"452 703 OFFCURVE",
"499 689 OFFCURVE",
"547 664 CURVE",
"548 670 LINE",
"499 697 OFFCURVE",
"450 709 OFFCURVE",
"388 709 CURVE SMOOTH",
"180 709 OFFCURVE",
"84 583 OFFCURVE",
"84 342 CURVE SMOOTH",
"84 111 OFFCURVE",
"190 -9 OFFCURVE",
"391 -9 CURVE SMOOTH"
);
}
);
width = 683;
}
);
leftKerningGroup = O;
leftMetricsKey = O;
rightKerningGroup = G;
unicode = 0047;
},
{
glyphname = Gcircumflex;
lastChange = "2016-11-25 19:43:40 +0000";
layers = (
{
background = {
paths = (
{
closed = 1;
nodes = (
"571 364 LINE",
"326 364 LINE",
"326 316 LINE",
"517 316 LINE",
"517 252 LINE SMOOTH",
"517 191 OFFCURVE",
"505 150 OFFCURVE",
"474 111 CURVE SMOOTH",
"437 66 OFFCURVE",
"382 42 OFFCURVE",
"326 42 CURVE SMOOTH",
"274 42 OFFCURVE",
"228 60 OFFCURVE",
"191 97 CURVE SMOOTH",
"140 148 OFFCURVE",
"136 206 OFFCURVE",
"136 356 CURVE SMOOTH",
"136 506 OFFCURVE",
"140 564 OFFCURVE",
"191 615 CURVE SMOOTH",
"228 652 OFFCURVE",
"274 670 OFFCURVE",
"326 670 CURVE SMOOTH",
"422 670 OFFCURVE",
"494 609 OFFCURVE",
"515 510 CURVE",
"569 510 LINE",
"548 635 OFFCURVE",
"450 718 OFFCURVE",
"326 718 CURVE SMOOTH",
"255 718 OFFCURVE",
"195 692 OFFCURVE",
"153 650 CURVE SMOOTH",
"87 584 OFFCURVE",
"82 529 OFFCURVE",
"82 356 CURVE SMOOTH",
"82 183 OFFCURVE",
"87 128 OFFCURVE",
"153 62 CURVE SMOOTH",
"195 20 OFFCURVE",
"255 -6 OFFCURVE",
"326 -6 CURVE SMOOTH",
"398 -6 OFFCURVE",
"467 25 OFFCURVE",
"513 76 CURVE SMOOTH",
"555 123 OFFCURVE",
"571 173 OFFCURVE",
"571 248 CURVE SMOOTH"
);
},
{
closed = 1;
nodes = (
"476 780 LINE",
"353 927 LINE",
"299 927 LINE",
"176 780 LINE",
"233 780 LINE",
"326 889 LINE",
"419 780 LINE"
);
}
);
};
components = (
{
name = G;
},
{
name = circumflex;
transform = "{1, 0, 0, 1, 149, 220}";
}
);
layerId = "3E7589AA-8194-470F-8E2F-13C1C581BE24";
width = 674;
},
{
background = {
paths = (
{
closed = 1;
nodes = (
"598 410 LINE",
"319 410 LINE",
"319 264 LINE",
"424 264 LINE",
"424 254 LINE SMOOTH",
"424 227 OFFCURVE",
"417 198 OFFCURVE",
"397 178 CURVE SMOOTH",
"381 161 OFFCURVE",
"356 150 OFFCURVE",
"319 150 CURVE SMOOTH",
"287 150 OFFCURVE",
"263 163 OFFCURVE",
"250 180 CURVE SMOOTH",
"234 201 OFFCURVE",
"224 226 OFFCURVE",
"224 356 CURVE SMOOTH",
"224 486 OFFCURVE",
"234 510 OFFCURVE",
"250 531 CURVE SMOOTH",
"263 548 OFFCURVE",
"287 562 OFFCURVE",
"319 562 CURVE SMOOTH",
"379 562 OFFCURVE",
"407 536 OFFCURVE",
"421 482 CURVE",
"597 482 LINE",
"580 599 OFFCURVE",
"502 718 OFFCURVE",
"319 718 CURVE SMOOTH",
"233 718 OFFCURVE",
"173 691 OFFCURVE",
"122 640 CURVE SMOOTH",
"49 567 OFFCURVE",
"49 476 OFFCURVE",
"49 356 CURVE SMOOTH",
"49 236 OFFCURVE",
"49 145 OFFCURVE",
"122 72 CURVE SMOOTH",
"173 21 OFFCURVE",
"233 -6 OFFCURVE",
"319 -6 CURVE SMOOTH",
"397 -6 OFFCURVE",
"465 11 OFFCURVE",
"526 74 CURVE SMOOTH",
"580 129 OFFCURVE",
"598 196 OFFCURVE",
"598 311 CURVE"
);
},
{
closed = 1;
nodes = (
"520 782 LINE",
"384 961 LINE",
"254 961 LINE",
"118 782 LINE",
"240 782 LINE",
"319 865 LINE",
"398 782 LINE"
);
}
);
};
components = (
{
name = G;
},
{
name = circumflex;
transform = "{1, 0, 0, 1, 99, 210}";
}
);
layerId = "BFFFD157-90D3-4B85-B99D-9A2F366F03CA";
width = 691;
},
{
components = (
{
name = G;
},
{
name = circumflex;
transform = "{1, 0, 0, 1, 171, 232}";
}
);
layerId = "4E6F1D76-CF39-4449-9239-DE310961C1DD";
width = 683;
}
);
leftKerningGroup = O;
rightKerningGroup = G;
unicode = 011C;
},
{
glyphname = H;
lastChange = "2016-11-25 19:43:40 +0000";
layers = (
{
anchors = (
{
name = bottom;
position = "{365, 0}";
},
{
name = stroke;
position = "{365, 557}";
},
{
name = top;
position = "{365, 700}";
},
{
name = topleft;
position = "{10, 700}";
}
);
layerId = "BFFFD157-90D3-4B85-B99D-9A2F366F03CA";
paths = (
{
closed = 1;
nodes = (
"265 700 LINE",
"40 700 LINE",
"40 0 LINE",
"265 0 LINE"
);
},
{
closed = 1;
nodes = (
"690 700 LINE",
"465 700 LINE",
"465 0 LINE",
"690 0 LINE"
);
},
{
closed = 1;
nodes = (
"170 423 LINE",
"162 208 LINE",
"614 208 LINE",
"618 423 LINE"
);
}
);
width = 730;
},
{
anchors = (
{
name = bottom;
position = "{355, 0}";
},
{
name = stroke;
position = "{355, 518}";
},
{
name = top;
position = "{355, 700}";
},
{
name = topleft;
position = "{15, 700}";
}
);
background = {
paths = (
{
closed = 1;
nodes = (
"178 700 LINE",
"85 700 LINE",
"85 0 LINE",
"178 0 LINE"
);
},
{
closed = 1;
nodes = (
"567 15 LINE",
"516 95 OFFCURVE",
"465 177 OFFCURVE",
"419 241 CURVE SMOOTH",
"380 295 OFFCURVE",
"342 333 OFFCURVE",
"298 356 CURVE",
"310 319 LINE",
"349 341 OFFCURVE",
"382 391 OFFCURVE",
"413 447 CURVE SMOOTH",
"452 518 OFFCURVE",
"491 604 OFFCURVE",
"526 687 CURVE",
"522 700 LINE",
"436 700 LINE",
"403 621 OFFCURVE",
"363 535 OFFCURVE",
"315 445 CURVE SMOOTH",
"281 381 OFFCURVE",
"268 366 OFFCURVE",
"227 366 CURVE SMOOTH",
"144 366 LINE",
"144 275 LINE",
"212 275 LINE SMOOTH",
"265 275 OFFCURVE",
"281 268 OFFCURVE",
"324 212 CURVE SMOOTH",
"374 146 OFFCURVE",
"425 66 OFFCURVE",
"466 0 CURVE",
"564 0 LINE"
);
}
);
};
hints = (
{
horizontal = 1;
origin = "{0, 2}";
type = Anchor;
options = 4;
},
{
horizontal = 1;
origin = "{2, 1}";
target = "{2, 0}";
type = TTStem;
options = 4;
},
{
horizontal = 1;
origin = "{0, 1}";
type = Anchor;
options = 4;
},
{
horizontal = 1;
origin = "{0, 2}";
target = "{1, 2}";
type = Align;
options = 4;
},
{
horizontal = 1;
origin = "{0, 1}";
target = "{1, 1}";
type = Align;
options = 4;
}
);
layerId = "3E7589AA-8194-470F-8E2F-13C1C581BE24";
paths = (
{
closed = 1;
nodes = (
"178 700 LINE",
"85 700 LINE",
"85 0 LINE",
"178 0 LINE"
);
},
{
closed = 1;
nodes = (
"625 700 LINE",
"532 700 LINE",
"532 0 LINE",
"625 0 LINE"
);
},
{
closed = 1;
nodes = (
"138 366 LINE",
"138 275 LINE",
"591 275 LINE",
"591 366 LINE"
);
}
);
width = 710;
},
{
anchors = (
{
name = bottom;
position = "{330, 0}";
},
{
name = stroke;
position = "{330, 513}";
},
{
name = top;
position = "{330, 700}";
},
{
name = topleft;
position = "{22, 700}";
}
);
hints = (
{
horizontal = 1;
origin = "{0, 2}";
type = Anchor;
options = 4;
},
{
horizontal = 1;
origin = "{2, 1}";
target = "{2, 0}";
type = TTStem;
options = 4;
},
{
horizontal = 1;
origin = "{0, 1}";
type = Anchor;
options = 4;
},
{
horizontal = 1;
origin = "{0, 2}";
target = "{1, 2}";
type = Align;
options = 4;
},
{
horizontal = 1;
origin = "{0, 1}";
target = "{1, 1}";
type = Align;
options = 4;
}
);
layerId = "4E6F1D76-CF39-4449-9239-DE310961C1DD";
paths = (
{
closed = 1;
nodes = (
"116 700 LINE",
"110 700 LINE",
"110 0 LINE",
"116 0 LINE"
);
},
{
closed = 1;
nodes = (
"549 700 LINE",
"543 700 LINE",
"543 0 LINE",
"549 0 LINE"
);
},
{
closed = 1;
nodes = (
"113 330 LINE",
"113 324 LINE",
"547 324 LINE",
"547 330 LINE"
);
}
);
width = 659;
}
);
leftKerningGroup = H;
rightKerningGroup = H;
unicode = 0048;
},
{
glyphname = Hcircumflex;
lastChange = "2016-11-25 19:43:40 +0000";
layers = (
{
background = {
paths = (
{
closed = 1;
nodes = (
"589 0 LINE",
"589 712 LINE",
"535 712 LINE",
"535 383 LINE",
"164 383 LINE",
"164 712 LINE",
"110 712 LINE",
"110 0 LINE",
"164 0 LINE",
"164 335 LINE",
"535 335 LINE",
"535 0 LINE"
);
},
{
closed = 1;
nodes = (
"500 780 LINE",
"377 927 LINE",
"323 927 LINE",
"200 780 LINE",
"257 780 LINE",
"350 889 LINE",
"443 780 LINE"
);
}
);
};
components = (
{
name = H;
},
{
name = circumflex;
transform = "{1, 0, 0, 1, 132, 220}";
}
);
layerId = "3E7589AA-8194-470F-8E2F-13C1C581BE24";
width = 710;
},
{
background = {
paths = (
{
closed = 1;
nodes = (
"608 0 LINE",
"608 712 LINE",
"433 712 LINE",
"433 438 LINE",
"247 438 LINE",
"247 712 LINE",
"72 712 LINE",
"72 0 LINE",
"247 0 LINE",
"247 282 LINE",
"433 282 LINE",
"433 0 LINE"
);
},
{
closed = 1;
nodes = (
"541 782 LINE",
"405 961 LINE",
"275 961 LINE",
"139 782 LINE",
"261 782 LINE",
"340 865 LINE",
"419 782 LINE"
);
}
);
};
components = (
{
name = H;
},
{
name = circumflex;
transform = "{1, 0, 0, 1, 86, 210}";
}
);
layerId = "BFFFD157-90D3-4B85-B99D-9A2F366F03CA";
width = 730;
},
{
components = (
{
name = H;
},
{
name = circumflex;
transform = "{1, 0, 0, 1, 142, 232}";
}
);
layerId = "4E6F1D76-CF39-4449-9239-DE310961C1DD";
width = 659;
}
);
leftKerningGroup = H;
rightKerningGroup = H;
unicode = 0124;
},
{
glyphname = I;
lastChange = "2016-11-25 19:43:40 +0000";
layers = (
{
anchors = (
{
name = bottom;
position = "{153, 0}";
},
{
name = ogonek;
position = "{265, 0}";
},
{
name = top;
position = "{153, 700}";
},
{
name = topleft;
position = "{5, 700}";
}
);
layerId = "BFFFD157-90D3-4B85-B99D-9A2F366F03CA";
paths = (
{
closed = 1;
nodes = (
"265 700 LINE",
"40 700 LINE",
"40 0 LINE",
"265 0 LINE"
);
}
);
width = 305;
},
{
anchors = (
{
name = bottom;
position = "{132, 0}";
},
{
name = ogonek;
position = "{178, 0}";
},
{
name = top;
position = "{132, 700}";
},
{
name = topleft;
position = "{6, 700}";
}
);
hints = (
{
horizontal = 1;
origin = "{0, 2}";
type = Anchor;
options = 4;
},
{
horizontal = 1;
origin = "{0, 1}";
type = Anchor;
options = 4;
}
);
layerId = "3E7589AA-8194-470F-8E2F-13C1C581BE24";
paths = (
{
closed = 1;
nodes = (
"178 700 LINE",
"85 700 LINE",
"85 0 LINE",
"178 0 LINE"
);
}
);
width = 263;
},
{
anchors = (
{
name = bottom;
position = "{114, 0}";
},
{
name = ogonek;
position = "{116, 0}";
},
{
name = top;
position = "{114, 700}";
},
{
name = topleft;
position = "{10, 700}";
}
);
hints = (
{
horizontal = 1;
origin = "{0, 2}";
type = Anchor;
options = 4;
},
{
horizontal = 1;
origin = "{0, 1}";
type = Anchor;
options = 4;
}
);
layerId = "4E6F1D76-CF39-4449-9239-DE310961C1DD";
paths = (
{
closed = 1;
nodes = (
"116 700 LINE",
"110 700 LINE",
"110 0 LINE",
"116 0 LINE"
);
}
);
width = 226;
}
);
leftKerningGroup = H;
leftMetricsKey = H;
rightKerningGroup = H;
rightMetricsKey = H;
unicode = 0049;
},
{
glyphname = IJ;
lastChange = "2016-11-25 19:43:40 +0000";
layers = (
{
background = {
paths = (
{
closed = 1;
nodes = (
"164 0 LINE",
"164 712 LINE",
"110 712 LINE",
"110 0 LINE"
);
},
{
closed = 1;
nodes = (
"672 712 LINE",
"618 712 LINE",
"618 221 LINE SMOOTH",
"618 106 OFFCURVE",
"563 42 OFFCURVE",
"460 42 CURVE SMOOTH",
"397 42 OFFCURVE",
"368 65 OFFCURVE",
"341 92 CURVE",
"304 55 LINE",
"345 14 OFFCURVE",
"397 -6 OFFCURVE",
"460 -6 CURVE SMOOTH",
"589 -6 OFFCURVE",
"672 80 OFFCURVE",
"672 210 CURVE SMOOTH"
);
}
);
};
components = (
{
name = I;
},
{
name = J;
transform = "{1, 0, 0, 1, 263, 0}";
}
);
layerId = "3E7589AA-8194-470F-8E2F-13C1C581BE24";
width = 570;
},
{
background = {
paths = (
{
closed = 1;
nodes = (
"247 0 LINE",
"247 712 LINE",
"72 712 LINE",
"72 0 LINE"
);
},
{
closed = 1;
nodes = (
"773 712 LINE",
"598 712 LINE",
"598 248 LINE SMOOTH",
"598 180 OFFCURVE",
"559 150 OFFCURVE",
"505 150 CURVE SMOOTH",
"466 150 OFFCURVE",
"448 164 OFFCURVE",
"426 186 CURVE",
"311 72 LINE",
"369 14 OFFCURVE",
"422 -6 OFFCURVE",
"505 -6 CURVE SMOOTH",
"639 -6 OFFCURVE",
"773 75 OFFCURVE",
"773 244 CURVE"
);
}
);
};
components = (
{
name = I;
},
{
name = J;
transform = "{1, 0, 0, 1, 305, 0}";
}
);
layerId = "BFFFD157-90D3-4B85-B99D-9A2F366F03CA";
width = 654;
},
{
components = (
{
name = I;
},
{
name = J;
transform = "{1, 0, 0, 1, 226, 0}";
}
);
layerId = "4E6F1D76-CF39-4449-9239-DE310961C1DD";
width = 508;
}
);
leftKerningGroup = H;
rightKerningGroup = J;
unicode = 0132;
},
{
glyphname = Ibreve;
lastChange = "2016-11-25 19:43:40 +0000";
layers = (
{
background = {
paths = (
{
closed = 1;
nodes = (
"164 0 LINE",
"164 712 LINE",
"110 712 LINE",
"110 0 LINE"
);
},
{
closed = 1;
nodes = (
"257 927 LINE",
"249 871 OFFCURVE",
"206 837 OFFCURVE",
"137 837 CURVE SMOOTH",
"68 837 OFFCURVE",
"25 871 OFFCURVE",
"17 927 CURVE",
"-28 927 LINE",
"-19 842 OFFCURVE",
"29 792 OFFCURVE",
"137 792 CURVE SMOOTH",
"245 792 OFFCURVE",
"293 842 OFFCURVE",
"302 927 CURVE"
);
}
);
};
components = (
{
name = I;
},
{
name = breve;
transform = "{1, 0, 0, 1, -65, 220}";
}
);
layerId = "3E7589AA-8194-470F-8E2F-13C1C581BE24";
width = 263;
},
{
background = {
paths = (
{
closed = 1;
nodes = (
"247 0 LINE",
"247 712 LINE",
"72 712 LINE",
"72 0 LINE"
);
},
{
closed = 1;
nodes = (
"219 931 LINE",
"216 894 OFFCURVE",
"186 884 OFFCURVE",
"161 884 CURVE SMOOTH",
"136 884 OFFCURVE",
"106 894 OFFCURVE",
"103 931 CURVE",
"-3 931 LINE",
"0 813 OFFCURVE",
"84 774 OFFCURVE",
"161 774 CURVE SMOOTH",
"238 774 OFFCURVE",
"322 813 OFFCURVE",
"325 931 CURVE"
);
}
);
};
components = (
{
name = I;
},
{
name = breve;
transform = "{1, 0, 0, 1, -101, 210}";
}
);
layerId = "BFFFD157-90D3-4B85-B99D-9A2F366F03CA";
width = 305;
},
{
components = (
{
name = I;
},
{
name = breve;
transform = "{1, 0, 0, 1, -59, 232}";
}
);
layerId = "4E6F1D76-CF39-4449-9239-DE310961C1DD";
width = 226;
}
);
leftKerningGroup = H;
rightKerningGroup = H;
unicode = 012C;
},
{
glyphname = J;
lastChange = "2016-11-25 19:43:40 +0000";
layers = (
{
anchors = (
{
name = bottom;
position = "{26, -212}";
},
{
name = top;
position = "{195, 700}";
}
);
layerId = "BFFFD157-90D3-4B85-B99D-9A2F366F03CA";
paths = (
{
closed = 1;
nodes = (
"305 700 LINE",
"80 700 LINE",
"80 97 LINE SMOOTH",
"80 25 OFFCURVE",
"57 -7 OFFCURVE",
"-36 -25 CURVE",
"26 -212 LINE",
"233 -177 OFFCURVE",
"305 -65 OFFCURVE",
"305 100 CURVE SMOOTH"
);
}
);
width = 349;
},
{
anchors = (
{
name = bottom;
position = "{18, -209}";
},
{
name = top;
position = "{169, 700}";
}
);
hints = (
{
horizontal = 1;
origin = "{0, 6}";
type = Anchor;
options = 4;
},
{
horizontal = 1;
origin = "{0, 1}";
type = Anchor;
options = 4;
}
);
layerId = "3E7589AA-8194-470F-8E2F-13C1C581BE24";
paths = (
{
closed = 1;
nodes = (
"213 700 LINE",
"120 700 LINE",
"120 70 LINE SMOOTH",
"120 -52 OFFCURVE",
"78 -83 OFFCURVE",
"-19 -124 CURVE",
"18 -209 LINE",
"143 -155 OFFCURVE",
"213 -90 OFFCURVE",
"213 70 CURVE SMOOTH"
);
}
);
width = 307;
},
{
anchors = (
{
name = bottom;
position = "{17, -208}";
},
{
name = top;
position = "{160, 700}";
}
);
hints = (
{
horizontal = 1;
origin = "{0, 6}";
type = Anchor;
options = 4;
},
{
horizontal = 1;
origin = "{0, 1}";
type = Anchor;
options = 4;
}
);
layerId = "4E6F1D76-CF39-4449-9239-DE310961C1DD";
paths = (
{
closed = 1;
nodes = (
"161 700 LINE",
"155 700 LINE",
"155 40 LINE SMOOTH",
"155 -106 OFFCURVE",
"84 -173 OFFCURVE",
"14 -203 CURVE",
"17 -208 LINE",
"89 -178 OFFCURVE",
"161 -109 OFFCURVE",
"161 43 CURVE SMOOTH"
);
}
);
width = 282;
}
);
leftKerningGroup = J;
rightKerningGroup = J;
rightMetricsKey = "=H*1.1";
unicode = 004A;
},
{
glyphname = Jcircumflex;
lastChange = "2016-11-25 19:43:40 +0000";
layers = (
{
background = {
paths = (
{
closed = 1;
nodes = (
"398 712 LINE",
"344 712 LINE",
"344 221 LINE SMOOTH",
"344 106 OFFCURVE",
"289 42 OFFCURVE",
"186 42 CURVE SMOOTH",
"123 42 OFFCURVE",
"94 65 OFFCURVE",
"67 92 CURVE",
"30 55 LINE",
"71 14 OFFCURVE",
"123 -6 OFFCURVE",
"186 -6 CURVE SMOOTH",
"315 -6 OFFCURVE",
"398 80 OFFCURVE",
"398 210 CURVE SMOOTH"
);
},
{
closed = 1;
nodes = (
"521 780 LINE",
"398 927 LINE",
"344 927 LINE",
"221 780 LINE",
"278 780 LINE",
"371 889 LINE",
"464 780 LINE"
);
}
);
};
components = (
{
name = J;
},
{
name = circumflex;
transform = "{1, 0, 0, 1, -54, 220}";
}
);
layerId = "3E7589AA-8194-470F-8E2F-13C1C581BE24";
width = 307;
},
{
background = {
paths = (
{
closed = 1;
nodes = (
"454 712 LINE",
"279 712 LINE",
"279 248 LINE SMOOTH",
"279 180 OFFCURVE",
"240 150 OFFCURVE",
"186 150 CURVE SMOOTH",
"147 150 OFFCURVE",
"129 164 OFFCURVE",
"107 186 CURVE",
"-8 72 LINE",
"50 14 OFFCURVE",
"103 -6 OFFCURVE",
"186 -6 CURVE SMOOTH",
"320 -6 OFFCURVE",
"454 75 OFFCURVE",
"454 244 CURVE"
);
},
{
closed = 1;
nodes = (
"567 782 LINE",
"431 961 LINE",
"301 961 LINE",
"165 782 LINE",
"287 782 LINE",
"366 865 LINE",
"445 782 LINE"
);
}
);
};
components = (
{
name = J;
},
{
name = circumflex;
transform = "{1, 0, 0, 1, -84, 210}";
}
);
layerId = "BFFFD157-90D3-4B85-B99D-9A2F366F03CA";
width = 349;
},
{
components = (
{
name = J;
},
{
name = circumflex;
transform = "{1, 0, 0, 1, -28, 232}";
}
);
layerId = "4E6F1D76-CF39-4449-9239-DE310961C1DD";
width = 282;
}
);
leftKerningGroup = J;
rightKerningGroup = J;
unicode = 0134;
},
{
glyphname = K;
lastChange = "2016-11-25 19:43:40 +0000";
layers = (
{
anchors = (
{
name = bottom;
position = "{326, 0}";
},
{
name = top;
position = "{336, 700}";
}
);
background = {
paths = (
{
closed = 1;
nodes = (
"265 700 LINE",
"40 700 LINE",
"40 0 LINE",
"265 0 LINE"
);
},
{
closed = 1;
nodes = (
"691 14 LINE",
"652 88 OFFCURVE",
"616 153 OFFCURVE",
"572 227 CURVE SMOOTH",
"534 292 OFFCURVE",
"491 358 OFFCURVE",
"397 394 CURVE",
"391 252 LINE",
"482 316 OFFCURVE",
"522 377 OFFCURVE",
"557 450 CURVE SMOOTH",
"595 529 OFFCURVE",
"627 606 OFFCURVE",
"656 684 CURVE",
"651 700 LINE",
"419 700 LINE",
"400 634 OFFCURVE",
"372 553 OFFCURVE",
"342 477 CURVE SMOOTH",
"320 422 OFFCURVE",
"314 413 OFFCURVE",
"280 413 CURVE SMOOTH",
"176 413 LINE",
"176 188 LINE",
"280 188 LINE SMOOTH",
"311 188 OFFCURVE",
"323 182 OFFCURVE",
"343 149 CURVE SMOOTH",
"376 94 OFFCURVE",
"401 48 OFFCURVE",
"424 0 CURVE",
"688 0 LINE"
);
}
);
};
layerId = "BFFFD157-90D3-4B85-B99D-9A2F366F03CA";
paths = (
{
closed = 1;
nodes = (
"265 700 LINE",
"40 700 LINE",
"40 0 LINE",
"265 0 LINE"
);
},
{
closed = 1;
nodes = (
"716 0 LINE",
"506 333 LINE",
"691 700 LINE",
"434 700 LINE",
"281 368 LINE",
"225 368 LINE",
"244 16 LINE",
"324 155 LINE",
"340 155 LINE",
"436 0 LINE"
);
}
);
width = 701;
},
{
anchors = (
{
name = bottom;
position = "{299, 0}";
},
{
name = top;
position = "{299, 700}";
}
);
background = {
paths = (
{
closed = 1;
nodes = (
"205 652 LINE",
"112 696 LINE",
"112 0 LINE",
"205 0 LINE"
);
},
{
closed = 1;
nodes = (
"457 220 OFFCURVE",
"555 309 OFFCURVE",
"555 466 CURVE SMOOTH",
"555 608 OFFCURVE",
"476 704 OFFCURVE",
"261 704 CURVE SMOOTH",
"228 704 OFFCURVE",
"175 702 OFFCURVE",
"112 696 CURVE",
"171 606 LINE",
"215 611 OFFCURVE",
"251 612 OFFCURVE",
"270 612 CURVE SMOOTH",
"410 612 OFFCURVE",
"464 550 OFFCURVE",
"464 457 CURVE SMOOTH",
"464 363 OFFCURVE",
"407 311 OFFCURVE",
"292 311 CURVE SMOOTH",
"166 311 LINE",
"164 220 LINE",
"251 220 LINE SMOOTH"
);
},
{
closed = 1;
nodes = (
"581 0 LINE",
"380 300 LINE",
"303 248 LINE",
"468 0 LINE"
);
}
);
};
hints = (
{
horizontal = 1;
place = "{275, 91}";
type = TTStem;
options = 4;
},
{
horizontal = 1;
place = "{0, 0}";
type = Anchor;
options = 4;
},
{
horizontal = 1;
place = "{0, 0}";
type = Anchor;
options = 4;
},
{
horizontal = 1;
place = "{700, 0}";
type = Anchor;
options = 4;
},
{
horizontal = 1;
place = "{700, 0}";
type = Anchor;
options = 4;
}
);
layerId = "3E7589AA-8194-470F-8E2F-13C1C581BE24";
paths = (
{
closed = 1;
nodes = (
"178 700 LINE",
"85 700 LINE",
"85 0 LINE",
"178 0 LINE"
);
},
{
closed = 1;
nodes = (
"589 0 LINE",
"328 358 LINE",
"564 700 LINE",
"456 700 LINE",
"191 308 LINE",
"146 308 LINE",
"152 123 LINE",
"263 269 LINE",
"277 269 LINE",
"467 0 LINE"
);
}
);
width = 619;
},
{
anchors = (
{
name = bottom;
position = "{283, 0}";
},
{
name = top;
position = "{276, 700}";
}
);
hints = (
{
horizontal = 1;
place = "{344.863, -14.959}";
type = TTStem;
options = 4;
},
{
horizontal = 1;
place = "{0, 0}";
type = Anchor;
options = 4;
},
{
horizontal = 1;
place = "{196.781, 0}";
type = Anchor;
options = 4;
},
{
horizontal = 1;
place = "{700, 0}";
type = Anchor;
options = 4;
},
{
horizontal = 1;
place = "{695.342, 0}";
type = Anchor;
options = 4;
}
);
layerId = "4E6F1D76-CF39-4449-9239-DE310961C1DD";
paths = (
{
closed = 1;
nodes = (
"116 700 LINE",
"110 700 LINE",
"110 0 LINE",
"116 0 LINE"
);
},
{
closed = 1;
nodes = (
"552 0 LINE",
"257 343 LINE",
"512 700 LINE",
"505 700 LINE",
"120 162 LINE",
"112 162 LINE",
"114 143 LINE",
"252 336 LINE",
"255 336 LINE",
"543 0 LINE"
);
}
);
width = 566;
}
);
leftKerningGroup = H;
leftMetricsKey = H;
rightKerningGroup = K;
unicode = 004B;
},
{
glyphname = L;
lastChange = "2016-11-25 19:43:40 +0000";
layers = (
{
anchors = (
{
name = bottom;
position = "{255, 0}";
},
{
name = center;
position = "{255, 350}";
},
{
name = top;
position = "{155, 700}";
},
{
name = topright;
position = "{285, 490}";
}
);
layerId = "BFFFD157-90D3-4B85-B99D-9A2F366F03CA";
paths = (
{
closed = 1;
nodes = (
"265 700 LINE",
"40 700 LINE",
"40 0 LINE",
"265 0 LINE"
);
},
{
closed = 1;
nodes = (
"170 215 LINE",
"162 0 LINE",
"495 0 LINE",
"495 215 LINE"
);
}
);
width = 520;
},
{
anchors = (
{
name = bottom;
position = "{256, 0}";
},
{
name = center;
position = "{256, 350}";
},
{
name = top;
position = "{135, 700}";
},
{
name = topright;
position = "{198, 480}";
}
);
hints = (
{
horizontal = 1;
origin = "{0, 1}";
type = Anchor;
options = 4;
},
{
horizontal = 1;
origin = "{0, 2}";
target = "{1, 3}";
type = TTStem;
options = 4;
}
);
layerId = "3E7589AA-8194-470F-8E2F-13C1C581BE24";
paths = (
{
closed = 1;
nodes = (
"178 700 LINE",
"85 700 LINE",
"85 0 LINE",
"178 0 LINE"
);
},
{
closed = 1;
nodes = (
"139 91 LINE",
"137 0 LINE",
"481 0 LINE",
"481 91 LINE"
);
}
);
width = 517;
},
{
anchors = (
{
name = bottom;
position = "{252, 0}";
},
{
name = center;
position = "{252, 350}";
},
{
name = top;
position = "{114, 700}";
},
{
name = topright;
position = "{137, 468}";
}
);
hints = (
{
horizontal = 1;
origin = "{0, 1}";
type = Anchor;
options = 4;
},
{
horizontal = 1;
origin = "{0, 2}";
target = "{1, 3}";
type = TTStem;
options = 4;
}
);
layerId = "4E6F1D76-CF39-4449-9239-DE310961C1DD";
paths = (
{
closed = 1;
nodes = (
"116 700 LINE",
"110 700 LINE",
"110 0 LINE",
"116 0 LINE"
);
},
{
closed = 1;
nodes = (
"113 6 LINE",
"113 0 LINE",
"460 0 LINE",
"460 6 LINE"
);
}
);
width = 503;
}
);
leftKerningGroup = H;
leftMetricsKey = H;
rightKerningGroup = L;
unicode = 004C;
},
{
glyphname = Lslash;
lastChange = "2016-11-25 19:43:40 +0000";
layers = (
{
components = (
{
name = L;
transform = "{1, 0, 0, 1, 20, 0}";
}
);
layerId = "3E7589AA-8194-470F-8E2F-13C1C581BE24";
paths = (
{
closed = 1;
nodes = (
"372 424 LINE",
"29 357 LINE",
"29 277 LINE",
"372 342 LINE"
);
}
);
width = 542;
},
{
components = (
{
name = L;
transform = "{1, 0, 0, 1, 20, 0}";
}
);
layerId = "BFFFD157-90D3-4B85-B99D-9A2F366F03CA";
paths = (
{
closed = 1;
nodes = (
"448 472 LINE",
"13 414 LINE",
"13 249 LINE",
"448 304 LINE"
);
}
);
width = 550;
},
{
components = (
{
name = L;
transform = "{1, 0, 0, 1, 43, 0}";
}
);
layerId = "4E6F1D76-CF39-4449-9239-DE310961C1DD";
paths = (
{
closed = 1;
nodes = (
"344 345 LINE",
"63 280 LINE",
"63 272 LINE",
"344 337 LINE"
);
}
);
width = 544;
}
);
rightKerningGroup = L;
unicode = 0141;
},
{
glyphname = M;
lastChange = "2016-11-25 19:43:40 +0000";
layers = (
{
anchors = (
{
name = bottom;
position = "{499, 0}";
},
{
name = top;
position = "{499, 700}";
}
);
layerId = "BFFFD157-90D3-4B85-B99D-9A2F366F03CA";
paths = (
{
closed = 1;
nodes = (
"892 700 LINE",
"592 700 LINE",
"511 343 LINE",
"490 343 LINE",
"403 700 LINE",
"99 700 LINE",
"32 0 LINE",
"255 0 LINE",
"277 364 LINE",
"300 364 LINE",
"379 10 LINE",
"597 10 LINE",
"671 364 LINE",
"694 364 LINE",
"720 0 LINE",
"966 0 LINE"
);
}
);
width = 998;
},
{
anchors = (
{
name = bottom;
position = "{455, 0}";
},
{
name = top;
position = "{455, 700}";
}
);
hints = (
{
horizontal = 1;
origin = "{0, 6}";
type = Anchor;
options = 4;
},
{
horizontal = 1;
origin = "{0, 5}";
target = "{0, 8}";
type = TTStem;
options = 4;
},
{
horizontal = 1;
origin = "{0, 10}";
target = "{0, 3}";
type = TTStem;
options = 4;
},
{
horizontal = 1;
origin = "{0, 14}";
type = Anchor;
options = 4;
},
{
horizontal = 1;
origin = "{0, 5}";
target = "{0, 1}";
type = Align;
options = 4;
},
{
horizontal = 1;
origin = "{0, 8}";
target = "{0, 12}";
type = Align;
options = 4;
}
);
layerId = "3E7589AA-8194-470F-8E2F-13C1C581BE24";
paths = (
{
closed = 1;
nodes = (
"772 700 LINE",
"633 700 LINE",
"460 126 LINE",
"454 126 LINE",
"276 700 LINE",
"136 700 LINE",
"68 0 LINE",
"157 0 LINE",
"211 588 LINE",
"222 588 LINE",
"401 10 LINE",
"505 10 LINE",
"680 588 LINE",
"691 588 LINE",
"753 0 LINE",
"842 0 LINE"
);
}
);
width = 910;
},
{
anchors = (
{
name = bottom;
position = "{432, 0}";
},
{
name = top;
position = "{434, 700}";
}
);
hints = (
{
horizontal = 1;
origin = "{0, 6}";
type = Anchor;
options = 4;
},
{
horizontal = 1;
origin = "{0, 5}";
target = "{0, 8}";
type = TTStem;
options = 4;
},
{
horizontal = 1;
origin = "{0, 10}";
target = "{0, 3}";
type = TTStem;
options = 4;
},
{
horizontal = 1;
origin = "{0, 14}";
type = Anchor;
options = 4;
},
{
horizontal = 1;
origin = "{0, 5}";
target = "{0, 1}";
type = Align;
options = 4;
},
{
horizontal = 1;
origin = "{0, 8}";
target = "{0, 12}";
type = Align;
options = 4;
}
);
layerId = "4E6F1D76-CF39-4449-9239-DE310961C1DD";
paths = (
{
closed = 1;
nodes = (
"687 700 LINE",
"676 700 LINE",
"433 12 LINE",
"431 12 LINE",
"190 700 LINE",
"179 700 LINE",
"88 0 LINE",
"94 0 LINE",
"184 693 LINE",
"186 693 LINE",
"428 3 LINE",
"436 3 LINE",
"680 693 LINE",
"682 693 LINE",
"774 0 LINE",
"780 0 LINE"
);
}
);
width = 868;
}
);
leftKerningGroup = M;
leftMetricsKey = "=H*.8";
rightKerningGroup = M;
rightMetricsKey = "=H*.8";
unicode = 004D;
},
{
glyphname = N;
lastChange = "2016-11-25 19:43:40 +0000";
layers = (
{
anchors = (
{
name = bottom;
position = "{360, 0}";
},
{
name = top;
position = "{360, 700}";
},
{
name = topright;
position = "{710, 700}";
}
);
background = {
paths = (
{
closed = 1;
nodes = (
"465 393 LINE",
"225 700 LINE",
"40 700 LINE",
"40 0 LINE",
"255 0 LINE",
"255 298 LINE",
"495 0 LINE",
"680 0 LINE",
"680 700 LINE",
"465 700 LINE"
);
}
);
};
layerId = "BFFFD157-90D3-4B85-B99D-9A2F366F03CA";
paths = (
{
closed = 1;
nodes = (
"475 383 LINE",
"225 700 LINE",
"40 700 LINE",
"40 0 LINE",
"245 0 LINE",
"245 308 LINE",
"495 0 LINE",
"680 0 LINE",
"680 700 LINE",
"475 700 LINE"
);
}
);
width = 720;
},
{
anchors = (
{
name = bottom;
position = "{355, 0}";
},
{
name = top;
position = "{355, 700}";
},
{
name = topright;
position = "{695, 700}";
}
);
hints = (
{
horizontal = 1;
origin = "{0, 3}";
type = Anchor;
options = 4;
},
{
horizontal = 1;
origin = "{0, 2}";
type = Anchor;
options = 4;
},
{
horizontal = 1;
origin = "{0, 2}";
target = "{0, 9}";
type = Align;
options = 4;
},
{
horizontal = 1;
origin = "{0, 3}";
target = "{0, 6}";
type = Align;
options = 4;
}
);
layerId = "3E7589AA-8194-470F-8E2F-13C1C581BE24";
paths = (
{
closed = 1;
nodes = (
"535 177 LINE",
"165 700 LINE",
"85 700 LINE",
"85 0 LINE",
"175 0 LINE",
"175 525 LINE",
"545 0 LINE",
"625 0 LINE",
"625 700 LINE",
"535 700 LINE"
);
}
);
width = 710;
},
{
anchors = (
{
name = bottom;
position = "{340, 0}";
},
{
name = top;
position = "{340, 700}";
},
{
name = topright;
position = "{660, 700}";
}
);
hints = (
{
horizontal = 1;
origin = "{0, 3}";
type = Anchor;
options = 4;
},
{
horizontal = 1;
origin = "{0, 2}";
type = Anchor;
options = 4;
},
{
horizontal = 1;
origin = "{0, 2}";
target = "{0, 9}";
type = Align;
options = 4;
},
{
horizontal = 1;
origin = "{0, 3}";
target = "{0, 6}";
type = Align;
options = 4;
}
);
layerId = "4E6F1D76-CF39-4449-9239-DE310961C1DD";
paths = (
{
closed = 1;
nodes = (
"564 16 LINE",
"114 700 LINE",
"110 700 LINE",
"110 0 LINE",
"116 0 LINE",
"116 685 LINE",
"566 0 LINE",
"570 0 LINE",
"570 700 LINE",
"564 700 LINE"
);
}
);
width = 680;
}
);
leftKerningGroup = H;
leftMetricsKey = H;
rightKerningGroup = H;
rightMetricsKey = H;
unicode = 004E;
},
{
glyphname = Eng;
lastChange = "2016-11-25 19:43:40 +0000";
layers = (
{
anchors = (
{
name = bottom;
position = "{360, 0}";
},
{
name = top;
position = "{360, 700}";
},
{
name = topright;
position = "{700, 700}";
}
);
layerId = "3E7589AA-8194-470F-8E2F-13C1C581BE24";
paths = (
{
closed = 1;
nodes = (
"540 177 LINE",
"170 700 LINE",
"90 700 LINE",
"90 0 LINE",
"180 0 LINE",
"180 525 LINE",
"550 0 LINE",
"630 93 LINE",
"630 700 LINE",
"540 700 LINE"
);
},
{
closed = 1;
nodes = (
"630 113 LINE",
"537 113 LINE",
"537 70 LINE SMOOTH",
"537 -52 OFFCURVE",
"495 -83 OFFCURVE",
"397 -119 CURVE",
"435 -209 LINE",
"560 -155 OFFCURVE",
"630 -90 OFFCURVE",
"630 70 CURVE SMOOTH"
);
}
);
width = 720;
},
{
anchors = (
{
name = bottom;
position = "{360, 0}";
},
{
name = top;
position = "{360, 700}";
},
{
name = topright;
position = "{710, 700}";
}
);
layerId = "BFFFD157-90D3-4B85-B99D-9A2F366F03CA";
paths = (
{
closed = 1;
nodes = (
"465 393 LINE",
"225 700 LINE",
"40 700 LINE",
"40 0 LINE",
"255 0 LINE",
"255 298 LINE",
"495 0 LINE",
"680 148 LINE",
"680 700 LINE",
"465 700 LINE"
);
},
{
closed = 1;
nodes = (
"680 222 LINE",
"455 229 LINE",
"455 97 LINE SMOOTH",
"455 25 OFFCURVE",
"432 -7 OFFCURVE",
"339 -25 CURVE",
"401 -212 LINE",
"608 -177 OFFCURVE",
"680 -65 OFFCURVE",
"680 100 CURVE SMOOTH"
);
}
);
width = 720;
},
{
background = {
anchors = (
{
name = bottom;
position = "{340, 0}";
},
{
name = top;
position = "{340, 700}";
},
{
name = topright;
position = "{660, 700}";
}
);
paths = (
{
closed = 1;
nodes = (
"564 16 LINE",
"114 700 LINE",
"110 700 LINE",
"110 0 LINE",
"116 0 LINE",
"116 685 LINE",
"566 0 LINE",
"570 0 LINE",
"570 700 LINE",
"564 700 LINE"
);
}
);
};
layerId = "4E6F1D76-CF39-4449-9239-DE310961C1DD";
paths = (
{
closed = 1;
nodes = (
"565 14 LINE",
"114 700 LINE",
"110 700 LINE",
"110 0 LINE",
"116 0 LINE",
"116 685 LINE",
"566 0 LINE",
"571 56 LINE",
"570 700 LINE",
"564 700 LINE"
);
},
{
closed = 1;
nodes = (
"571 78 LINE",
"565 78 LINE",
"565 40 LINE SMOOTH",
"565 -106 OFFCURVE",
"494 -173 OFFCURVE",
"424 -203 CURVE",
"427 -208 LINE",
"499 -178 OFFCURVE",
"571 -109 OFFCURVE",
"571 43 CURVE SMOOTH"
);
}
);
width = 681;
}
);
leftKerningGroup = H;
leftMetricsKey = N;
rightKerningGroup = J;
rightMetricsKey = N;
unicode = 014A;
},
{
glyphname = O;
lastChange = "2016-11-25 19:43:40 +0000";
layers = (
{
anchors = (
{
name = bottom;
position = "{376, 0}";
},
{
name = center;
position = "{376, 350}";
},
{
name = horn;
position = "{610, 630}";
},
{
name = ogonek;
position = "{499, 10}";
},
{
name = top;
position = "{376, 700}";
},
{
name = topleft;
position = "{15, 700}";
},
{
name = topright;
position = "{737, 700}";
}
);
background = {
paths = (
{
closed = 1;
nodes = (
"457 212 OFFCURVE",
"431 170 OFFCURVE",
"369 170 CURVE SMOOTH",
"310 170 OFFCURVE",
"283 212 OFFCURVE",
"283 320 CURVE SMOOTH",
"283 376 OFFCURVE",
"288 446 OFFCURVE",
"297 482 CURVE",
"316 489 OFFCURVE",
"345 494 OFFCURVE",
"373 494 CURVE SMOOTH",
"403 494 OFFCURVE",
"429 488 OFFCURVE",
"448 481 CURVE",
"453 451 OFFCURVE",
"457 386 OFFCURVE",
"457 328 CURVE SMOOTH"
);
},
{
closed = 1;
nodes = (
"684 379 CURVE SMOOTH",
"684 479 OFFCURVE",
"668 592 OFFCURVE",
"640 667 CURVE",
"566 697 OFFCURVE",
"499 710 OFFCURVE",
"394 710 CURVE SMOOTH",
"178 710 OFFCURVE",
"57 601 OFFCURVE",
"57 322 CURVE SMOOTH",
"57 92 OFFCURVE",
"173 -10 OFFCURVE",
"363 -10 CURVE SMOOTH",
"592 -10 OFFCURVE",
"684 97 OFFCURVE"
);
}
);
};
layerId = "BFFFD157-90D3-4B85-B99D-9A2F366F03CA";
paths = (
{
closed = 1;
nodes = (
"585 -15 OFFCURVE",
"723 114 OFFCURVE",
"723 354 CURVE SMOOTH",
"723 584 OFFCURVE",
"594 715 OFFCURVE",
"383 715 CURVE SMOOTH",
"167 715 OFFCURVE",
"30 585 OFFCURVE",
"30 342 CURVE SMOOTH",
"30 111 OFFCURVE",
"161 -15 OFFCURVE",
"371 -15 CURVE SMOOTH"
);
},
{
closed = 1;
nodes = (
"307 203 OFFCURVE",
"263 253 OFFCURVE",
"263 348 CURVE SMOOTH",
"263 444 OFFCURVE",
"308 488 OFFCURVE",
"376 488 CURVE SMOOTH",
"446 488 OFFCURVE",
"491 444 OFFCURVE",
"491 345 CURVE SMOOTH",
"491 250 OFFCURVE",
"448 203 OFFCURVE",
"379 203 CURVE SMOOTH"
);
}
);
width = 753;
},
{
anchors = (
{
name = bottom;
position = "{373, 0}";
},
{
name = center;
position = "{373, 350}";
},
{
name = horn;
position = "{589, 630}";
},
{
name = ogonek;
position = "{459, 0}";
},
{
name = top;
position = "{373, 700}";
},
{
name = topleft;
position = "{15, 700}";
},
{
name = topright;
position = "{731, 700}";
}
);
hints = (
{
horizontal = 1;
origin = "{0, 11}";
target = "{1, 11}";
type = TTStem;
options = 4;
},
{
horizontal = 1;
origin = "{0, 5}";
target = "{1, 5}";
type = TTStem;
options = 4;
}
);
layerId = "3E7589AA-8194-470F-8E2F-13C1C581BE24";
paths = (
{
closed = 1;
nodes = (
"564 -12 OFFCURVE",
"691 113 OFFCURVE",
"691 350 CURVE SMOOTH",
"691 580 OFFCURVE",
"573 712 OFFCURVE",
"377 712 CURVE SMOOTH",
"181 712 OFFCURVE",
"55 585 OFFCURVE",
"55 342 CURVE SMOOTH",
"55 114 OFFCURVE",
"175 -12 OFFCURVE",
"368 -12 CURVE SMOOTH"
);
},
{
closed = 1;
nodes = (
"224 78 OFFCURVE",
"148 172 OFFCURVE",
"148 349 CURVE SMOOTH",
"148 532 OFFCURVE",
"229 621 OFFCURVE",
"372 621 CURVE SMOOTH",
"518 621 OFFCURVE",
"598 529 OFFCURVE",
"598 343 CURVE SMOOTH",
"598 167 OFFCURVE",
"519 78 OFFCURVE",
"374 78 CURVE SMOOTH"
);
}
);
width = 746;
},
{
anchors = (
{
name = bottom;
position = "{374, 0}";
},
{
name = center;
position = "{374, 350}";
},
{
name = horn;
position = "{573, 630}";
},
{
name = ogonek;
position = "{450, 0}";
},
{
name = top;
position = "{374, 700}";
},
{
name = topleft;
position = "{15, 700}";
},
{
name = topright;
position = "{733, 700}";
}
);
hints = (
{
horizontal = 1;
origin = "{0, 11}";
target = "{1, 11}";
type = TTStem;
options = 4;
},
{
horizontal = 1;
origin = "{0, 5}";
target = "{1, 5}";
type = TTStem;
options = 4;
}
);
layerId = "4E6F1D76-CF39-4449-9239-DE310961C1DD";
paths = (
{
closed = 1;
nodes = (
"544 -10 OFFCURVE",
"664 104 OFFCURVE",
"664 348 CURVE SMOOTH",
"664 590 OFFCURVE",
"546 710 OFFCURVE",
"376 710 CURVE SMOOTH",
"204 710 OFFCURVE",
"84 588 OFFCURVE",
"84 349 CURVE SMOOTH",
"84 107 OFFCURVE",
"203 -10 OFFCURVE",
"375 -10 CURVE SMOOTH"
);
},
{
closed = 1;
nodes = (
"207 -4 OFFCURVE",
"90 111 OFFCURVE",
"90 348 CURVE SMOOTH",
"90 587 OFFCURVE",
"208 704 OFFCURVE",
"377 704 CURVE SMOOTH",
"545 704 OFFCURVE",
"658 587 OFFCURVE",
"658 349 CURVE SMOOTH",
"658 104 OFFCURVE",
"539 -4 OFFCURVE",
"374 -4 CURVE SMOOTH"
);
}
);
width = 748;
}
);
leftKerningGroup = O;
rightKerningGroup = O;
unicode = 004F;
},
{
glyphname = Obreve;
lastChange = "2016-11-25 19:43:40 +0000";
layers = (
{
background = {
paths = (
{
closed = 1;
nodes = (
"570 529 OFFCURVE",
"565 584 OFFCURVE",
"499 650 CURVE SMOOTH",
"457 692 OFFCURVE",
"397 718 OFFCURVE",
"326 718 CURVE SMOOTH",
"255 718 OFFCURVE",
"195 692 OFFCURVE",
"153 650 CURVE SMOOTH",
"87 584 OFFCURVE",
"82 529 OFFCURVE",
"82 356 CURVE SMOOTH",
"82 183 OFFCURVE",
"87 128 OFFCURVE",
"153 62 CURVE SMOOTH",
"195 20 OFFCURVE",
"255 -6 OFFCURVE",
"326 -6 CURVE SMOOTH",
"397 -6 OFFCURVE",
"457 20 OFFCURVE",
"499 62 CURVE SMOOTH",
"565 128 OFFCURVE",
"570 183 OFFCURVE",
"570 356 CURVE SMOOTH"
);
},
{
closed = 1;
nodes = (
"516 206 OFFCURVE",
"512 148 OFFCURVE",
"461 97 CURVE SMOOTH",
"424 60 OFFCURVE",
"378 42 OFFCURVE",
"326 42 CURVE SMOOTH",
"274 42 OFFCURVE",
"228 60 OFFCURVE",
"191 97 CURVE SMOOTH",
"140 148 OFFCURVE",
"136 206 OFFCURVE",
"136 356 CURVE SMOOTH",
"136 506 OFFCURVE",
"140 564 OFFCURVE",
"191 615 CURVE SMOOTH",
"228 652 OFFCURVE",
"274 670 OFFCURVE",
"326 670 CURVE SMOOTH",
"378 670 OFFCURVE",
"424 652 OFFCURVE",
"461 615 CURVE SMOOTH",
"512 564 OFFCURVE",
"516 506 OFFCURVE",
"516 356 CURVE SMOOTH"
);
},
{
closed = 1;
nodes = (
"446 927 LINE",
"438 871 OFFCURVE",
"395 837 OFFCURVE",
"326 837 CURVE SMOOTH",
"257 837 OFFCURVE",
"214 871 OFFCURVE",
"206 927 CURVE",
"161 927 LINE",
"170 842 OFFCURVE",
"218 792 OFFCURVE",
"326 792 CURVE SMOOTH",
"434 792 OFFCURVE",
"482 842 OFFCURVE",
"491 927 CURVE"
);
}
);
};
components = (
{
name = O;
},
{
name = breve;
transform = "{1, 0, 0, 1, 176, 220}";
}
);
layerId = "3E7589AA-8194-470F-8E2F-13C1C581BE24";
width = 746;
},
{
background = {
paths = (
{
closed = 1;
nodes = (
"591 476 OFFCURVE",
"591 567 OFFCURVE",
"518 640 CURVE SMOOTH",
"467 691 OFFCURVE",
"407 718 OFFCURVE",
"320 718 CURVE SMOOTH",
"233 718 OFFCURVE",
"173 691 OFFCURVE",
"122 640 CURVE SMOOTH",
"49 567 OFFCURVE",
"49 476 OFFCURVE",
"49 356 CURVE SMOOTH",
"49 236 OFFCURVE",
"49 145 OFFCURVE",
"122 72 CURVE SMOOTH",
"173 21 OFFCURVE",
"233 -6 OFFCURVE",
"320 -6 CURVE SMOOTH",
"407 -6 OFFCURVE",
"467 21 OFFCURVE",
"518 72 CURVE SMOOTH",
"591 145 OFFCURVE",
"591 236 OFFCURVE",
"591 356 CURVE SMOOTH"
);
},
{
closed = 1;
nodes = (
"416 226 OFFCURVE",
"406 203 OFFCURVE",
"390 182 CURVE SMOOTH",
"377 165 OFFCURVE",
"352 150 OFFCURVE",
"320 150 CURVE SMOOTH",
"288 150 OFFCURVE",
"263 165 OFFCURVE",
"250 182 CURVE SMOOTH",
"234 203 OFFCURVE",
"224 226 OFFCURVE",
"224 356 CURVE SMOOTH",
"224 486 OFFCURVE",
"234 510 OFFCURVE",
"250 531 CURVE SMOOTH",
"263 548 OFFCURVE",
"288 562 OFFCURVE",
"320 562 CURVE SMOOTH",
"352 562 OFFCURVE",
"377 548 OFFCURVE",
"390 531 CURVE SMOOTH",
"406 510 OFFCURVE",
"416 486 OFFCURVE",
"416 356 CURVE SMOOTH"
);
},
{
closed = 1;
nodes = (
"379 931 LINE",
"376 894 OFFCURVE",
"346 884 OFFCURVE",
"321 884 CURVE SMOOTH",
"296 884 OFFCURVE",
"266 894 OFFCURVE",
"263 931 CURVE",
"157 931 LINE",
"160 813 OFFCURVE",
"244 774 OFFCURVE",
"321 774 CURVE SMOOTH",
"398 774 OFFCURVE",
"482 813 OFFCURVE",
"485 931 CURVE"
);
}
);
};
components = (
{
name = O;
},
{
name = breve;
transform = "{1, 0, 0, 1, 122, 210}";
}
);
layerId = "BFFFD157-90D3-4B85-B99D-9A2F366F03CA";
width = 753;
},
{
components = (
{
name = O;
},
{
name = breve;
transform = "{1, 0, 0, 1, 201, 232}";
}
);
layerId = "4E6F1D76-CF39-4449-9239-DE310961C1DD";
width = 748;
}
);
leftKerningGroup = O;
leftMetricsKey = auto;
rightKerningGroup = O;
rightMetricsKey = auto;
unicode = 014E;
},
{
glyphname = Oslashacute;
lastChange = "2016-11-25 19:43:40 +0000";
layers = (
{
background = {
paths = (
{
closed = 1;
nodes = (
"570 529 OFFCURVE",
"566 584 OFFCURVE",
"495 654 CURVE",
"544 756 LINE",
"491 756 LINE",
"456 683 LINE",
"420 705 OFFCURVE",
"375 718 OFFCURVE",
"326 718 CURVE SMOOTH",
"255 718 OFFCURVE",
"195 692 OFFCURVE",
"153 650 CURVE SMOOTH",
"87 584 OFFCURVE",
"82 529 OFFCURVE",
"82 356 CURVE SMOOTH",
"82 183 OFFCURVE",
"86 127 OFFCURVE",
"157 58 CURVE",
"108 -44 LINE",
"161 -44 LINE",
"196 29 LINE",
"233 7 OFFCURVE",
"276 -6 OFFCURVE",
"326 -6 CURVE SMOOTH",
"397 -6 OFFCURVE",
"457 20 OFFCURVE",
"499 62 CURVE SMOOTH",
"565 128 OFFCURVE",
"570 183 OFFCURVE",
"570 356 CURVE SMOOTH"
);
},
{
closed = 1;
nodes = (
"181 108 LINE",
"139 156 OFFCURVE",
"136 216 OFFCURVE",
"136 356 CURVE SMOOTH",
"136 506 OFFCURVE",
"140 564 OFFCURVE",
"191 615 CURVE SMOOTH",
"228 652 OFFCURVE",
"274 670 OFFCURVE",
"326 670 CURVE SMOOTH",
"366 670 OFFCURVE",
"402 659 OFFCURVE",
"434 637 CURVE"
);
},
{
closed = 1;
nodes = (
"516 206 OFFCURVE",
"512 148 OFFCURVE",
"461 97 CURVE SMOOTH",
"424 60 OFFCURVE",
"378 42 OFFCURVE",
"326 42 CURVE SMOOTH",
"285 42 OFFCURVE",
"250 53 OFFCURVE",
"218 75 CURVE",
"471 604 LINE",
"512 555 OFFCURVE",
"516 495 OFFCURVE",
"516 356 CURVE SMOOTH"
);
},
{
closed = 1;
nodes = (
"443 927 LINE",
"376 927 LINE",
"279 780 LINE",
"337 780 LINE"
);
}
);
};
components = (
{
name = Oslash;
},
{
name = acute;
transform = "{1, 0, 0, 1, 265, 232}";
}
);
layerId = "3E7589AA-8194-470F-8E2F-13C1C581BE24";
width = 746;
},
{
background = {
paths = (
{
closed = 1;
nodes = (
"591 476 OFFCURVE",
"591 567 OFFCURVE",
"516 642 CURVE",
"570 756 LINE",
"452 756 LINE",
"425 700 LINE",
"395 712 OFFCURVE",
"360 718 OFFCURVE",
"320 718 CURVE SMOOTH",
"233 718 OFFCURVE",
"173 691 OFFCURVE",
"122 640 CURVE SMOOTH",
"49 567 OFFCURVE",
"49 476 OFFCURVE",
"49 356 CURVE SMOOTH",
"49 236 OFFCURVE",
"49 145 OFFCURVE",
"125 69 CURVE",
"70 -44 LINE",
"188 -44 LINE",
"215 12 LINE",
"245 0 OFFCURVE",
"280 -6 OFFCURVE",
"320 -6 CURVE SMOOTH",
"407 -6 OFFCURVE",
"467 21 OFFCURVE",
"518 72 CURVE SMOOTH",
"591 145 OFFCURVE",
"591 236 OFFCURVE",
"591 356 CURVE SMOOTH"
);
},
{
closed = 1;
nodes = (
"416 226 OFFCURVE",
"406 203 OFFCURVE",
"390 182 CURVE SMOOTH",
"377 165 OFFCURVE",
"352 150 OFFCURVE",
"320 150 CURVE SMOOTH",
"303 150 OFFCURVE",
"288 154 OFFCURVE",
"276 161 CURVE",
"413 449 LINE",
"415 426 OFFCURVE",
"416 396 OFFCURVE",
"416 356 CURVE SMOOTH"
);
},
{
closed = 1;
nodes = (
"227 263 LINE",
"225 286 OFFCURVE",
"224 316 OFFCURVE",
"224 356 CURVE SMOOTH",
"224 486 OFFCURVE",
"234 510 OFFCURVE",
"250 531 CURVE SMOOTH",
"263 548 OFFCURVE",
"288 562 OFFCURVE",
"320 562 CURVE SMOOTH",
"337 562 OFFCURVE",
"352 558 OFFCURVE",
"364 552 CURVE"
);
},
{
closed = 1;
nodes = (
"471 962 LINE",
"318 962 LINE",
"253 782 LINE",
"370 782 LINE"
);
}
);
};
components = (
{
name = Oslash;
},
{
name = acute;
transform = "{1, 0, 0, 1, 157, 225}";
}
);
layerId = "BFFFD157-90D3-4B85-B99D-9A2F366F03CA";
width = 753;
},
{
components = (
{
name = Oslash;
},
{
name = acute;
transform = "{1, 0, 0, 1, 312, 243}";
}
);
layerId = "4E6F1D76-CF39-4449-9239-DE310961C1DD";
width = 748;
}
);
leftKerningGroup = O;
rightKerningGroup = O;
unicode = 01FE;
},
{
glyphname = P;
lastChange = "2016-11-25 19:43:40 +0000";
layers = (
{
anchors = (
{
name = bottom;
position = "{159, 0}";
},
{
name = top;
position = "{283, 700}";
}
);
background = {
paths = (
{
closed = 1;
nodes = (
"562 700 LINE",
"188 700 LINE",
"10 0 LINE",
"236 0 LINE",
"343 490 LINE",
"372 490 LINE",
"481 0 LINE",
"737 0 LINE"
);
},
{
closed = 1;
nodes = (
"159 298 LINE",
"151 113 LINE",
"593 113 LINE",
"597 298 LINE"
);
}
);
};
layerId = "BFFFD157-90D3-4B85-B99D-9A2F366F03CA";
paths = (
{
closed = 1;
nodes = (
"265 635 LINE",
"40 700 LINE",
"40 0 LINE",
"265 0 LINE"
);
},
{
closed = 1;
nodes = (
"509 131 OFFCURVE",
"605 249 OFFCURVE",
"605 420 CURVE SMOOTH",
"605 591 OFFCURVE",
"511 708 OFFCURVE",
"248 708 CURVE SMOOTH",
"204 708 OFFCURVE",
"120 706 OFFCURVE",
"40 700 CURVE",
"217 478 LINE",
"246 485 OFFCURVE",
"280 488 OFFCURVE",
"302 488 CURVE SMOOTH",
"366 488 OFFCURVE",
"392 453 OFFCURVE",
"392 407 CURVE SMOOTH",
"392 360 OFFCURVE",
"364 330 OFFCURVE",
"302 330 CURVE SMOOTH",
"273 330 OFFCURVE",
"243 333 OFFCURVE",
"214 338 CURVE",
"179 139 LINE",
"221 134 OFFCURVE",
"264 131 OFFCURVE",
"306 131 CURVE SMOOTH"
);
}
);
width = 623;
},
{
anchors = (
{
name = bottom;
position = "{133, 0}";
},
{
name = top;
position = "{274, 700}";
}
);
hints = (
{
horizontal = 1;
origin = "{0, 2}";
type = Anchor;
options = 4;
},
{
horizontal = 1;
origin = "{1, 25}";
target = "{1, 18}";
type = TTStem;
options = 4;
},
{
horizontal = 1;
origin = "{1, 5}";
target = "{1, 12}";
type = TTStem;
options = 4;
}
);
layerId = "3E7589AA-8194-470F-8E2F-13C1C581BE24";
paths = (
{
closed = 1;
nodes = (
"178 656 LINE",
"85 700 LINE",
"85 0 LINE",
"178 0 LINE"
);
},
{
closed = 1;
nodes = (
"454 217 OFFCURVE",
"538 326 OFFCURVE",
"538 466 CURVE SMOOTH",
"538 600 OFFCURVE",
"459 708 OFFCURVE",
"234 708 CURVE SMOOTH",
"201 708 OFFCURVE",
"148 706 OFFCURVE",
"85 700 CURVE",
"138 610 LINE",
"176 615 OFFCURVE",
"210 616 OFFCURVE",
"235 616 CURVE SMOOTH",
"387 616 OFFCURVE",
"447 557 OFFCURVE",
"447 461 CURVE SMOOTH",
"447 363 OFFCURVE",
"390 309 OFFCURVE",
"255 309 CURVE SMOOTH",
"223 309 OFFCURVE",
"181 311 OFFCURVE",
"139 317 CURVE",
"137 225 LINE",
"176 219 OFFCURVE",
"215 217 OFFCURVE",
"254 217 CURVE SMOOTH"
);
}
);
width = 571;
},
{
anchors = (
{
name = bottom;
position = "{112, 0}";
},
{
name = top;
position = "{270, 700}";
}
);
hints = (
{
horizontal = 1;
origin = "{0, 2}";
type = Anchor;
options = 4;
},
{
horizontal = 1;
origin = "{1, 25}";
target = "{1, 18}";
type = TTStem;
options = 4;
},
{
horizontal = 1;
origin = "{1, 5}";
target = "{1, 12}";
type = TTStem;
options = 4;
}
);
layerId = "4E6F1D76-CF39-4449-9239-DE310961C1DD";
paths = (
{
closed = 1;
nodes = (
"116 697 LINE",
"110 699 LINE",
"110 0 LINE",
"117 0 LINE"
);
},
{
closed = 1;
nodes = (
"403 259 OFFCURVE",
"509 320 OFFCURVE",
"509 480 CURVE SMOOTH",
"509 631 OFFCURVE",
"411 706 OFFCURVE",
"230 706 CURVE SMOOTH",
"195 706 OFFCURVE",
"156 704 OFFCURVE",
"110 699 CURVE",
"111 693 LINE",
"157 698 OFFCURVE",
"194 700 OFFCURVE",
"230 700 CURVE SMOOTH",
"408 700 OFFCURVE",
"503 623 OFFCURVE",
"503 480 CURVE SMOOTH",
"503 327 OFFCURVE",
"401 265 OFFCURVE",
"227 265 CURVE SMOOTH",
"188 265 OFFCURVE",
"149 267 OFFCURVE",
"113 272 CURVE",
"113 266 LINE",
"151 261 OFFCURVE",
"185 259 OFFCURVE",
"227 259 CURVE SMOOTH"
);
}
);
width = 559;
}
);
leftKerningGroup = H;
leftMetricsKey = H;
rightKerningGroup = P;
rightMetricsKey = "=O*.6";
unicode = 0050;
},
{
glyphname = Thorn;
lastChange = "2016-11-25 19:43:40 +0000";
layers = (
{
layerId = "3E7589AA-8194-470F-8E2F-13C1C581BE24";
paths = (
{
closed = 1;
nodes = (
"178 700 LINE",
"85 700 LINE",
"85 0 LINE",
"178 0 LINE"
);
},
{
closed = 1;
nodes = (
"454 115 OFFCURVE",
"538 222 OFFCURVE",
"538 362 CURVE SMOOTH",
"538 496 OFFCURVE",
"459 600 OFFCURVE",
"234 600 CURVE SMOOTH",
"194 600 OFFCURVE",
"151 595 OFFCURVE",
"88 582 CURVE",
"138 502 LINE",
"176 507 OFFCURVE",
"210 508 OFFCURVE",
"235 508 CURVE SMOOTH",
"387 508 OFFCURVE",
"447 453 OFFCURVE",
"447 357 CURVE SMOOTH",
"447 259 OFFCURVE",
"390 205 OFFCURVE",
"255 205 CURVE SMOOTH",
"223 205 OFFCURVE",
"181 207 OFFCURVE",
"139 213 CURVE",
"137 123 LINE",
"176 117 OFFCURVE",
"215 115 OFFCURVE",
"254 115 CURVE SMOOTH"
);
}
);
width = 571;
},
{
layerId = "BFFFD157-90D3-4B85-B99D-9A2F366F03CA";
paths = (
{
closed = 1;
nodes = (
"265 700 LINE",
"40 700 LINE",
"40 0 LINE",
"265 0 LINE"
);
},
{
closed = 1;
nodes = (
"509 74 OFFCURVE",
"605 179 OFFCURVE",
"605 350 CURVE SMOOTH",
"605 519 OFFCURVE",
"531 632 OFFCURVE",
"323 632 CURVE SMOOTH",
"278 632 OFFCURVE",
"222 623 OFFCURVE",
"159 610 CURVE",
"217 398 LINE",
"246 405 OFFCURVE",
"280 408 OFFCURVE",
"302 408 CURVE SMOOTH",
"366 408 OFFCURVE",
"392 383 OFFCURVE",
"392 337 CURVE SMOOTH",
"392 290 OFFCURVE",
"364 267 OFFCURVE",
"302 267 CURVE SMOOTH",
"273 267 OFFCURVE",
"243 270 OFFCURVE",
"214 275 CURVE",
"179 82 LINE",
"221 77 OFFCURVE",
"264 74 OFFCURVE",
"306 74 CURVE SMOOTH"
);
}
);
width = 629;
},
{
layerId = "4E6F1D76-CF39-4449-9239-DE310961C1DD";
paths = (
{
closed = 1;
nodes = (
"116 700 LINE",
"110 700 LINE",
"110 0 LINE",
"116 0 LINE"
);
},
{
closed = 1;
nodes = (
"403 135 OFFCURVE",
"509 196 OFFCURVE",
"509 356 CURVE SMOOTH",
"509 508 OFFCURVE",
"411 580 OFFCURVE",
"230 580 CURVE SMOOTH",
"196 580 OFFCURVE",
"160 578 OFFCURVE",
"114 573 CURVE",
"114 567 LINE",
"160 571 OFFCURVE",
"194 574 OFFCURVE",
"230 574 CURVE SMOOTH",
"408 574 OFFCURVE",
"503 500 OFFCURVE",
"503 356 CURVE SMOOTH",
"503 203 OFFCURVE",
"401 141 OFFCURVE",
"227 141 CURVE SMOOTH",
"188 141 OFFCURVE",
"144 143 OFFCURVE",
"113 148 CURVE",
"113 142 LINE",
"150 137 OFFCURVE",
"190 135 OFFCURVE",
"227 135 CURVE SMOOTH"
);
}
);
width = 559;
}
);
leftKerningGroup = H;
leftMetricsKey = H;
rightKerningGroup = Thorn;
rightMetricsKey = P;
unicode = 00DE;
},
{
glyphname = Q;
lastChange = "2016-11-25 19:43:40 +0000";
layers = (
{
anchors = (
{
name = bottom;
position = "{376, 0}";
},
{
name = top;
position = "{376, 700}";
}
);
background = {
paths = (
{
closed = 1;
nodes = (
"585 -15 OFFCURVE",
"723 114 OFFCURVE",
"723 354 CURVE SMOOTH",
"723 584 OFFCURVE",
"594 715 OFFCURVE",
"383 715 CURVE SMOOTH",
"167 715 OFFCURVE",
"30 585 OFFCURVE",
"30 342 CURVE SMOOTH",
"30 111 OFFCURVE",
"161 -15 OFFCURVE",
"371 -15 CURVE SMOOTH"
);
},
{
closed = 1;
nodes = (
"307 203 OFFCURVE",
"263 253 OFFCURVE",
"263 348 CURVE SMOOTH",
"263 444 OFFCURVE",
"308 488 OFFCURVE",
"376 488 CURVE SMOOTH",
"446 488 OFFCURVE",
"491 444 OFFCURVE",
"491 345 CURVE SMOOTH",
"491 250 OFFCURVE",
"448 203 OFFCURVE",
"379 203 CURVE SMOOTH"
);
}
);
};
layerId = "BFFFD157-90D3-4B85-B99D-9A2F366F03CA";
paths = (
{
closed = 1;
nodes = (
"723 584 OFFCURVE",
"594 715 OFFCURVE",
"383 715 CURVE SMOOTH",
"167 715 OFFCURVE",
"30 585 OFFCURVE",
"30 342 CURVE SMOOTH",
"30 100 OFFCURVE",
"171 -10 OFFCURVE",
"358 -15 CURVE",
"334 30 LINE",
"326 -141 LINE",
"452 -185 OFFCURVE",
"570 -203 OFFCURVE",
"706 -212 CURVE",
"723 -3 LINE",
"662 -3 OFFCURVE",
"586 0 OFFCURVE",
"517 10 CURVE",
"518 25 LINE",
"645 68 OFFCURVE",
"723 175 OFFCURVE",
"723 354 CURVE SMOOTH"
);
},
{
closed = 1;
nodes = (
"263 444 OFFCURVE",
"308 488 OFFCURVE",
"376 488 CURVE SMOOTH",
"446 488 OFFCURVE",
"491 444 OFFCURVE",
"491 345 CURVE SMOOTH",
"491 250 OFFCURVE",
"448 203 OFFCURVE",
"379 203 CURVE SMOOTH",
"307 203 OFFCURVE",
"263 253 OFFCURVE",
"263 348 CURVE SMOOTH"
);
}
);
width = 753;
},
{
anchors = (
{
name = bottom;
position = "{373, 0}";
},
{
name = top;
position = "{373, 700}";
}
);
background = {
paths = (
{
closed = 1;
nodes = (
"564 -15 OFFCURVE",
"691 110 OFFCURVE",
"691 350 CURVE SMOOTH",
"691 580 OFFCURVE",
"573 712 OFFCURVE",
"377 712 CURVE SMOOTH",
"181 712 OFFCURVE",
"55 585 OFFCURVE",
"55 342 CURVE SMOOTH",
"55 111 OFFCURVE",
"175 -15 OFFCURVE",
"368 -15 CURVE SMOOTH"
);
},
{
closed = 1;
nodes = (
"224 75 OFFCURVE",
"148 169 OFFCURVE",
"148 349 CURVE SMOOTH",
"148 532 OFFCURVE",
"229 621 OFFCURVE",
"372 621 CURVE SMOOTH",
"518 621 OFFCURVE",
"598 529 OFFCURVE",
"598 343 CURVE SMOOTH",
"598 164 OFFCURVE",
"519 75 OFFCURVE",
"374 75 CURVE SMOOTH"
);
}
);
};
hints = (
{
horizontal = 1;
origin = "{0, 13}";
target = "{0, 14}";
type = TTStem;
options = 4;
},
{
horizontal = 1;
origin = "{0, 18}";
type = Anchor;
options = 4;
},
{
horizontal = 1;
origin = "{0, 2}";
target = "{1, 2}";
type = TTStem;
options = 4;
},
{
horizontal = 1;
origin = "{0, 18}";
target = "{1, 8}";
type = TTStem;
options = 4;
}
);
layerId = "3E7589AA-8194-470F-8E2F-13C1C581BE24";
paths = (
{
closed = 1;
nodes = (
"691 580 OFFCURVE",
"573 712 OFFCURVE",
"377 712 CURVE SMOOTH",
"181 712 OFFCURVE",
"55 585 OFFCURVE",
"55 342 CURVE SMOOTH",
"55 110 OFFCURVE",
"175 -15 OFFCURVE",
"369 -15 CURVE",
"342 31 LINE",
"329 -88 LINE",
"434 -116 OFFCURVE",
"558 -130 OFFCURVE",
"675 -137 CURVE",
"684 -39 LINE",
"605 -39 OFFCURVE",
"509 -33 OFFCURVE",
"428 -20 CURVE",
"429 -8 LINE",
"590 17 OFFCURVE",
"691 136 OFFCURVE",
"691 350 CURVE SMOOTH"
);
},
{
closed = 1;
nodes = (
"148 532 OFFCURVE",
"229 621 OFFCURVE",
"372 621 CURVE SMOOTH",
"518 621 OFFCURVE",
"598 529 OFFCURVE",
"598 343 CURVE SMOOTH",
"598 164 OFFCURVE",
"519 75 OFFCURVE",
"374 75 CURVE SMOOTH",
"224 75 OFFCURVE",
"148 169 OFFCURVE",
"148 349 CURVE SMOOTH"
);
}
);
width = 746;
},
{
anchors = (
{
name = bottom;
position = "{374, 0}";
},
{
name = top;
position = "{374, 700}";
}
);
background = {
paths = (
{
closed = 1;
nodes = (
"544 -10 OFFCURVE",
"664 104 OFFCURVE",
"664 348 CURVE SMOOTH",
"664 590 OFFCURVE",
"546 710 OFFCURVE",
"376 710 CURVE SMOOTH",
"204 710 OFFCURVE",
"84 588 OFFCURVE",
"84 349 CURVE SMOOTH",
"84 107 OFFCURVE",
"203 -10 OFFCURVE",
"375 -10 CURVE SMOOTH"
);
},
{
closed = 1;
nodes = (
"207 -4 OFFCURVE",
"90 111 OFFCURVE",
"90 348 CURVE SMOOTH",
"90 587 OFFCURVE",
"208 704 OFFCURVE",
"377 704 CURVE SMOOTH",
"545 704 OFFCURVE",
"658 587 OFFCURVE",
"658 349 CURVE SMOOTH",
"658 104 OFFCURVE",
"539 -4 OFFCURVE",
"374 -4 CURVE SMOOTH"
);
}
);
};
hints = (
{
horizontal = 1;
origin = "{0, 13}";
target = "{0, 14}";
type = TTStem;
options = 4;
},
{
horizontal = 1;
origin = "{0, 18}";
type = Anchor;
options = 4;
},
{
horizontal = 1;
origin = "{0, 2}";
target = "{1, 2}";
type = TTStem;
options = 4;
},
{
horizontal = 1;
origin = "{0, 18}";
target = "{1, 8}";
type = TTStem;
options = 4;
}
);
layerId = "4E6F1D76-CF39-4449-9239-DE310961C1DD";
paths = (
{
closed = 1;
nodes = (
"664 590 OFFCURVE",
"546 710 OFFCURVE",
"376 710 CURVE SMOOTH",
"204 710 OFFCURVE",
"84 588 OFFCURVE",
"84 349 CURVE SMOOTH",
"84 122 OFFCURVE",
"189 14 OFFCURVE",
"332 -8 CURVE",
"322 -2 LINE",
"320 -6 LINE",
"443 -63 OFFCURVE",
"555 -82 OFFCURVE",
"663 -88 CURVE",
"663 -82 LINE",
"556 -77 OFFCURVE",
"445 -54 OFFCURVE",
"344 -10 CURVE",
"344 -9 LINE",
"560 -23 OFFCURVE",
"664 123 OFFCURVE",
"664 348 CURVE SMOOTH"
);
},
{
closed = 1;
nodes = (
"90 587 OFFCURVE",
"208 704 OFFCURVE",
"377 704 CURVE SMOOTH",
"545 704 OFFCURVE",
"658 587 OFFCURVE",
"658 349 CURVE SMOOTH",
"658 105 OFFCURVE",
"539 -4 OFFCURVE",
"374 -4 CURVE SMOOTH",
"207 -4 OFFCURVE",
"90 112 OFFCURVE",
"90 348 CURVE SMOOTH"
);
}
);
width = 748;
}
);
leftKerningGroup = O;
leftMetricsKey = O;
rightKerningGroup = O;
rightMetricsKey = O;
unicode = 0051;
},
{
glyphname = R;
lastChange = "2016-11-25 19:43:40 +0000";
layers = (
{
anchors = (
{
name = bottom;
position = "{315, 0}";
},
{
name = top;
position = "{286, 700}";
}
);
background = {
paths = (
{
closed = 1;
nodes = (
"265 635 LINE",
"40 700 LINE",
"40 0 LINE",
"265 0 LINE"
);
},
{
closed = 1;
nodes = (
"524 234 OFFCURVE",
"599 307 OFFCURVE",
"599 435 CURVE SMOOTH",
"599 580 OFFCURVE",
"503 708 OFFCURVE",
"226 708 CURVE SMOOTH",
"176 708 OFFCURVE",
"109 706 OFFCURVE",
"40 700 CURVE",
"207 479 LINE",
"236 485 OFFCURVE",
"269 488 OFFCURVE",
"291 488 CURVE SMOOTH",
"355 488 OFFCURVE",
"381 454 OFFCURVE",
"381 408 CURVE SMOOTH",
"381 361 OFFCURVE",
"353 332 OFFCURVE",
"291 332 CURVE SMOOTH",
"204 332 LINE",
"260 145 LINE",
"290 145 LINE SMOOTH",
"315 145 OFFCURVE",
"324 141 OFFCURVE",
"339 116 CURVE SMOOTH",
"357 86 OFFCURVE",
"380 40 OFFCURVE",
"399 0 CURVE",
"638 0 LINE",
"641 14 LINE",
"616 63 OFFCURVE",
"586 113 OFFCURVE",
"556 162 CURVE SMOOTH",
"519 222 OFFCURVE",
"470 265 OFFCURVE",
"385 269 CURVE",
"431 207 LINE"
);
}
);
};
layerId = "BFFFD157-90D3-4B85-B99D-9A2F366F03CA";
paths = (
{
closed = 1;
nodes = (
"265 635 LINE",
"40 700 LINE",
"40 0 LINE",
"265 0 LINE"
);
},
{
closed = 1;
nodes = (
"495 204 LINE",
"561 248 OFFCURVE",
"599 323 OFFCURVE",
"599 427 CURVE SMOOTH",
"599 595 OFFCURVE",
"503 708 OFFCURVE",
"226 708 CURVE SMOOTH",
"176 708 OFFCURVE",
"109 706 OFFCURVE",
"40 700 CURVE",
"207 479 LINE",
"236 485 OFFCURVE",
"269 488 OFFCURVE",
"291 488 CURVE SMOOTH",
"355 488 OFFCURVE",
"381 454 OFFCURVE",
"381 408 CURVE SMOOTH",
"381 361 OFFCURVE",
"353 332 OFFCURVE",
"291 332 CURVE SMOOTH",
"204 332 LINE",
"260 155 LINE",
"309 155 LINE"
);
},
{
closed = 1;
nodes = (
"651 0 LINE",
"475 297 LINE",
"266 208 LINE",
"379 0 LINE"
);
}
);
width = 651;
},
{
anchors = (
{
name = bottom;
position = "{299, 0}";
},
{
name = top;
position = "{284, 700}";
}
);
background = {
paths = (
{
closed = 1;
nodes = (
"178 652 LINE",
"85 696 LINE",
"85 0 LINE",
"178 0 LINE"
);
},
{
closed = 1;
nodes = (
"430 230 OFFCURVE",
"528 313 OFFCURVE",
"528 470 CURVE SMOOTH",
"528 612 OFFCURVE",
"449 705 OFFCURVE",
"234 705 CURVE SMOOTH",
"201 705 OFFCURVE",
"148 702 OFFCURVE",
"85 696 CURVE",
"144 606 LINE",
"188 611 OFFCURVE",
"224 612 OFFCURVE",
"243 612 CURVE SMOOTH",
"383 612 OFFCURVE",
"437 554 OFFCURVE",
"437 461 CURVE SMOOTH",
"437 367 OFFCURVE",
"380 321 OFFCURVE",
"265 321 CURVE SMOOTH",
"139 321 LINE",
"137 230 LINE",
"224 230 LINE SMOOTH"
);
},
{
closed = 1;
nodes = (
"554 0 LINE",
"333 300 LINE",
"258 248 LINE",
"439 0 LINE"
);
}
);
};
hints = (
{
horizontal = 1;
place = "{221, 90}";
type = TTStem;
options = 4;
},
{
horizontal = 1;
place = "{708, -92}";
type = TTStem;
options = 4;
},
{
horizontal = 1;
place = "{0, 0}";
type = Anchor;
options = 4;
},
{
horizontal = 1;
place = "{0, 0}";
type = Anchor;
options = 4;
}
);
layerId = "3E7589AA-8194-470F-8E2F-13C1C581BE24";
paths = (
{
closed = 1;
nodes = (
"178 652 LINE",
"85 696 LINE",
"85 0 LINE",
"178 0 LINE"
);
},
{
closed = 1;
nodes = (
"350 243 LINE",
"470 273 OFFCURVE",
"528 350 OFFCURVE",
"528 470 CURVE SMOOTH",
"528 612 OFFCURVE",
"449 705 OFFCURVE",
"234 705 CURVE SMOOTH",
"201 705 OFFCURVE",
"148 702 OFFCURVE",
"85 696 CURVE",
"144 606 LINE",
"188 611 OFFCURVE",
"224 612 OFFCURVE",
"243 612 CURVE SMOOTH",
"383 612 OFFCURVE",
"437 554 OFFCURVE",
"437 461 CURVE SMOOTH",
"437 367 OFFCURVE",
"380 321 OFFCURVE",
"265 321 CURVE SMOOTH",
"139 321 LINE",
"137 230 LINE",
"292 230 LINE"
);
},
{
closed = 1;
nodes = (
"554 0 LINE",
"333 300 LINE",
"253 248 LINE",
"434 0 LINE"
);
}
);
width = 594;
},
{
anchors = (
{
name = bottom;
position = "{299, 0}";
},
{
name = top;
position = "{284, 700}";
}
);
associatedMasterId = "3E7589AA-8194-470F-8E2F-13C1C581BE24";
background = {
paths = (
{
closed = 1;
nodes = (
"198 645 LINE",
"78 693 LINE",
"78 0 LINE",
"198 0 LINE"
);
},
{
closed = 1;
nodes = (
"446 206 OFFCURVE",
"544 305 OFFCURVE",
"544 452 CURVE SMOOTH",
"544 603 OFFCURVE",
"460 701 OFFCURVE",
"237 701 CURVE SMOOTH",
"201 701 OFFCURVE",
"143 699 OFFCURVE",
"78 693 CURVE",
"161 577 LINE",
"201 582 OFFCURVE",
"235 583 OFFCURVE",
"256 583 CURVE SMOOTH",
"379 583 OFFCURVE",
"426 529 OFFCURVE",
"426 447 CURVE SMOOTH",
"426 363 OFFCURVE",
"376 314 OFFCURVE",
"273 314 CURVE SMOOTH",
"155 314 LINE",
"143 206 LINE",
"241 206 LINE SMOOTH"
);
},
{
closed = 1;
nodes = (
"565 13 LINE",
"384 296 LINE",
"282 245 LINE",
"432 0 LINE",
"561 0 LINE"
);
}
);
};
hints = (
{
horizontal = 1;
origin = "{1, 20}";
target = "{1, 19}";
type = TTStem;
options = 4;
},
{
horizontal = 1;
origin = "{1, 5}";
target = "{1, 12}";
type = TTStem;
options = 4;
},
{
horizontal = 1;
origin = "{0, 2}";
type = Anchor;
options = 4;
},
{
horizontal = 1;
origin = "{2, 3}";
type = Anchor;
options = 4;
}
);
layerId = "DDB93410-9C84-4C18-B83C-39466418BBC6";
name = "Nov 17 16, 13:55";
paths = (
{
closed = 1;
nodes = (
"178 652 LINE",
"85 696 LINE",
"85 0 LINE",
"178 0 LINE"
);
},
{
closed = 1;
nodes = (
"430 220 OFFCURVE",
"528 312 OFFCURVE",
"528 469 CURVE SMOOTH",
"528 611 OFFCURVE",
"449 704 OFFCURVE",
"234 704 CURVE SMOOTH",
"201 704 OFFCURVE",
"148 702 OFFCURVE",
"85 696 CURVE",
"144 606 LINE",
"188 611 OFFCURVE",
"224 612 OFFCURVE",
"243 612 CURVE SMOOTH",
"383 612 OFFCURVE",
"437 552 OFFCURVE",
"437 459 CURVE SMOOTH",
"437 365 OFFCURVE",
"380 311 OFFCURVE",
"265 311 CURVE SMOOTH",
"139 311 LINE",
"137 220 LINE",
"224 220 LINE SMOOTH"
);
},
{
closed = 1;
nodes = (
"554 0 LINE",
"363 300 LINE",
"286 248 LINE",
"441 0 LINE"
);
}
);
width = 586;
},
{
anchors = (
{
name = bottom;
position = "{274, 0}";
},
{
name = top;
position = "{277, 700}";
}
);
hints = (
{
horizontal = 1;
place = "{785.726, -35.753}";
type = TTStem;
options = 4;
},
{
horizontal = 1;
place = "{189.849, 36.082}";
type = TTStem;
options = 4;
},
{
horizontal = 1;
place = "{0, 0}";
type = Anchor;
options = 4;
},
{
horizontal = 1;
place = "{0, 0}";
type = Anchor;
options = 4;
}
);
layerId = "4E6F1D76-CF39-4449-9239-DE310961C1DD";
paths = (
{
closed = 1;
nodes = (
"116 697 LINE",
"110 699 LINE",
"110 0 LINE",
"116 0 LINE"
);
},
{
closed = 1;
nodes = (
"260 269 LINE",
"396 280 OFFCURVE",
"487 349 OFFCURVE",
"487 490 CURVE SMOOTH",
"487 624 OFFCURVE",
"406 706 OFFCURVE",
"230 706 CURVE SMOOTH",
"200 706 OFFCURVE",
"161 704 OFFCURVE",
"110 699 CURVE",
"112 693 LINE",
"161 698 OFFCURVE",
"196 700 OFFCURVE",
"229 700 CURVE SMOOTH",
"401 700 OFFCURVE",
"481 620 OFFCURVE",
"481 490 CURVE SMOOTH",
"481 354 OFFCURVE",
"391 274 OFFCURVE",
"227 274 CURVE SMOOTH",
"114 274 LINE",
"114 268 LINE",
"259 268 LINE"
);
},
{
closed = 1;
nodes = (
"516 0 LINE",
"260 272 LINE",
"253 271 LINE",
"506 0 LINE"
);
}
);
width = 547;
}
);
leftKerningGroup = H;
leftMetricsKey = H;
rightKerningGroup = R;
unicode = 0052;
},
{
glyphname = S;
lastChange = "2016-11-25 19:43:40 +0000";
layers = (
{
anchors = (
{
name = bottom;
position = "{267, 0}";
},
{
name = top;
position = "{317, 700}";
},
{
name = topright;
position = "{534, 700}";
}
);
background = {
paths = (
{
closed = 1;
nodes = (
"439 636 LINE",
"214 636 LINE",
"214 10 LINE",
"439 10 LINE"
);
},
{
closed = 1;
nodes = (
"30 710 LINE",
"30 495 LINE",
"622 495 LINE",
"622 710 LINE"
);
}
);
};
layerId = "BFFFD157-90D3-4B85-B99D-9A2F366F03CA";
paths = (
{
closed = 1;
nodes = (
"473 694 OFFCURVE",
"399 713 OFFCURVE",
"319 713 CURVE SMOOTH",
"103 713 OFFCURVE",
"34 614 OFFCURVE",
"34 475 CURVE SMOOTH",
"34 363 OFFCURVE",
"81 320 OFFCURVE",
"138 288 CURVE SMOOTH",
"178 266 OFFCURVE",
"216 252 OFFCURVE",
"253 236 CURVE SMOOTH",
"296 218 OFFCURVE",
"307 212 OFFCURVE",
"307 197 CURVE SMOOTH",
"307 181 OFFCURVE",
"277 179 OFFCURVE",
"247 179 CURVE SMOOTH",
"188 179 OFFCURVE",
"118 194 OFFCURVE",
"53 219 CURVE",
"34 29 LINE",
"103 0 OFFCURVE",
"190 -13 OFFCURVE",
"267 -13 CURVE SMOOTH",
"455 -13 OFFCURVE",
"534 62 OFFCURVE",
"534 192 CURVE SMOOTH",
"534 309 OFFCURVE",
"473 361 OFFCURVE",
"409 389 CURVE SMOOTH",
"373 405 OFFCURVE",
"346 413 OFFCURVE",
"307 426 CURVE SMOOTH",
"274 437 OFFCURVE",
"259 450 OFFCURVE",
"259 467 CURVE SMOOTH",
"259 492 OFFCURVE",
"287 500 OFFCURVE",
"326 500 CURVE SMOOTH",
"382 500 OFFCURVE",
"440 483 OFFCURVE",
"489 463 CURVE",
"521 669 LINE"
);
}
);
width = 554;
},
{
anchors = (
{
name = bottom;
position = "{266, 0}";
},
{
name = top;
position = "{299, 700}";
},
{
name = topright;
position = "{531, 700}";
}
);
hints = (
{
horizontal = 1;
origin = "{0, 24}";
target = "{0, 17}";
type = TTStem;
options = 4;
},
{
horizontal = 1;
origin = "{0, 2}";
target = "{0, 39}";
type = TTStem;
options = 4;
},
{
horizontal = 1;
origin = "{0, 17}";
target = "{0, 2}";
other1 = "{0, 33}";
type = Interpolate;
},
{
horizontal = 1;
origin = "{0, 24}";
target = "{0, 39}";
other1 = "{0, 8}";
type = Interpolate;
}
);
layerId = "3E7589AA-8194-470F-8E2F-13C1C581BE24";
paths = (
{
closed = 1;
nodes = (
"427 697 OFFCURVE",
"369 709 OFFCURVE",
"300 709 CURVE SMOOTH",
"135 709 OFFCURVE",
"69 617 OFFCURVE",
"69 502 CURVE SMOOTH",
"69 390 OFFCURVE",
"130 345 OFFCURVE",
"198 318 CURVE SMOOTH",
"239 302 OFFCURVE",
"285 286 OFFCURVE",
"330 266 CURVE SMOOTH",
"391 238 OFFCURVE",
"403 202 OFFCURVE",
"403 170 CURVE SMOOTH",
"403 104 OFFCURVE",
"349 80 OFFCURVE",
"273 80 CURVE SMOOTH",
"192 80 OFFCURVE",
"131 102 OFFCURVE",
"79 132 CURVE",
"55 40 LINE",
"114 5 OFFCURVE",
"190 -11 OFFCURVE",
"266 -11 CURVE SMOOTH",
"412 -11 OFFCURVE",
"496 50 OFFCURVE",
"496 174 CURVE SMOOTH",
"496 259 OFFCURVE",
"458 317 OFFCURVE",
"362 354 CURVE SMOOTH",
"322 369 OFFCURVE",
"277 385 OFFCURVE",
"245 398 CURVE SMOOTH",
"179 425 OFFCURVE",
"160 461 OFFCURVE",
"160 508 CURVE SMOOTH",
"160 592 OFFCURVE",
"219 617 OFFCURVE",
"299 617 CURVE SMOOTH",
"356 617 OFFCURVE",
"410 605 OFFCURVE",
"453 582 CURVE",
"481 668 LINE"
);
}
);
width = 551;
},
{
anchors = (
{
name = bottom;
position = "{267, 0}";
},
{
name = top;
position = "{308, 700}";
},
{
name = topright;
position = "{533, 700}";
}
);
associatedMasterId = "3E7589AA-8194-470F-8E2F-13C1C581BE24";
background = {
paths = (
{
closed = 1;
nodes = (
"452 691 OFFCURVE",
"384 709 OFFCURVE",
"310 709 CURVE SMOOTH",
"119 709 OFFCURVE",
"52 615 OFFCURVE",
"52 488 CURVE SMOOTH",
"52 376 OFFCURVE",
"106 333 OFFCURVE",
"165 305 CURVE SMOOTH",
"209 284 OFFCURVE",
"251 271 OFFCURVE",
"295 253 CURVE SMOOTH",
"344 233 OFFCURVE",
"355 212 OFFCURVE",
"355 187 CURVE SMOOTH",
"355 138 OFFCURVE",
"313 128 OFFCURVE",
"260 128 CURVE SMOOTH",
"190 128 OFFCURVE",
"125 146 OFFCURVE",
"66 173 CURVE",
"45 35 LINE",
"109 3 OFFCURVE",
"190 -12 OFFCURVE",
"267 -12 CURVE SMOOTH",
"434 -12 OFFCURVE",
"515 53 OFFCURVE",
"515 183 CURVE SMOOTH",
"515 284 OFFCURVE",
"466 336 OFFCURVE",
"389 368 CURVE SMOOTH",
"348 385 OFFCURVE",
"312 395 OFFCURVE",
"273 410 CURVE SMOOTH",
"227 428 OFFCURVE",
"210 450 OFFCURVE",
"210 483 CURVE SMOOTH",
"210 536 OFFCURVE",
"253 552 OFFCURVE",
"313 552 CURVE SMOOTH",
"369 552 OFFCURVE",
"425 537 OFFCURVE",
"472 512 CURVE",
"502 662 LINE"
);
}
);
};
layerId = "06557522-36DB-480E-A152-CEF94291F906";
name = "{155, 100}";
paths = (
{
closed = 1;
nodes = (
"452 693 OFFCURVE",
"384 711 OFFCURVE",
"310 711 CURVE SMOOTH",
"119 711 OFFCURVE",
"52 602 OFFCURVE",
"52 483 CURVE SMOOTH",
"52 374 OFFCURVE",
"106 327 OFFCURVE",
"173 296 CURVE SMOOTH",
"209 279 OFFCURVE",
"251 263 OFFCURVE",
"295 245 CURVE SMOOTH",
"344 225 OFFCURVE",
"355 209 OFFCURVE",
"355 187 CURVE SMOOTH",
"355 146 OFFCURVE",
"313 140 OFFCURVE",
"260 140 CURVE SMOOTH",
"190 140 OFFCURVE",
"125 156 OFFCURVE",
"66 185 CURVE",
"45 35 LINE",
"109 3 OFFCURVE",
"190 -12 OFFCURVE",
"267 -12 CURVE SMOOTH",
"434 -12 OFFCURVE",
"515 54 OFFCURVE",
"515 184 CURVE SMOOTH",
"515 285 OFFCURVE",
"465 340 OFFCURVE",
"389 373 CURVE SMOOTH",
"348 391 OFFCURVE",
"312 403 OFFCURVE",
"271 420 CURVE SMOOTH",
"230 437 OFFCURVE",
"210 455 OFFCURVE",
"210 489 CURVE SMOOTH",
"210 537 OFFCURVE",
"253 553 OFFCURVE",
"313 553 CURVE SMOOTH",
"369 553 OFFCURVE",
"425 537 OFFCURVE",
"472 512 CURVE",
"502 663 LINE"
);
}
);
width = 553;
},
{
anchors = (
{
name = bottom;
position = "{256, 0}";
},
{
name = top;
position = "{283, 700}";
},
{
name = topright;
position = "{507, 700}";
}
);
hints = (
{
horizontal = 1;
origin = "{0, 24}";
target = "{0, 17}";
type = TTStem;
options = 4;
},
{
horizontal = 1;
origin = "{0, 2}";
target = "{0, 39}";
type = TTStem;
options = 4;
},
{
horizontal = 1;
origin = "{0, 17}";
target = "{0, 2}";
other1 = "{0, 33}";
type = Interpolate;
},
{
horizontal = 1;
origin = "{0, 24}";
target = "{0, 39}";
other1 = "{0, 8}";
type = Interpolate;
}
);
layerId = "4E6F1D76-CF39-4449-9239-DE310961C1DD";
paths = (
{
closed = 1;
nodes = (
"406 685 OFFCURVE",
"355 707 OFFCURVE",
"284 707 CURVE SMOOTH",
"170 707 OFFCURVE",
"81 650 OFFCURVE",
"81 523 CURVE SMOOTH",
"81 438 OFFCURVE",
"123 385 OFFCURVE",
"197 354 CURVE SMOOTH",
"243 335 OFFCURVE",
"307 314 OFFCURVE",
"354 291 CURVE SMOOTH",
"419 259 OFFCURVE",
"447 211 OFFCURVE",
"447 143 CURVE SMOOTH",
"447 42 OFFCURVE",
"370 -4 OFFCURVE",
"256 -4 CURVE SMOOTH",
"186 -4 OFFCURVE",
"125 10 OFFCURVE",
"73 36 CURVE",
"71 31 LINE",
"117 5 OFFCURVE",
"183 -10 OFFCURVE",
"257 -10 CURVE SMOOTH",
"371 -10 OFFCURVE",
"453 36 OFFCURVE",
"453 143 CURVE SMOOTH",
"453 214 OFFCURVE",
"425 263 OFFCURVE",
"356 297 CURVE SMOOTH",
"305 322 OFFCURVE",
"242 342 OFFCURVE",
"200 360 CURVE SMOOTH",
"128 391 OFFCURVE",
"87 441 OFFCURVE",
"87 523 CURVE SMOOTH",
"87 641 OFFCURVE",
"168 701 OFFCURVE",
"285 701 CURVE SMOOTH",
"350 701 OFFCURVE",
"400 682 OFFCURVE",
"434 658 CURVE",
"437 663 LINE"
);
}
);
width = 527;
}
);
leftKerningGroup = S;
rightKerningGroup = S;
unicode = 0053;
},
{
glyphname = Scircumflex;
lastChange = "2016-11-25 19:43:40 +0000";
layers = (
{
background = {
paths = (
{
closed = 1;
nodes = (
"528 249 OFFCURVE",
"505 295 OFFCURVE",
"467 328 CURVE SMOOTH",
"434 356 OFFCURVE",
"406 367 OFFCURVE",
"340 377 CURVE SMOOTH",
"257 390 LINE SMOOTH",
"217 396 OFFCURVE",
"180 410 OFFCURVE",
"155 431 CURVE SMOOTH",
"130 452 OFFCURVE",
"119 484 OFFCURVE",
"119 525 CURVE SMOOTH",
"119 616 OFFCURVE",
"180 672 OFFCURVE",
"284 672 CURVE SMOOTH",
"368 672 OFFCURVE",
"415 646 OFFCURVE",
"457 606 CURVE",
"492 641 LINE",
"431 694 OFFCURVE",
"375 718 OFFCURVE",
"287 718 CURVE SMOOTH",
"150 718 OFFCURVE",
"66 642 OFFCURVE",
"66 523 CURVE SMOOTH",
"66 466 OFFCURVE",
"85 422 OFFCURVE",
"122 391 CURVE SMOOTH",
"153 364 OFFCURVE",
"195 348 OFFCURVE",
"249 340 CURVE SMOOTH",
"332 327 LINE SMOOTH",
"389 318 OFFCURVE",
"410 311 OFFCURVE",
"435 289 CURVE SMOOTH",
"462 266 OFFCURVE",
"474 232 OFFCURVE",
"474 189 CURVE SMOOTH",
"474 96 OFFCURVE",
"404 42 OFFCURVE",
"291 42 CURVE SMOOTH",
"206 42 OFFCURVE",
"153 62 OFFCURVE",
"89 126 CURVE",
"51 88 LINE",
"116 23 OFFCURVE",
"183 -6 OFFCURVE",
"288 -6 CURVE SMOOTH",
"437 -6 OFFCURVE",
"528 71 OFFCURVE",
"528 191 CURVE SMOOTH"
);
},
{
closed = 1;
nodes = (
"441 780 LINE",
"318 927 LINE",
"264 927 LINE",
"141 780 LINE",
"198 780 LINE",
"291 889 LINE",
"384 780 LINE"
);
}
);
};
components = (
{
name = S;
},
{
name = circumflex;
transform = "{1, 0, 0, 1, 76, 220}";
}
);
layerId = "3E7589AA-8194-470F-8E2F-13C1C581BE24";
width = 551;
},
{
background = {
paths = (
{
closed = 1;
nodes = (
"550 284 OFFCURVE",
"535 337 OFFCURVE",
"497 374 CURVE SMOOTH",
"467 404 OFFCURVE",
"421 424 OFFCURVE",
"357 433 CURVE SMOOTH",
"271 445 LINE SMOOTH",
"246 448 OFFCURVE",
"231 457 OFFCURVE",
"222 466 CURVE SMOOTH",
"211 477 OFFCURVE",
"208 490 OFFCURVE",
"208 499 CURVE SMOOTH",
"208 530 OFFCURVE",
"233 565 OFFCURVE",
"294 565 CURVE SMOOTH",
"351 565 OFFCURVE",
"392 560 OFFCURVE",
"429 523 CURVE",
"539 633 LINE",
"478 694 OFFCURVE",
"401 718 OFFCURVE",
"299 718 CURVE SMOOTH",
"137 718 OFFCURVE",
"39 623 OFFCURVE",
"39 493 CURVE SMOOTH",
"39 432 OFFCURVE",
"55 384 OFFCURVE",
"88 350 CURVE SMOOTH",
"120 317 OFFCURVE",
"168 296 OFFCURVE",
"231 287 CURVE SMOOTH",
"317 275 LINE SMOOTH",
"340 272 OFFCURVE",
"355 265 OFFCURVE",
"364 256 CURVE SMOOTH",
"374 245 OFFCURVE",
"378 231 OFFCURVE",
"378 214 CURVE SMOOTH",
"378 173 OFFCURVE",
"345 150 OFFCURVE",
"276 150 CURVE SMOOTH",
"219 150 OFFCURVE",
"154 163 OFFCURVE",
"117 200 CURVE",
"5 88 LINE",
"77 14 OFFCURVE",
"166 -6 OFFCURVE",
"275 -6 CURVE SMOOTH",
"425 -6 OFFCURVE",
"550 73 OFFCURVE",
"550 218 CURVE SMOOTH"
);
},
{
closed = 1;
nodes = (
"498 782 LINE",
"362 961 LINE",
"232 961 LINE",
"96 782 LINE",
"218 782 LINE",
"297 865 LINE",
"376 782 LINE"
);
}
);
};
components = (
{
name = S;
},
{
name = circumflex;
transform = "{1, 0, 0, 1, 38, 210}";
}
);
layerId = "BFFFD157-90D3-4B85-B99D-9A2F366F03CA";
width = 554;
},
{
components = (
{
name = S;
},
{
name = circumflex;
transform = "{1, 0, 0, 1, 95, 232}";
}
);
layerId = "4E6F1D76-CF39-4449-9239-DE310961C1DD";
width = 527;
}
);
leftKerningGroup = S;
rightKerningGroup = S;
unicode = 015C;
},
{
glyphname = Germandbls;
lastChange = "2016-11-25 19:43:40 +0000";
layers = (
{
background = {
paths = (
{
closed = 1;
nodes = (
"178 700 LINE",
"85 700 LINE",
"85 0 LINE",
"178 0 LINE"
);
},
{
closed = 1;
nodes = (
"625 700 LINE",
"532 700 LINE",
"532 0 LINE",
"625 0 LINE"
);
},
{
closed = 1;
nodes = (
"138 369 LINE",
"138 278 LINE",
"591 278 LINE",
"591 369 LINE"
);
}
);
};
layerId = "3E7589AA-8194-470F-8E2F-13C1C581BE24";
paths = (
{
closed = 1;
nodes = (
"178 0 LINE",
"178 609 LINE",
"508 609 LINE",
"485 652 LINE",
"320 369 LINE",
"320 308 LINE",
"376 299 OFFCURVE",
"430 286 OFFCURVE",
"470 268 CURVE SMOOTH",
"536 238 OFFCURVE",
"548 197 OFFCURVE",
"548 165 CURVE SMOOTH",
"548 111 OFFCURVE",
"516 79 OFFCURVE",
"447 79 CURVE SMOOTH",
"392 79 OFFCURVE",
"336 95 OFFCURVE",
"284 125 CURVE",
"260 37 LINE",
"319 2 OFFCURVE",
"383 -11 OFFCURVE",
"443 -11 CURVE SMOOTH",
"567 -11 OFFCURVE",
"641 48 OFFCURVE",
"641 164 CURVE SMOOTH",
"641 250 OFFCURVE",
"597 318 OFFCURVE",
"501 356 CURVE SMOOTH",
"466 370 OFFCURVE",
"429 380 OFFCURVE",
"391 386 CURVE",
"405 344 LINE",
"569 616 LINE",
"569 700 LINE",
"85 700 LINE",
"85 0 LINE"
);
}
);
width = 685;
},
{
background = {
paths = (
{
closed = 1;
nodes = (
"265 700 LINE",
"40 700 LINE",
"40 0 LINE",
"265 0 LINE"
);
},
{
closed = 1;
nodes = (
"690 700 LINE",
"465 700 LINE",
"465 0 LINE",
"690 0 LINE"
);
},
{
closed = 1;
nodes = (
"170 423 LINE",
"162 208 LINE",
"614 208 LINE",
"618 423 LINE"
);
}
);
};
layerId = "BFFFD157-90D3-4B85-B99D-9A2F366F03CA";
paths = (
{
closed = 1;
nodes = (
"265 0 LINE",
"265 503 LINE",
"442 503 LINE",
"415 562 LINE",
"313 387 LINE",
"313 258 LINE",
"367 254 OFFCURVE",
"409 246 OFFCURVE",
"438 234 CURVE SMOOTH",
"465 223 OFFCURVE",
"472 211 OFFCURVE",
"472 200 CURVE SMOOTH",
"472 183 OFFCURVE",
"455 179 OFFCURVE",
"432 179 CURVE SMOOTH",
"393 179 OFFCURVE",
"353 189 OFFCURVE",
"313 206 CURVE",
"299 15 LINE",
"351 -4 OFFCURVE",
"406 -13 OFFCURVE",
"461 -13 CURVE SMOOTH",
"598 -13 OFFCURVE",
"681 62 OFFCURVE",
"681 192 CURVE SMOOTH",
"681 309 OFFCURVE",
"626 359 OFFCURVE",
"578 387 CURVE SMOOTH",
"551 403 OFFCURVE",
"531 411 OFFCURVE",
"494 424 CURVE",
"499 345 LINE",
"612 526 LINE",
"612 700 LINE",
"40 700 LINE",
"40 0 LINE"
);
}
);
width = 697;
},
{
layerId = "4E6F1D76-CF39-4449-9239-DE310961C1DD";
paths = (
{
closed = 1;
nodes = (
"116 0 LINE",
"116 694 LINE",
"541 694 LINE",
"541 697 LINE",
"320 358 LINE",
"320 352 LINE",
"383 340 OFFCURVE",
"418 331 OFFCURVE",
"457 315 CURVE SMOOTH",
"549 275 OFFCURVE",
"571 219 OFFCURVE",
"571 157 CURVE SMOOTH",
"571 47 OFFCURVE",
"499 -3 OFFCURVE",
"376 -3 CURVE SMOOTH",
"342 -3 OFFCURVE",
"293 -1 OFFCURVE",
"236 15 CURVE",
"235 9 LINE",
"293 -6 OFFCURVE",
"340 -9 OFFCURVE",
"376 -9 CURVE SMOOTH",
"501 -9 OFFCURVE",
"577 44 OFFCURVE",
"577 158 CURVE SMOOTH",
"577 221 OFFCURVE",
"553 281 OFFCURVE",
"460 320 CURVE SMOOTH",
"422 336 OFFCURVE",
"383 346 OFFCURVE",
"324 358 CURVE",
"324 353 LINE",
"547 696 LINE",
"547 700 LINE",
"110 700 LINE",
"110 0 LINE"
);
}
);
width = 636;
}
);
leftMetricsKey = H;
rightMetricsKey = "=S*.8";
unicode = 1E9E;
},
{
glyphname = Schwa;
lastChange = "2016-11-25 19:43:40 +0000";
layers = (
{
background = {
paths = (
{
closed = 1;
nodes = (
"580 -12 OFFCURVE",
"707 113 OFFCURVE",
"707 350 CURVE SMOOTH",
"707 580 OFFCURVE",
"589 712 OFFCURVE",
"393 712 CURVE SMOOTH",
"197 712 OFFCURVE",
"71 585 OFFCURVE",
"71 342 CURVE SMOOTH",
"71 114 OFFCURVE",
"191 -12 OFFCURVE",
"384 -12 CURVE SMOOTH"
);
},
{
closed = 1;
nodes = (
"240 78 OFFCURVE",
"164 172 OFFCURVE",
"164 349 CURVE SMOOTH",
"164 532 OFFCURVE",
"245 621 OFFCURVE",
"388 621 CURVE SMOOTH",
"534 621 OFFCURVE",
"614 529 OFFCURVE",
"614 343 CURVE SMOOTH",
"614 167 OFFCURVE",
"535 78 OFFCURVE",
"390 78 CURVE SMOOTH"
);
},
{
closed = 1;
nodes = (
"194 700 LINE",
"101 700 LINE",
"101 0 LINE",
"194 0 LINE"
);
},
{
closed = 1;
nodes = (
"155 700 LINE",
"153 611 LINE",
"507 611 LINE",
"507 700 LINE"
);
},
{
closed = 1;
nodes = (
"155 89 LINE",
"153 0 LINE",
"517 0 LINE",
"517 89 LINE"
);
},
{
closed = 1;
nodes = (
"155 367 LINE",
"153 278 LINE",
"487 278 LINE",
"487 367 LINE"
);
}
);
};
layerId = "3E7589AA-8194-470F-8E2F-13C1C581BE24";
paths = (
{
closed = 1;
nodes = (
"105 278 LINE",
"586 278 LINE",
"584 367 LINE",
"32 367 LINE",
"98 480 LINE",
"69 397 OFFCURVE",
"60 336 OFFCURVE",
"60 284 CURVE SMOOTH",
"60 118 OFFCURVE",
"127 -11 OFFCURVE",
"333 -11 CURVE SMOOTH",
"537 -11 OFFCURVE",
"635 122 OFFCURVE",
"635 355 CURVE SMOOTH",
"635 608 OFFCURVE",
"520 710 OFFCURVE",
"298 710 CURVE SMOOTH",
"214 710 OFFCURVE",
"137 694 OFFCURVE",
"64 663 CURVE",
"83 577 LINE",
"147 603 OFFCURVE",
"226 618 OFFCURVE",
"299 618 CURVE SMOOTH",
"456 618 OFFCURVE",
"543 559 OFFCURVE",
"543 344 CURVE SMOOTH",
"543 182 OFFCURVE",
"487 82 OFFCURVE",
"343 82 CURVE SMOOTH",
"218 82 OFFCURVE",
"153 155 OFFCURVE",
"153 266 CURVE SMOOTH",
"153 286 OFFCURVE",
"155 309 OFFCURVE",
"161 333 CURVE"
);
}
);
width = 690;
},
{
background = {
paths = (
{
closed = 1;
nodes = (
"230 288 LINE",
"538 288 LINE",
"532 445 LINE",
"55 445 LINE",
"45 392 OFFCURVE",
"39 343 OFFCURVE",
"39 289 CURVE SMOOTH",
"39 99 OFFCURVE",
"125 -15 OFFCURVE",
"335 -15 CURVE SMOOTH",
"559 -15 OFFCURVE",
"676 120 OFFCURVE",
"676 352 CURVE SMOOTH",
"676 608 OFFCURVE",
"530 713 OFFCURVE",
"305 713 CURVE SMOOTH",
"227 713 OFFCURVE",
"129 700 OFFCURVE",
"53 667 CURVE",
"83 480 LINE",
"142 497 OFFCURVE",
"203 504 OFFCURVE",
"250 504 CURVE SMOOTH",
"375 504 OFFCURVE",
"391 442 OFFCURVE",
"391 340 CURVE SMOOTH",
"391 229 OFFCURVE",
"382 190 OFFCURVE",
"338 190 CURVE SMOOTH",
"308 190 OFFCURVE",
"293 209 OFFCURVE",
"293 264 CURVE SMOOTH",
"293 279 OFFCURVE",
"295 296 OFFCURVE",
"299 310 CURVE"
);
}
);
};
layerId = "BFFFD157-90D3-4B85-B99D-9A2F366F03CA";
paths = (
{
closed = 1;
nodes = (
"125 261 LINE",
"563 261 LINE",
"551 424 LINE",
"-10 424 LINE",
"84 521 LINE",
"54 464 OFFCURVE",
"35 379 OFFCURVE",
"35 295 CURVE SMOOTH",
"35 118 OFFCURVE",
"111 -13 OFFCURVE",
"344 -13 CURVE SMOOTH",
"591 -13 OFFCURVE",
"674 151 OFFCURVE",
"674 352 CURVE SMOOTH",
"674 626 OFFCURVE",
"517 711 OFFCURVE",
"299 711 CURVE SMOOTH",
"211 711 OFFCURVE",
"131 698 OFFCURVE",
"53 667 CURVE",
"83 480 LINE",
"143 496 OFFCURVE",
"198 503 OFFCURVE",
"250 503 CURVE SMOOTH",
"338 503 OFFCURVE",
"449 488 OFFCURVE",
"449 328 CURVE SMOOTH",
"449 232 OFFCURVE",
"426 188 OFFCURVE",
"358 188 CURVE SMOOTH",
"288 188 OFFCURVE",
"260 219 OFFCURVE",
"260 284 CURVE SMOOTH",
"260 301 OFFCURVE",
"263 320 OFFCURVE",
"267 341 CURVE"
);
}
);
width = 704;
},
{
associatedMasterId = "3E7589AA-8194-470F-8E2F-13C1C581BE24";
background = {
paths = (
{
closed = 1;
nodes = (
"548 -13 OFFCURVE",
"670 106 OFFCURVE",
"670 342 CURVE SMOOTH",
"670 590 OFFCURVE",
"543 713 OFFCURVE",
"305 713 CURVE SMOOTH",
"215 713 OFFCURVE",
"151 697 OFFCURVE",
"105 671 CURVE",
"139 523 LINE",
"181 542 OFFCURVE",
"232 555 OFFCURVE",
"297 555 CURVE SMOOTH",
"446 555 OFFCURVE",
"507 482 OFFCURVE",
"507 344 CURVE SMOOTH",
"507 208 OFFCURVE",
"446 140 OFFCURVE",
"303 140 CURVE SMOOTH",
"259 140 OFFCURVE",
"217 145 OFFCURVE",
"183 157 CURVE",
"217 67 LINE",
"217 259 LINE",
"344 259 LINE",
"344 399 LINE",
"77 399 LINE",
"77 30 LINE",
"137 6 OFFCURVE",
"213 -13 OFFCURVE",
"313 -13 CURVE SMOOTH"
);
}
);
};
layerId = "8FFEE83F-4D5F-43AE-9670-509FF659BDB9";
name = "{155, 100}";
paths = (
{
closed = 1;
nodes = (
"124 263 LINE",
"583 263 LINE",
"576 405 LINE",
"20 405 LINE",
"100 501 LINE",
"70 431 OFFCURVE",
"56 358 OFFCURVE",
"56 290 CURVE SMOOTH",
"56 118 OFFCURVE",
"128 -12 OFFCURVE",
"347 -12 CURVE SMOOTH",
"573 -12 OFFCURVE",
"663 137 OFFCURVE",
"663 354 CURVE SMOOTH",
"663 617 OFFCURVE",
"527 711 OFFCURVE",
"307 711 CURVE SMOOTH",
"221 711 OFFCURVE",
"143 696 OFFCURVE",
"67 665 CURVE",
"92 521 LINE",
"154 541 OFFCURVE",
"221 551 OFFCURVE",
"283 551 CURVE SMOOTH",
"406 551 OFFCURVE",
"505 506 OFFCURVE",
"505 336 CURVE SMOOTH",
"505 214 OFFCURVE",
"465 146 OFFCURVE",
"359 146 CURVE SMOOTH",
"262 146 OFFCURVE",
"215 195 OFFCURVE",
"215 278 CURVE SMOOTH",
"215 296 OFFCURVE",
"218 316 OFFCURVE",
"223 337 CURVE"
);
}
);
width = 710;
},
{
layerId = "4E6F1D76-CF39-4449-9239-DE310961C1DD";
paths = (
{
closed = 1;
nodes = (
"105 324 LINE",
"622 324 LINE",
"622 330 LINE",
"79 330 LINE",
"105 343 LINE",
"97 297 OFFCURVE",
"95 280 OFFCURVE",
"95 247 CURVE SMOOTH",
"95 123 OFFCURVE",
"152 -10 OFFCURVE",
"343 -10 CURVE SMOOTH",
"522 -10 OFFCURVE",
"626 96 OFFCURVE",
"626 352 CURVE SMOOTH",
"626 581 OFFCURVE",
"539 710 OFFCURVE",
"332 710 CURVE SMOOTH",
"237 710 OFFCURVE",
"174 688 OFFCURVE",
"122 666 CURVE",
"123 660 LINE",
"180 685 OFFCURVE",
"247 704 OFFCURVE",
"333 704 CURVE SMOOTH",
"535 704 OFFCURVE",
"620 573 OFFCURVE",
"620 352 CURVE SMOOTH",
"620 99 OFFCURVE",
"517 -4 OFFCURVE",
"344 -4 CURVE SMOOTH",
"155 -4 OFFCURVE",
"101 129 OFFCURVE",
"101 246 CURVE SMOOTH",
"101 276 OFFCURVE",
"104 299 OFFCURVE",
"109 328 CURVE"
);
}
);
width = 710;
}
);
leftKerningGroup = Schwa;
leftMetricsKey = "=|G";
rightKerningGroup = O;
rightMetricsKey = O;
unicode = 018F;
},
{
glyphname = T;
lastChange = "2016-11-25 19:43:40 +0000";
layers = (
{
anchors = (
{
name = bottom;
position = "{321, 0}";
},
{
name = center;
position = "{321, 350}";
},
{
name = stroke;
position = "{321, 269}";
},
{
name = top;
position = "{321, 700}";
},
{
name = topright;
position = "{632, 700}";
}
);
layerId = "BFFFD157-90D3-4B85-B99D-9A2F366F03CA";
paths = (
{
closed = 1;
nodes = (
"434 626 LINE",
"209 626 LINE",
"209 0 LINE",
"434 0 LINE"
);
},
{
closed = 1;
nodes = (
"25 700 LINE",
"25 485 LINE",
"617 485 LINE",
"617 700 LINE"
);
}
);
width = 642;
},
{
anchors = (
{
name = bottom;
position = "{307, 0}";
},
{
name = center;
position = "{307, 350}";
},
{
name = stroke;
position = "{306, 319}";
},
{
name = top;
position = "{307, 700}";
},
{
name = topright;
position = "{613, 700}";
}
);
background = {
paths = (
{
closed = 1;
nodes = (
"150 700 LINE",
"57 700 LINE",
"57 0 LINE",
"150 0 LINE"
);
},
{
closed = 1;
nodes = (
"557 700 LINE",
"464 700 LINE",
"464 0 LINE",
"557 0 LINE"
);
},
{
closed = 1;
nodes = (
"111 369 LINE",
"109 278 LINE",
"521 278 LINE",
"525 369 LINE"
);
}
);
};
hints = (
{
horizontal = 1;
origin = "{0, 2}";
type = Anchor;
options = 4;
},
{
horizontal = 1;
origin = "{1, 0}";
target = "{1, 1}";
type = TTStem;
options = 4;
}
);
layerId = "3E7589AA-8194-470F-8E2F-13C1C581BE24";
paths = (
{
closed = 1;
nodes = (
"353 700 LINE",
"260 700 LINE",
"260 0 LINE",
"353 0 LINE"
);
},
{
closed = 1;
nodes = (
"30 700 LINE",
"30 609 LINE",
"583 609 LINE",
"583 700 LINE"
);
}
);
width = 613;
},
{
anchors = (
{
name = bottom;
position = "{306, 0}";
},
{
name = center;
position = "{306, 350}";
},
{
name = stroke;
position = "{306, 319}";
},
{
name = top;
position = "{306, 700}";
},
{
name = topright;
position = "{611, 700}";
}
);
hints = (
{
horizontal = 1;
origin = "{0, 2}";
type = Anchor;
options = 4;
},
{
horizontal = 1;
origin = "{1, 0}";
target = "{1, 1}";
type = TTStem;
options = 4;
}
);
layerId = "4E6F1D76-CF39-4449-9239-DE310961C1DD";
paths = (
{
closed = 1;
nodes = (
"309 696 LINE",
"303 696 LINE",
"303 0 LINE",
"309 0 LINE"
);
},
{
closed = 1;
nodes = (
"42 700 LINE",
"42 694 LINE",
"569 694 LINE",
"569 700 LINE"
);
}
);
width = 611;
}
);
leftKerningGroup = T;
rightKerningGroup = T;
unicode = 0054;
},
{
glyphname = U;
lastChange = "2016-11-25 19:43:40 +0000";
layers = (
{
anchors = (
{
name = bottom;
position = "{351, 0}";
},
{
name = horn;
position = "{663, 630}";
},
{
name = ogonek;
position = "{449, 0}";
},
{
name = top;
position = "{353, 700}";
},
{
name = topright;
position = "{690, 700}";
}
);
layerId = "BFFFD157-90D3-4B85-B99D-9A2F366F03CA";
paths = (
{
closed = 1;
nodes = (
"36 300 LINE SMOOTH",
"36 91 OFFCURVE",
"154 -15 OFFCURVE",
"350 -15 CURVE SMOOTH",
"564 -15 OFFCURVE",
"665 100 OFFCURVE",
"665 300 CURVE SMOOTH",
"665 700 LINE",
"429 700 LINE",
"429 302 LINE SMOOTH",
"429 249 OFFCURVE",
"416 210 OFFCURVE",
"356 210 CURVE SMOOTH",
"299 210 OFFCURVE",
"282 249 OFFCURVE",
"282 302 CURVE SMOOTH",
"282 700 LINE",
"36 700 LINE"
);
}
);
width = 701;
},
{
anchors = (
{
name = bottom;
position = "{339, 0}";
},
{
name = horn;
position = "{600, 630}";
},
{
name = ogonek;
position = "{422, 0}";
},
{
name = top;
position = "{339, 700}";
},
{
name = topright;
position = "{662, 700}";
}
);
background = {
paths = (
{
closed = 1;
nodes = (
"260 0 LINE",
"410 0 LINE",
"624 700 LINE",
"530 700 LINE",
"345 90 LINE",
"330 90 LINE",
"143 700 LINE",
"47 700 LINE"
);
}
);
};
hints = (
{
horizontal = 1;
origin = "{0, 3}";
target = "{0, 12}";
type = TTStem;
options = 4;
},
{
horizontal = 1;
origin = "{0, 17}";
type = Anchor;
options = 4;
},
{
horizontal = 1;
origin = "{0, 17}";
target = "{0, 8}";
type = Align;
options = 4;
}
);
layerId = "3E7589AA-8194-470F-8E2F-13C1C581BE24";
paths = (
{
closed = 1;
nodes = (
"77 290 LINE SMOOTH",
"77 84 OFFCURVE",
"167 -12 OFFCURVE",
"339 -12 CURVE SMOOTH",
"523 -12 OFFCURVE",
"601 92 OFFCURVE",
"601 290 CURVE SMOOTH",
"601 700 LINE",
"510 700 LINE",
"510 280 LINE SMOOTH",
"510 164 OFFCURVE",
"481 79 OFFCURVE",
"345 79 CURVE SMOOTH",
"214 79 OFFCURVE",
"170 164 OFFCURVE",
"170 280 CURVE SMOOTH",
"170 700 LINE",
"77 700 LINE"
);
}
);
width = 678;
},
{
anchors = (
{
name = bottom;
position = "{341, 0}";
},
{
name = horn;
position = "{561, 630}";
},
{
name = ogonek;
position = "{406, 0}";
},
{
name = top;
position = "{341, 700}";
},
{
name = topright;
position = "{639, 700}";
}
);
hints = (
{
horizontal = 1;
origin = "{0, 3}";
target = "{0, 12}";
type = TTStem;
options = 4;
},
{
horizontal = 1;
origin = "{0, 17}";
type = Anchor;
options = 4;
},
{
horizontal = 1;
origin = "{0, 17}";
target = "{0, 8}";
type = Align;
options = 4;
}
);
layerId = "4E6F1D76-CF39-4449-9239-DE310961C1DD";
paths = (
{
closed = 1;
nodes = (
"99 243 LINE SMOOTH",
"99 69 OFFCURVE",
"182 -10 OFFCURVE",
"332 -10 CURVE SMOOTH",
"498 -10 OFFCURVE",
"561 75 OFFCURVE",
"561 243 CURVE SMOOTH",
"561 700 LINE",
"555 700 LINE",
"555 245 LINE SMOOTH",
"555 74 OFFCURVE",
"492 -4 OFFCURVE",
"332 -4 CURVE SMOOTH",
"185 -4 OFFCURVE",
"105 74 OFFCURVE",
"105 245 CURVE SMOOTH",
"105 700 LINE",
"99 700 LINE"
);
}
);
width = 660;
}
);
leftKerningGroup = U;
leftMetricsKey = "=H*.9";
rightKerningGroup = U;
rightMetricsKey = "=H*.9";
unicode = 0055;
},
{
glyphname = Ubreve;
lastChange = "2016-11-25 19:43:40 +0000";
layers = (
{
background = {
paths = (
{
closed = 1;
nodes = (
"588 712 LINE",
"534 712 LINE",
"534 238 LINE SMOOTH",
"534 120 OFFCURVE",
"459 42 OFFCURVE",
"344 42 CURVE SMOOTH",
"229 42 OFFCURVE",
"154 120 OFFCURVE",
"154 238 CURVE SMOOTH",
"154 712 LINE",
"100 712 LINE",
"100 231 LINE SMOOTH",
"100 92 OFFCURVE",
"201 -6 OFFCURVE",
"344 -6 CURVE SMOOTH",
"487 -6 OFFCURVE",
"588 92 OFFCURVE",
"588 231 CURVE SMOOTH"
);
},
{
closed = 1;
nodes = (
"464 927 LINE",
"456 871 OFFCURVE",
"413 837 OFFCURVE",
"344 837 CURVE SMOOTH",
"275 837 OFFCURVE",
"232 871 OFFCURVE",
"224 927 CURVE",
"179 927 LINE",
"188 842 OFFCURVE",
"236 792 OFFCURVE",
"344 792 CURVE SMOOTH",
"452 792 OFFCURVE",
"500 842 OFFCURVE",
"509 927 CURVE"
);
}
);
};
components = (
{
name = U;
},
{
name = breve;
transform = "{1, 0, 0, 1, 142, 220}";
}
);
layerId = "3E7589AA-8194-470F-8E2F-13C1C581BE24";
width = 678;
},
{
background = {
paths = (
{
closed = 1;
nodes = (
"600 712 LINE",
"425 712 LINE",
"425 254 LINE SMOOTH",
"425 188 OFFCURVE",
"387 150 OFFCURVE",
"329 150 CURVE SMOOTH",
"271 150 OFFCURVE",
"235 188 OFFCURVE",
"235 254 CURVE SMOOTH",
"235 712 LINE",
"60 712 LINE",
"60 250 LINE SMOOTH",
"60 94 OFFCURVE",
"181 -6 OFFCURVE",
"329 -6 CURVE SMOOTH",
"477 -6 OFFCURVE",
"600 94 OFFCURVE",
"600 250 CURVE"
);
},
{
closed = 1;
nodes = (
"387 931 LINE",
"384 894 OFFCURVE",
"354 884 OFFCURVE",
"329 884 CURVE SMOOTH",
"304 884 OFFCURVE",
"274 894 OFFCURVE",
"271 931 CURVE",
"165 931 LINE",
"168 813 OFFCURVE",
"252 774 OFFCURVE",
"329 774 CURVE SMOOTH",
"406 774 OFFCURVE",
"490 813 OFFCURVE",
"493 931 CURVE"
);
}
);
};
components = (
{
name = U;
},
{
name = breve;
transform = "{1, 0, 0, 1, 99, 210}";
}
);
layerId = "BFFFD157-90D3-4B85-B99D-9A2F366F03CA";
width = 701;
},
{
components = (
{
name = U;
},
{
name = breve;
transform = "{1, 0, 0, 1, 168, 232}";
}
);
layerId = "4E6F1D76-CF39-4449-9239-DE310961C1DD";
width = 660;
}
);
leftKerningGroup = U;
rightKerningGroup = U;
unicode = 016C;
},
{
glyphname = V;
lastChange = "2016-11-25 19:43:40 +0000";
layers = (
{
anchors = (
{
name = bottom;
position = "{360, 0}";
},
{
name = top;
position = "{360, 700}";
}
);
background = {
paths = (
{
closed = 1;
nodes = (
"183 0 LINE",
"533 0 LINE",
"718 700 LINE",
"485 700 LINE",
"382 230 LINE",
"353 230 LINE",
"247 700 LINE",
"5 700 LINE"
);
}
);
};
layerId = "BFFFD157-90D3-4B85-B99D-9A2F366F03CA";
paths = (
{
closed = 1;
nodes = (
"176 0 LINE",
"540 0 LINE",
"716 700 LINE",
"480 700 LINE",
"379 230 LINE",
"354 230 LINE",
"255 700 LINE",
"5 700 LINE"
);
}
);
width = 721;
},
{
anchors = (
{
name = bottom;
position = "{309, 0}";
},
{
name = top;
position = "{309, 700}";
}
);
background = {
paths = (
{
closed = 1;
nodes = (
"225 0 LINE",
"389 0 LINE",
"597 700 LINE",
"503 700 LINE",
"324 90 LINE",
"295 90 LINE",
"116 700 LINE",
"20 700 LINE"
);
},
{
closed = 1;
nodes = (
"487 431 LINE",
"489 522 LINE",
"127 522 LINE",
"123 431 LINE"
);
}
);
};
hints = (
{
horizontal = 1;
origin = "{0, 0}";
target = "{0, 5}";
type = TTStem;
options = 4;
},
{
horizontal = 1;
origin = "{0, 7}";
type = Anchor;
options = 4;
},
{
horizontal = 1;
origin = "{0, 7}";
target = "{0, 3}";
type = Align;
options = 4;
}
);
layerId = "3E7589AA-8194-470F-8E2F-13C1C581BE24";
paths = (
{
closed = 1;
nodes = (
"229 0 LINE",
"387 0 LINE",
"597 700 LINE",
"503 700 LINE",
"322 93 LINE",
"299 93 LINE",
"116 700 LINE",
"20 700 LINE"
);
}
);
width = 617;
},
{
anchors = (
{
name = bottom;
position = "{278, 0}";
},
{
name = top;
position = "{278, 700}";
}
);
background = {
paths = (
{
closed = 1;
nodes = (
"266 0 LINE",
"286 0 LINE",
"522 700 LINE",
"515 700 LINE",
"282 9 LINE",
"270 9 LINE",
"39 700 LINE",
"32 700 LINE"
);
}
);
};
hints = (
{
horizontal = 1;
origin = "{0, 0}";
target = "{0, 5}";
type = TTStem;
options = 4;
},
{
horizontal = 1;
origin = "{0, 7}";
type = Anchor;
options = 4;
},
{
horizontal = 1;
origin = "{0, 7}";
target = "{0, 3}";
type = Align;
options = 4;
}
);
layerId = "4E6F1D76-CF39-4449-9239-DE310961C1DD";
paths = (
{
closed = 1;
nodes = (
"266 0 LINE",
"286 0 LINE",
"522 700 LINE",
"515 700 LINE",
"281 6 LINE",
"271 6 LINE",
"39 700 LINE",
"32 700 LINE"
);
}
);
width = 554;
}
);
leftKerningGroup = V;
leftMetricsKey = A;
rightKerningGroup = V;
rightMetricsKey = A;
unicode = 0056;
},
{
glyphname = W;
lastChange = "2016-11-25 19:43:40 +0000";
layers = (
{
anchors = (
{
name = bottom;
position = "{547, 0}";
},
{
name = top;
position = "{547, 700}";
},
{
name = topright;
position = "{1084, 700}";
}
);
layerId = "BFFFD157-90D3-4B85-B99D-9A2F366F03CA";
paths = (
{
closed = 1;
nodes = (
"797 230 LINE",
"769 230 LINE",
"700 690 LINE",
"401 690 LINE",
"331 230 LINE",
"303 230 LINE",
"252 700 LINE",
"10 700 LINE",
"103 0 LINE",
"479 0 LINE",
"535 355 LINE",
"550 355 LINE",
"605 0 LINE",
"990 0 LINE",
"1084 700 LINE",
"838 700 LINE"
);
}
);
width = 1094;
},
{
anchors = (
{
name = bottom;
position = "{479, 0}";
},
{
name = top;
position = "{479, 700}";
},
{
name = topright;
position = "{947, 700}";
}
);
hints = (
{
horizontal = 1;
origin = "{0, 8}";
target = "{0, 5}";
type = TTStem;
options = 4;
},
{
horizontal = 1;
origin = "{0, 7}";
type = Anchor;
options = 4;
},
{
horizontal = 1;
origin = "{0, 10}";
target = "{0, 3}";
type = TTStem;
options = 4;
},
{
horizontal = 1;
origin = "{0, 5}";
target = "{0, 1}";
type = Align;
options = 4;
},
{
horizontal = 1;
origin = "{0, 8}";
target = "{0, 12}";
type = Align;
options = 4;
},
{
horizontal = 1;
origin = "{0, 7}";
target = "{0, 15}";
type = Align;
options = 4;
},
{
horizontal = 1;
origin = "{0, 7}";
target = "{0, 3}";
type = Align;
options = 4;
}
);
layerId = "3E7589AA-8194-470F-8E2F-13C1C581BE24";
paths = (
{
closed = 1;
nodes = (
"711 93 LINE",
"690 93 LINE",
"532 690 LINE",
"424 690 LINE",
"271 93 LINE",
"250 93 LINE",
"126 700 LINE",
"30 700 LINE",
"183 0 LINE",
"333 0 LINE",
"472 545 LINE",
"478 545 LINE",
"623 0 LINE",
"773 0 LINE",
"927 700 LINE",
"833 700 LINE"
);
}
);
width = 957;
},
{
anchors = (
{
name = bottom;
position = "{460, 0}";
},
{
name = top;
position = "{460, 700}";
},
{
name = topright;
position = "{888, 700}";
}
);
background = {
paths = (
{
closed = 0;
nodes = (
"668 6 LINE",
"655 6 LINE"
);
},
{
closed = 0;
nodes = (
"650 0 LINE",
"673 0 LINE"
);
}
);
};
hints = (
{
horizontal = 1;
origin = "{0, 8}";
target = "{0, 5}";
type = TTStem;
options = 4;
},
{
horizontal = 1;
origin = "{0, 7}";
type = Anchor;
options = 4;
},
{
horizontal = 1;
origin = "{0, 10}";
target = "{0, 3}";
type = TTStem;
options = 4;
},
{
horizontal = 1;
origin = "{0, 5}";
target = "{0, 1}";
type = Align;
options = 4;
},
{
horizontal = 1;
origin = "{0, 8}";
target = "{0, 12}";
type = Align;
options = 4;
},
{
horizontal = 1;
origin = "{0, 7}";
target = "{0, 15}";
type = Align;
options = 4;
},
{
horizontal = 1;
origin = "{0, 7}";
target = "{0, 3}";
type = Align;
options = 4;
}
);
layerId = "4E6F1D76-CF39-4449-9239-DE310961C1DD";
paths = (
{
closed = 1;
nodes = (
"667 6 LINE",
"655 6 LINE",
"470 678 LINE",
"456 678 LINE",
"270 6 LINE",
"257 6 LINE",
"54 700 LINE",
"47 700 LINE",
"252 0 LINE",
"275 0 LINE",
"461 672 LINE",
"465 672 LINE",
"650 0 LINE",
"672 0 LINE",
"872 700 LINE",
"866 700 LINE"
);
}
);
width = 921;
}
);
leftKerningGroup = W;
rightKerningGroup = W;
unicode = 0057;
},
{
glyphname = X;
lastChange = "2016-11-25 19:43:40 +0000";
layers = (
{
anchors = (
{
name = bottom;
position = "{343, 0}";
},
{
name = top;
position = "{363, 700}";
}
);
background = {
paths = (
{
closed = 1;
nodes = (
"710 700 LINE",
"470 700 LINE",
"386 432 LINE",
"371 432 LINE",
"286 700 LINE",
"23 700 LINE",
"149 359 LINE",
"9 0 LINE",
"265 0 LINE",
"327 217 LINE",
"342 217 LINE",
"420 0 LINE",
"698 0 LINE",
"576 329 LINE"
);
}
);
};
layerId = "BFFFD157-90D3-4B85-B99D-9A2F366F03CA";
paths = (
{
closed = 1;
nodes = (
"700 700 LINE",
"450 700 LINE",
"367 442 LINE",
"352 442 LINE",
"276 700 LINE",
"26 700 LINE",
"156 334 LINE",
"5 0 LINE",
"265 0 LINE",
"337 208 LINE",
"352 208 LINE",
"420 0 LINE",
"698 0 LINE",
"554 351 LINE"
);
}
);
width = 705;
},
{
anchors = (
{
name = bottom;
position = "{285, 0}";
},
{
name = top;
position = "{285, 700}";
}
);
background = {
paths = (
{
closed = 1;
nodes = (
"539 700 LINE",
"438 700 LINE",
"303 401 LINE",
"288 401 LINE",
"142 700 LINE",
"34 700 LINE",
"216 356 LINE",
"20 0 LINE",
"126 0 LINE",
"266 272 LINE",
"281 272 LINE",
"435 0 LINE",
"549 0 LINE",
"350 328 LINE"
);
}
);
};
hints = (
{
horizontal = 1;
origin = "{0, 7}";
type = Anchor;
options = 4;
},
{
horizontal = 1;
origin = "{0, 9}";
target = "{0, 3}";
type = TTStem;
options = 4;
},
{
horizontal = 1;
origin = "{0, 5}";
type = Anchor;
options = 4;
},
{
horizontal = 1;
origin = "{0, 5}";
target = "{0, 1}";
type = Align;
options = 4;
},
{
horizontal = 1;
origin = "{0, 7}";
target = "{0, 11}";
type = Align;
options = 4;
}
);
layerId = "3E7589AA-8194-470F-8E2F-13C1C581BE24";
paths = (
{
closed = 1;
nodes = (
"539 700 LINE",
"438 700 LINE",
"293 400 LINE",
"278 400 LINE",
"142 700 LINE",
"34 700 LINE",
"216 344 LINE",
"20 0 LINE",
"126 0 LINE",
"275 275 LINE",
"290 275 LINE",
"435 0 LINE",
"549 0 LINE",
"351 337 LINE"
);
}
);
width = 569;
},
{
anchors = (
{
name = bottom;
position = "{269, 0}";
},
{
name = top;
position = "{269, 700}";
}
);
hints = (
{
horizontal = 1;
origin = "{0, 7}";
type = Anchor;
options = 4;
},
{
horizontal = 1;
origin = "{0, 9}";
target = "{0, 3}";
type = TTStem;
options = 4;
},
{
horizontal = 1;
origin = "{0, 5}";
type = Anchor;
options = 4;
},
{
horizontal = 1;
origin = "{0, 5}";
target = "{0, 1}";
type = Align;
options = 4;
},
{
horizontal = 1;
origin = "{0, 7}";
target = "{0, 11}";
type = Align;
options = 4;
}
);
layerId = "4E6F1D76-CF39-4449-9239-DE310961C1DD";
paths = (
{
closed = 1;
nodes = (
"484 700 LINE",
"476 700 LINE",
"272 358 LINE",
"269 358 LINE",
"52 700 LINE",
"45 700 LINE",
"263 355 LINE",
"32 0 LINE",
"39 0 LINE",
"266 348 LINE",
"269 348 LINE",
"501 0 LINE",
"508 0 LINE",
"275 351 LINE"
);
}
);
width = 540;
}
);
leftKerningGroup = X;
leftMetricsKey = A;
rightKerningGroup = X;
rightMetricsKey = A;
unicode = 0058;
},
{
glyphname = Xdotaccent;
lastChange = "2016-11-25 19:43:40 +0000";
layers = (
{
background = {
paths = (
{
closed = 1;
nodes = (
"514 0 LINE",
"294 365 LINE",
"498 712 LINE",
"436 712 LINE",
"265 413 LINE",
"95 712 LINE",
"32 712 LINE",
"236 365 LINE",
"18 0 LINE",
"79 0 LINE",
"265 317 LINE",
"451 0 LINE"
);
},
{
closed = 1;
nodes = (
"296 800 LINE",
"296 863 LINE",
"234 863 LINE",
"234 800 LINE"
);
}
);
};
components = (
{
name = X;
},
{
name = dotaccent;
transform = "{1, 0, 0, 1, 187, 220}";
}
);
layerId = "3E7589AA-8194-470F-8E2F-13C1C581BE24";
width = 569;
},
{
background = {
paths = (
{
closed = 1;
nodes = (
"634 0 LINE",
"412 365 LINE",
"620 712 LINE",
"421 712 LINE",
"317 511 LINE",
"213 712 LINE",
"14 712 LINE",
"222 365 LINE",
"0 0 LINE",
"200 0 LINE",
"317 219 LINE",
"434 0 LINE"
);
},
{
closed = 1;
nodes = (
"387 785 LINE",
"387 923 LINE",
"249 923 LINE",
"249 785 LINE"
);
}
);
};
components = (
{
name = X;
},
{
name = dotaccent;
transform = "{1, 0, 0, 1, 202, 210}";
}
);
layerId = "BFFFD157-90D3-4B85-B99D-9A2F366F03CA";
width = 705;
},
{
components = (
{
name = X;
},
{
name = dotaccent;
transform = "{1, 0, 0, 1, 212, 232}";
}
);
layerId = "4E6F1D76-CF39-4449-9239-DE310961C1DD";
width = 540;
}
);
leftKerningGroup = X;
rightKerningGroup = X;
unicode = 1E8A;
},
{
glyphname = Y;
lastChange = "2016-11-25 19:43:40 +0000";
layers = (
{
anchors = (
{
name = bottom;
position = "{333, 0}";
},
{
name = top;
position = "{353, 700}";
},
{
name = topright;
position = "{662, 700}";
}
);
background = {
paths = (
{
closed = 1;
nodes = (
"159 0 LINE",
"515 0 LINE",
"682 700 LINE",
"456 700 LINE",
"362 210 LINE",
"347 210 LINE",
"249 700 LINE",
"-7 700 LINE"
);
}
);
};
layerId = "BFFFD157-90D3-4B85-B99D-9A2F366F03CA";
paths = (
{
closed = 1;
nodes = (
"237 170 LINE",
"458 170 LINE",
"679 700 LINE",
"443 700 LINE",
"358 455 LINE",
"343 455 LINE",
"259 700 LINE",
"3 700 LINE"
);
},
{
closed = 1;
nodes = (
"458 205 LINE",
"237 205 LINE",
"229 0 LINE",
"466 0 LINE"
);
}
);
width = 682;
},
{
anchors = (
{
name = bottom;
position = "{299, 0}";
},
{
name = top;
position = "{299, 700}";
},
{
name = topright;
position = "{607, 700}";
}
);
hints = (
{
horizontal = 1;
origin = "{1, 2}";
type = Anchor;
options = 4;
},
{
horizontal = 1;
origin = "{0, 7}";
type = Anchor;
options = 4;
},
{
horizontal = 1;
origin = "{0, 7}";
target = "{0, 3}";
type = Align;
options = 4;
}
);
layerId = "3E7589AA-8194-470F-8E2F-13C1C581BE24";
paths = (
{
closed = 1;
nodes = (
"266 179 LINE",
"334 179 LINE",
"587 700 LINE",
"488 700 LINE",
"310 324 LINE",
"295 324 LINE",
"112 700 LINE",
"10 700 LINE"
);
},
{
closed = 1;
nodes = (
"341 280 LINE",
"258 280 LINE",
"253 0 LINE",
"346 0 LINE"
);
}
);
width = 597;
},
{
anchors = (
{
name = bottom;
position = "{271, 0}";
},
{
name = top;
position = "{270, 700}";
},
{
name = topright;
position = "{541, 700}";
}
);
hints = (
{
horizontal = 1;
origin = "{1, 2}";
type = Anchor;
options = 4;
},
{
horizontal = 1;
origin = "{0, 7}";
type = Anchor;
options = 4;
},
{
horizontal = 1;
origin = "{0, 7}";
target = "{0, 3}";
type = Align;
options = 4;
}
);
layerId = "4E6F1D76-CF39-4449-9239-DE310961C1DD";
paths = (
{
closed = 1;
nodes = (
"275 208 LINE",
"271 208 LINE",
"530 700 LINE",
"523 700 LINE",
"275 228 LINE",
"271 228 LINE",
"23 700 LINE",
"16 700 LINE"
);
},
{
closed = 1;
nodes = (
"276 225 LINE",
"270 225 LINE",
"269 0 LINE",
"275 0 LINE"
);
}
);
width = 546;
}
);
leftKerningGroup = Y;
leftMetricsKey = "=A*.5";
rightKerningGroup = Y;
rightMetricsKey = "=A*.5";
unicode = 0059;
},
{
glyphname = Z;
lastChange = "2016-11-25 19:43:40 +0000";
layers = (
{
anchors = (
{
name = bottom;
position = "{293, 0}";
},
{
name = stroke;
position = "{296, 356}";
},
{
name = top;
position = "{293, 700}";
},
{
name = topright;
position = "{578, 700}";
}
);
layerId = "BFFFD157-90D3-4B85-B99D-9A2F366F03CA";
paths = (
{
closed = 1;
nodes = (
"330 210 LINE",
"547 523 LINE",
"547 700 LINE",
"44 700 LINE",
"44 490 LINE",
"251 490 LINE",
"28 172 LINE",
"28 0 LINE",
"558 0 LINE",
"558 210 LINE"
);
}
);
width = 586;
},
{
anchors = (
{
name = bottom;
position = "{299, 0}";
},
{
name = stroke;
position = "{305, 344}";
},
{
name = top;
position = "{299, 700}";
},
{
name = topright;
position = "{589, 700}";
}
);
background = {
paths = (
{
closed = 1;
nodes = (
"147 700 LINE",
"53 700 LINE",
"53 0 LINE",
"147 0 LINE"
);
},
{
closed = 1;
nodes = (
"554 700 LINE",
"461 700 LINE",
"461 0 LINE",
"554 0 LINE"
);
},
{
closed = 1;
nodes = (
"108 369 LINE",
"106 278 LINE",
"518 278 LINE",
"522 369 LINE"
);
}
);
};
hints = (
{
horizontal = 1;
origin = "{0, 7}";
target = "{0, 0}";
type = TTStem;
options = 4;
},
{
horizontal = 1;
origin = "{0, 3}";
target = "{0, 4}";
type = TTStem;
options = 4;
}
);
layerId = "3E7589AA-8194-470F-8E2F-13C1C581BE24";
paths = (
{
closed = 1;
nodes = (
"181 92 LINE",
"534 616 LINE",
"534 700 LINE",
"76 700 LINE",
"76 608 LINE",
"418 608 LINE",
"59 78 LINE",
"59 0 LINE",
"537 0 LINE",
"537 92 LINE"
);
}
);
width = 597;
},
{
anchors = (
{
name = bottom;
position = "{293, 0}";
},
{
name = stroke;
position = "{291, 352}";
},
{
name = top;
position = "{293, 700}";
},
{
name = topright;
position = "{575, 700}";
}
);
hints = (
{
horizontal = 1;
origin = "{0, 7}";
target = "{0, 0}";
type = TTStem;
options = 4;
},
{
horizontal = 1;
origin = "{0, 3}";
target = "{0, 4}";
type = TTStem;
options = 4;
}
);
layerId = "4E6F1D76-CF39-4449-9239-DE310961C1DD";
paths = (
{
closed = 1;
nodes = (
"87 6 LINE",
"502 694 LINE",
"502 700 LINE",
"93 700 LINE",
"93 694 LINE",
"495 694 LINE",
"80 6 LINE",
"80 0 LINE",
"508 0 LINE",
"508 6 LINE"
);
}
);
width = 585;
}
);
leftKerningGroup = Z;
leftMetricsKey = "=H*.7";
rightKerningGroup = Z;
rightMetricsKey = "=H*.7";
unicode = 005A;
},
{
glyphname = Zstroke;
lastChange = "2016-11-25 19:43:40 +0000";
layers = (
{
background = {
paths = (
{
closed = 1;
nodes = (
"496 0 LINE",
"496 48 LINE",
"118 48 LINE",
"296 338 LINE",
"436 338 LINE",
"436 380 LINE",
"322 380 LINE",
"496 664 LINE",
"496 712 LINE",
"78 712 LINE",
"78 664 LINE",
"438 664 LINE",
"262 380 LINE",
"123 380 LINE",
"123 338 LINE",
"236 338 LINE",
"63 57 LINE",
"63 0 LINE"
);
}
);
};
components = (
{
name = Z;
},
{
name = strokelongcomb;
transform = "{0.604, 0, 0, 1, 54, 80}";
}
);
layerId = "3E7589AA-8194-470F-8E2F-13C1C581BE24";
width = 597;
},
{
background = {
paths = (
{
closed = 1;
nodes = (
"513 0 LINE",
"513 156 LINE",
"239 156 LINE",
"328 293 LINE",
"439 293 LINE",
"439 427 LINE",
"416 427 LINE",
"513 576 LINE",
"513 712 LINE",
"42 712 LINE",
"42 556 LINE",
"303 556 LINE",
"219 427 LINE",
"109 427 LINE",
"109 293 LINE",
"132 293 LINE",
"30 136 LINE",
"30 0 LINE"
);
}
);
};
components = (
{
name = Z;
},
{
name = strokelongcomb;
transform = "{0.675, 0, 0, 1, 6, 90}";
}
);
guideLines = (
{
position = "{219, 427}";
}
);
layerId = "BFFFD157-90D3-4B85-B99D-9A2F366F03CA";
width = 586;
},
{
components = (
{
name = Z;
},
{
name = strokelongcomb;
transform = "{0.5528, 0, 0, 1, 81, 90}";
}
);
layerId = "4E6F1D76-CF39-4449-9239-DE310961C1DD";
width = 585;
}
);
leftKerningGroup = Z;
leftMetricsKey = Z;
rightKerningGroup = Z;
rightMetricsKey = Z;
unicode = 01B5;
},
{
glyphname = a;
lastChange = "2016-11-25 19:43:40 +0000";
layers = (
{
anchors = (
{
name = bottom;
position = "{227, 0}";
},
{
name = ogonek;
position = "{463, 0}";
},
{
name = top;
position = "{239, 490}";
}
);
background = {
paths = (
{
closed = 1;
nodes = (
"224 -12 OFFCURVE",
"265 8 OFFCURVE",
"295 46 CURVE",
"306 46 LINE",
"325 0 LINE",
"463 0 LINE",
"463 490 LINE",
"243 490 LINE",
"243 205 LINE SMOOTH",
"243 177 OFFCURVE",
"230 171 OFFCURVE",
"211 171 CURVE SMOOTH",
"192 171 OFFCURVE",
"177 177 OFFCURVE",
"177 205 CURVE SMOOTH",
"177 490 LINE",
"-43 490 LINE",
"-43 188 LINE SMOOTH",
"-43 37 OFFCURVE",
"35 -12 OFFCURVE",
"150 -12 CURVE SMOOTH"
);
}
);
};
layerId = "BFFFD157-90D3-4B85-B99D-9A2F366F03CA";
paths = (
{
closed = 1;
nodes = (
"253 153 LINE SMOOTH",
"253 123 OFFCURVE",
"239 113 OFFCURVE",
"221 113 CURVE SMOOTH",
"199 113 OFFCURVE",
"190 127 OFFCURVE",
"190 143 CURVE SMOOTH",
"190 155 OFFCURVE",
"195 164 OFFCURVE",
"203 170 CURVE SMOOTH",
"218 181 OFFCURVE",
"239 182 OFFCURVE",
"260 182 CURVE",
"270 289 LINE",
"178 289 OFFCURVE",
"114 276 OFFCURVE",
"67 241 CURVE SMOOTH",
"29 213 OFFCURVE",
"16 172 OFFCURVE",
"16 127 CURVE SMOOTH",
"16 42 OFFCURVE",
"63 -11 OFFCURVE",
"165 -11 CURVE SMOOTH",
"234 -11 OFFCURVE",
"272 14 OFFCURVE",
"295 47 CURVE",
"305 47 LINE",
"325 0 LINE",
"463 0 LINE",
"463 314 LINE SMOOTH",
"463 448 OFFCURVE",
"377 505 OFFCURVE",
"236 505 CURVE SMOOTH",
"154 505 OFFCURVE",
"70 487 OFFCURVE",
"10 461 CURVE",
"41 298 LINE",
"88 313 OFFCURVE",
"135 324 OFFCURVE",
"192 324 CURVE SMOOTH",
"242 324 OFFCURVE",
"253 316 OFFCURVE",
"253 295 CURVE SMOOTH"
);
}
);
width = 487;
},
{
anchors = (
{
name = bottom;
position = "{226, 0}";
},
{
name = ogonek;
position = "{401, 0}";
},
{
name = top;
position = "{228, 480}";
}
);
background = {
paths = (
{
closed = 1;
nodes = (
"106 0 LINE",
"106 288 LINE SMOOTH",
"106 359 OFFCURVE",
"139 402 OFFCURVE",
"210 402 CURVE SMOOTH",
"285 402 OFFCURVE",
"311 359 OFFCURVE",
"311 288 CURVE SMOOTH",
"311 0 LINE",
"401 0 LINE",
"401 313 LINE SMOOTH",
"401 404 OFFCURVE",
"366 490 OFFCURVE",
"232 490 CURVE SMOOTH",
"144 490 OFFCURVE",
"109 452 OFFCURVE",
"94 409 CURVE",
"86 409 LINE",
"78 480 LINE",
"16 480 LINE",
"16 0 LINE"
);
}
);
};
hints = (
{
horizontal = 1;
origin = "{0, 22}";
target = "{0, 3}";
type = TTStem;
options = 4;
},
{
horizontal = 1;
origin = "{0, 12}";
target = "{0, 13}";
type = TTStem;
options = 4;
},
{
horizontal = 1;
origin = "{0, 32}";
target = "{0, 39}";
type = TTStem;
options = 4;
},
{
horizontal = 1;
origin = "{0, 27}";
type = Anchor;
options = 4;
}
);
layerId = "3E7589AA-8194-470F-8E2F-13C1C581BE24";
paths = (
{
closed = 1;
nodes = (
"311 176 LINE SMOOTH",
"311 119 OFFCURVE",
"283 68 OFFCURVE",
"205 68 CURVE SMOOTH",
"144 68 OFFCURVE",
"131 98 OFFCURVE",
"131 125 CURVE SMOOTH",
"131 151 OFFCURVE",
"144 167 OFFCURVE",
"161 177 CURVE SMOOTH",
"197 198 OFFCURVE",
"262 204 OFFCURVE",
"316 204 CURVE",
"316 285 LINE",
"230 283 OFFCURVE",
"165 270 OFFCURVE",
"124 251 CURVE SMOOTH",
"66 225 OFFCURVE",
"43 178 OFFCURVE",
"43 124 CURVE SMOOTH",
"43 39 OFFCURVE",
"101 -9 OFFCURVE",
"193 -9 CURVE SMOOTH",
"258 -9 OFFCURVE",
"293 16 OFFCURVE",
"314 41 CURVE",
"322 41 LINE",
"330 0 LINE",
"401 0 LINE",
"401 340 LINE SMOOTH",
"401 460 OFFCURVE",
"318 492 OFFCURVE",
"225 492 CURVE SMOOTH",
"149 492 OFFCURVE",
"85 473 OFFCURVE",
"40 450 CURVE",
"66 362 LINE",
"102 381 OFFCURVE",
"151 400 OFFCURVE",
"213 400 CURVE SMOOTH",
"298 400 OFFCURVE",
"311 364 OFFCURVE",
"311 316 CURVE SMOOTH"
);
}
);
width = 462;
},
{
anchors = (
{
name = bottom;
position = "{224, 0}";
},
{
name = ogonek;
position = "{430, 0}";
},
{
name = top;
position = "{231, 485}";
}
);
associatedMasterId = "3E7589AA-8194-470F-8E2F-13C1C581BE24";
background = {
paths = (
{
closed = 1;
nodes = (
"280 165 LINE SMOOTH",
"280 121 OFFCURVE",
"259 91 OFFCURVE",
"211 91 CURVE SMOOTH",
"169 91 OFFCURVE",
"158 113 OFFCURVE",
"158 134 CURVE SMOOTH",
"158 153 OFFCURVE",
"167 166 OFFCURVE",
"180 174 CURVE SMOOTH",
"205 190 OFFCURVE",
"248 193 OFFCURVE",
"286 193 CURVE",
"291 287 LINE",
"202 286 OFFCURVE",
"137 273 OFFCURVE",
"93 246 CURVE SMOOTH",
"45 219 OFFCURVE",
"27 175 OFFCURVE",
"27 126 CURVE SMOOTH",
"27 41 OFFCURVE",
"82 -10 OFFCURVE",
"180 -10 CURVE SMOOTH",
"246 -10 OFFCURVE",
"283 14 OFFCURVE",
"307 43 CURVE",
"316 43 LINE",
"328 0 LINE",
"430 0 LINE",
"430 327 LINE SMOOTH",
"430 454 OFFCURVE",
"345 499 OFFCURVE",
"228 499 CURVE SMOOTH",
"149 499 OFFCURVE",
"75 480 OFFCURVE",
"23 456 CURVE",
"51 330 LINE",
"93 347 OFFCURVE",
"141 362 OFFCURVE",
"200 362 CURVE SMOOTH",
"268 362 OFFCURVE",
"280 340 OFFCURVE",
"280 306 CURVE SMOOTH"
);
}
);
};
hints = (
{
horizontal = 1;
place = "{-9, 77}";
type = TTStem;
options = 4;
},
{
horizontal = 1;
place = "{204, 81}";
type = TTStem;
options = 4;
},
{
horizontal = 1;
place = "{492, -92}";
type = TTStem;
options = 4;
},
{
horizontal = 1;
place = "{0, 0}";
type = Anchor;
options = 4;
}
);
layerId = "1FA54028-AD2E-4209-AA7B-72DF2DF16264";
name = "{155, 100}";
paths = (
{
closed = 1;
nodes = (
"280 159 LINE SMOOTH",
"280 126 OFFCURVE",
"265 102 OFFCURVE",
"217 102 CURVE SMOOTH",
"176 102 OFFCURVE",
"165 119 OFFCURVE",
"165 135 CURVE SMOOTH",
"165 150 OFFCURVE",
"174 160 OFFCURVE",
"186 165 CURVE SMOOTH",
"212 176 OFFCURVE",
"249 180 OFFCURVE",
"286 180 CURVE",
"291 295 LINE",
"208 294 OFFCURVE",
"137 278 OFFCURVE",
"93 249 CURVE SMOOTH",
"46 218 OFFCURVE",
"29 177 OFFCURVE",
"29 124 CURVE SMOOTH",
"29 39 OFFCURVE",
"77 -11 OFFCURVE",
"182 -11 CURVE SMOOTH",
"247 -11 OFFCURVE",
"281 12 OFFCURVE",
"303 36 CURVE",
"312 36 LINE",
"326 0 LINE",
"430 0 LINE",
"430 337 LINE SMOOTH",
"430 460 OFFCURVE",
"346 499 OFFCURVE",
"232 499 CURVE SMOOTH",
"156 499 OFFCURVE",
"78 481 OFFCURVE",
"24 458 CURVE",
"53 325 LINE",
"93 340 OFFCURVE",
"146 355 OFFCURVE",
"201 355 CURVE SMOOTH",
"268 355 OFFCURVE",
"280 333 OFFCURVE",
"280 301 CURVE SMOOTH"
);
}
);
width = 472;
},
{
anchors = (
{
name = bottom;
position = "{205, 0}";
},
{
name = ogonek;
position = "{352, 0}";
},
{
name = top;
position = "{214, 470}";
}
);
hints = (
{
horizontal = 1;
origin = "{0, 22}";
target = "{0, 3}";
type = TTStem;
options = 4;
},
{
horizontal = 1;
origin = "{0, 12}";
target = "{0, 13}";
type = TTStem;
options = 4;
},
{
horizontal = 1;
origin = "{0, 32}";
target = "{0, 39}";
type = TTStem;
options = 4;
},
{
horizontal = 1;
origin = "{0, 27}";
type = Anchor;
options = 4;
}
);
layerId = "4E6F1D76-CF39-4449-9239-DE310961C1DD";
paths = (
{
closed = 1;
nodes = (
"347 142 LINE SMOOTH",
"347 47 OFFCURVE",
"308 -5 OFFCURVE",
"203 -5 CURVE SMOOTH",
"117 -5 OFFCURVE",
"80 42 OFFCURVE",
"80 102 CURVE SMOOTH",
"80 134 OFFCURVE",
"90 159 OFFCURVE",
"107 177 CURVE SMOOTH",
"149 222 OFFCURVE",
"235 227 OFFCURVE",
"350 227 CURVE",
"350 232 LINE",
"230 232 OFFCURVE",
"145 226 OFFCURVE",
"103 180 CURVE SMOOTH",
"85 159 OFFCURVE",
"75 135 OFFCURVE",
"75 102 CURVE SMOOTH",
"75 39 OFFCURVE",
"113 -10 OFFCURVE",
"203 -10 CURVE SMOOTH",
"285 -10 OFFCURVE",
"334 23 OFFCURVE",
"346 88 CURVE",
"347 88 LINE",
"348 0 LINE",
"352 0 LINE",
"352 350 LINE SMOOTH",
"352 437 OFFCURVE",
"306 478 OFFCURVE",
"217 478 CURVE SMOOTH",
"156 478 OFFCURVE",
"114 461 OFFCURVE",
"78 438 CURVE",
"80 433 LINE",
"116 455 OFFCURVE",
"158 473 OFFCURVE",
"216 473 CURVE SMOOTH",
"302 473 OFFCURVE",
"347 432 OFFCURVE",
"347 352 CURVE SMOOTH"
);
}
);
width = 436;
}
);
leftKerningGroup = a;
rightKerningGroup = a;
rightMetricsKey = "=m*.9";
unicode = 0061;
},
{
glyphname = aringacute;
lastChange = "2016-11-25 19:43:40 +0000";
layers = (
{
background = {
components = (
{
name = aacute;
}
);
guideLines = (
{
angle = 90;
position = "{220, 565}";
}
);
paths = (
{
closed = 1;
nodes = (
"431 0 LINE",
"431 330 LINE SMOOTH",
"431 431 OFFCURVE",
"372 488 OFFCURVE",
"244 488 CURVE SMOOTH",
"165 488 OFFCURVE",
"115 471 OFFCURVE",
"74 414 CURVE",
"111 382 LINE",
"142 426 OFFCURVE",
"176 443 OFFCURVE",
"244 443 CURVE SMOOTH",
"343 443 OFFCURVE",
"380 402 OFFCURVE",
"380 325 CURVE SMOOTH",
"380 271 LINE",
"224 271 LINE SMOOTH",
"119 271 OFFCURVE",
"56 220 OFFCURVE",
"56 132 CURVE SMOOTH",
"56 96 OFFCURVE",
"68 61 OFFCURVE",
"91 38 CURVE SMOOTH",
"122 6 OFFCURVE",
"161 -6 OFFCURVE",
"233 -6 CURVE SMOOTH",
"301 -6 OFFCURVE",
"339 7 OFFCURVE",
"380 48 CURVE",
"380 0 LINE"
);
},
{
closed = 1;
nodes = (
"380 168 LINE SMOOTH",
"380 124 OFFCURVE",
"371 93 OFFCURVE",
"353 76 CURVE SMOOTH",
"318 43 OFFCURVE",
"277 39 OFFCURVE",
"233 39 CURVE SMOOTH",
"145 39 OFFCURVE",
"107 69 OFFCURVE",
"107 133 CURVE SMOOTH",
"107 198 OFFCURVE",
"148 230 OFFCURVE",
"230 230 CURVE SMOOTH",
"380 230 LINE"
);
},
{
closed = 1;
nodes = (
"363 740 OFFCURVE",
"312 791 OFFCURVE",
"249 791 CURVE SMOOTH",
"186 791 OFFCURVE",
"135 740 OFFCURVE",
"135 677 CURVE SMOOTH",
"135 614 OFFCURVE",
"186 562 OFFCURVE",
"249 562 CURVE SMOOTH",
"312 562 OFFCURVE",
"363 614 OFFCURVE",
"363 677 CURVE SMOOTH"
);
},
{
closed = 1;
nodes = (
"322 637 OFFCURVE",
"289 604 OFFCURVE",
"249 604 CURVE SMOOTH",
"209 604 OFFCURVE",
"176 637 OFFCURVE",
"176 677 CURVE SMOOTH",
"176 717 OFFCURVE",
"209 749 OFFCURVE",
"249 749 CURVE SMOOTH",
"289 749 OFFCURVE",
"322 717 OFFCURVE",
"322 677 CURVE SMOOTH"
);
},
{
closed = 1;
nodes = (
"366 948 LINE",
"299 948 LINE",
"202 801 LINE",
"260 801 LINE"
);
}
);
};
components = (
{
name = aring;
},
{
name = acute;
transform = "{1, 0, 0, 1, 111, 235}";
}
);
guideLines = (
{
angle = 90;
position = "{220, 889}";
},
{
position = "{452, -39}";
},
{
position = "{452, -39}";
}
);
layerId = "3E7589AA-8194-470F-8E2F-13C1C581BE24";
width = 462;
},
{
background = {
paths = (
{
closed = 1;
nodes = (
"483 0 LINE",
"483 349 LINE SMOOTH",
"483 480 OFFCURVE",
"400 544 OFFCURVE",
"246 544 CURVE SMOOTH",
"155 544 OFFCURVE",
"106 525 OFFCURVE",
"51 470 CURVE",
"153 368 LINE",
"179 394 OFFCURVE",
"201 406 OFFCURVE",
"238 406 CURVE SMOOTH",
"295 406 OFFCURVE",
"319 388 OFFCURVE",
"319 339 CURVE SMOOTH",
"319 325 LINE",
"213 325 LINE SMOOTH",
"82 325 OFFCURVE",
"27 250 OFFCURVE",
"27 169 CURVE SMOOTH",
"27 119 OFFCURVE",
"43 74 OFFCURVE",
"74 43 CURVE SMOOTH",
"104 13 OFFCURVE",
"149 -5 OFFCURVE",
"203 -5 CURVE SMOOTH",
"260 -5 OFFCURVE",
"290 11 OFFCURVE",
"323 44 CURVE",
"323 0 LINE"
);
},
{
closed = 1;
nodes = (
"319 202 LINE SMOOTH",
"319 174 OFFCURVE",
"315 159 OFFCURVE",
"302 147 CURVE SMOOTH",
"285 132 OFFCURVE",
"270 128 OFFCURVE",
"243 128 CURVE SMOOTH",
"203 128 OFFCURVE",
"184 147 OFFCURVE",
"184 172 CURVE SMOOTH",
"184 199 OFFCURVE",
"203 216 OFFCURVE",
"241 216 CURVE SMOOTH",
"319 216 LINE"
);
},
{
closed = 1;
nodes = (
"404 808 OFFCURVE",
"342 869 OFFCURVE",
"266 869 CURVE SMOOTH",
"190 869 OFFCURVE",
"128 807 OFFCURVE",
"128 731 CURVE SMOOTH",
"128 655 OFFCURVE",
"190 593 OFFCURVE",
"266 593 CURVE SMOOTH",
"342 593 OFFCURVE",
"404 655 OFFCURVE",
"404 731 CURVE SMOOTH"
);
},
{
closed = 1;
nodes = (
"318 703 OFFCURVE",
"294 679 OFFCURVE",
"266 679 CURVE SMOOTH",
"238 679 OFFCURVE",
"214 703 OFFCURVE",
"214 731 CURVE SMOOTH",
"214 759 OFFCURVE",
"238 783 OFFCURVE",
"266 783 CURVE SMOOTH",
"294 783 OFFCURVE",
"318 759 OFFCURVE",
"318 731 CURVE SMOOTH"
);
},
{
closed = 1;
nodes = (
"418 1059 LINE",
"265 1059 LINE",
"200 879 LINE",
"317 879 LINE"
);
}
);
};
components = (
{
name = aring;
},
{
name = acute;
transform = "{1, 0, 0, 1, 63, 304}";
}
);
guideLines = (
{
angle = 90;
position = "{201, 889}";
}
);
layerId = "BFFFD157-90D3-4B85-B99D-9A2F366F03CA";
width = 482;
},
{
components = (
{
name = aring;
},
{
name = acute;
transform = "{1, 0, 0, 1, 139, 198}";
}
);
layerId = "4E6F1D76-CF39-4449-9239-DE310961C1DD";
width = 436;
}
);
leftKerningGroup = a;
leftMetricsKey = a;
rightKerningGroup = a;
rightMetricsKey = a;
unicode = 01FB;
},
{
color = 0;
glyphname = ae;
lastChange = "2016-11-25 19:43:40 +0000";
layers = (
{
anchors = (
{
name = bottom;
position = "{354, 0}";
},
{
name = top;
position = "{364, 480}";
}
);
background = {
paths = (
{
closed = 1;
nodes = (
"313 176 LINE SMOOTH",
"313 119 OFFCURVE",
"289 69 OFFCURVE",
"211 69 CURVE SMOOTH",
"150 69 OFFCURVE",
"133 94 OFFCURVE",
"133 122 CURVE SMOOTH",
"133 147 OFFCURVE",
"144 164 OFFCURVE",
"161 174 CURVE SMOOTH",
"200 196 OFFCURVE",
"262 206 OFFCURVE",
"318 204 CURVE",
"318 285 LINE",
"219 286 OFFCURVE",
"174 268 OFFCURVE",
"120 241 CURVE SMOOTH",
"72 217 OFFCURVE",
"45 178 OFFCURVE",
"45 118 CURVE SMOOTH",
"45 35 OFFCURVE",
"99 -11 OFFCURVE",
"195 -11 CURVE SMOOTH",
"257 -11 OFFCURVE",
"321 9 OFFCURVE",
"353 67 CURVE",
"359 67 LINE",
"399 -5 OFFCURVE",
"488 -12 OFFCURVE",
"536 -12 CURVE SMOOTH",
"591 -12 OFFCURVE",
"644 2 OFFCURVE",
"695 27 CURVE",
"683 107 LINE",
"641 87 OFFCURVE",
"583 73 OFFCURVE",
"539 73 CURVE SMOOTH",
"472 73 OFFCURVE",
"412 99 OFFCURVE",
"403 210 CURVE",
"403 367 LINE",
"430 391 OFFCURVE",
"464 405 OFFCURVE",
"504 405 CURVE SMOOTH",
"571 405 OFFCURVE",
"608 364 OFFCURVE",
"608 297 CURVE SMOOTH",
"608 290 OFFCURVE",
"608 280 OFFCURVE",
"607 271 CURVE",
"388 272 LINE",
"391 193 LINE",
"686 193 LINE",
"693 224 OFFCURVE",
"698 251 OFFCURVE",
"698 289 CURVE SMOOTH",
"698 405 OFFCURVE",
"651 491 OFFCURVE",
"518 491 CURVE SMOOTH",
"457 491 OFFCURVE",
"403 467 OFFCURVE",
"369 429 CURVE",
"406 434 LINE",
"358 473 OFFCURVE",
"298 492 OFFCURVE",
"217 492 CURVE SMOOTH",
"151 492 OFFCURVE",
"96 479 OFFCURVE",
"52 460 CURVE",
"66 371 LINE",
"102 388 OFFCURVE",
"146 400 OFFCURVE",
"205 400 CURVE SMOOTH",
"236 400 OFFCURVE",
"277 396 OFFCURVE",
"313 375 CURVE"
);
}
);
};
guideLines = (
{
angle = 90;
position = "{403, 667}";
}
);
layerId = "3E7589AA-8194-470F-8E2F-13C1C581BE24";
paths = (
{
closed = 1;
nodes = (
"388 421 LINE",
"359 475 OFFCURVE",
"297 492 OFFCURVE",
"230 492 CURVE SMOOTH",
"154 492 OFFCURVE",
"90 473 OFFCURVE",
"45 450 CURVE",
"71 362 LINE",
"107 381 OFFCURVE",
"156 400 OFFCURVE",
"218 400 CURVE SMOOTH",
"303 400 OFFCURVE",
"316 364 OFFCURVE",
"316 316 CURVE SMOOTH",
"316 176 LINE SMOOTH",
"316 119 OFFCURVE",
"288 67 OFFCURVE",
"210 67 CURVE SMOOTH",
"155 67 OFFCURVE",
"136 91 OFFCURVE",
"136 118 CURVE SMOOTH",
"136 141 OFFCURVE",
"149 156 OFFCURVE",
"169 166 CURVE SMOOTH",
"203 183 OFFCURVE",
"267 187 OFFCURVE",
"321 187 CURVE",
"321 267 LINE",
"235 265 OFFCURVE",
"175 256 OFFCURVE",
"134 239 CURVE SMOOTH",
"76 216 OFFCURVE",
"48 175 OFFCURVE",
"48 117 CURVE SMOOTH",
"48 39 OFFCURVE",
"100 -10 OFFCURVE",
"198 -10 CURVE SMOOTH",
"279 -10 OFFCURVE",
"321 23 OFFCURVE",
"353 67 CURVE",
"359 67 LINE",
"396 14 OFFCURVE",
"448 -12 OFFCURVE",
"533 -12 CURVE SMOOTH",
"591 -12 OFFCURVE",
"642 2 OFFCURVE",
"693 27 CURVE",
"678 108 LINE",
"639 87 OFFCURVE",
"587 73 OFFCURVE",
"540 73 CURVE SMOOTH",
"492 73 OFFCURVE",
"447 84 OFFCURVE",
"422 126 CURVE SMOOTH",
"406 152 OFFCURVE",
"399 190 OFFCURVE",
"399 243 CURVE SMOOTH",
"399 287 OFFCURVE",
"404 324 OFFCURVE",
"418 352 CURVE SMOOTH",
"436 386 OFFCURVE",
"469 405 OFFCURVE",
"514 405 CURVE SMOOTH",
"578 405 OFFCURVE",
"608 360 OFFCURVE",
"608 293 CURVE SMOOTH",
"608 281 OFFCURVE",
"607 264 OFFCURVE",
"604 250 CURVE",
"630 267 LINE",
"368 267 LINE",
"373 187 LINE",
"686 187 LINE",
"693 218 OFFCURVE",
"698 247 OFFCURVE",
"698 285 CURVE SMOOTH",
"698 401 OFFCURVE",
"651 491 OFFCURVE",
"518 491 CURVE SMOOTH",
"446 491 OFFCURVE",
"393 466 OFFCURVE",
"358 418 CURVE"
);
}
);
width = 750;
},
{
anchors = (
{
name = bottom;
position = "{341, 0}";
},
{
name = top;
position = "{341, 490}";
}
);
background = {
paths = (
{
closed = 1;
nodes = (
"248 153 LINE SMOOTH",
"248 123 OFFCURVE",
"234 113 OFFCURVE",
"216 113 CURVE SMOOTH",
"194 113 OFFCURVE",
"185 127 OFFCURVE",
"185 143 CURVE SMOOTH",
"185 155 OFFCURVE",
"190 164 OFFCURVE",
"198 170 CURVE SMOOTH",
"215 183 OFFCURVE",
"240 182 OFFCURVE",
"266 182 CURVE",
"267 290 LINE",
"178 288 OFFCURVE",
"106 275 OFFCURVE",
"56 239 CURVE SMOOTH",
"22 215 OFFCURVE",
"1 174 OFFCURVE",
"1 125 CURVE SMOOTH",
"1 41 OFFCURVE",
"46 -10 OFFCURVE",
"155 -10 CURVE SMOOTH",
"221 -10 OFFCURVE",
"282 14 OFFCURVE",
"320 67 CURVE",
"330 67 LINE",
"368 3 OFFCURVE",
"437 -14 OFFCURVE",
"509 -14 CURVE SMOOTH",
"563 -14 OFFCURVE",
"617 -5 OFFCURVE",
"674 19 CURVE",
"652 153 LINE",
"607 141 OFFCURVE",
"571 136 OFFCURVE",
"536 136 CURVE SMOOTH",
"474 136 OFFCURVE",
"440 143 OFFCURVE",
"427 186 CURVE",
"430 344 LINE",
"439 350 OFFCURVE",
"450 355 OFFCURVE",
"465 355 CURVE SMOOTH",
"488 355 OFFCURVE",
"503 341 OFFCURVE",
"503 302 CURVE SMOOTH",
"503 296 OFFCURVE",
"503 291 OFFCURVE",
"502 285 CURVE",
"414 285 LINE",
"414 177 LINE",
"673 177 LINE",
"681 215 OFFCURVE",
"685 250 OFFCURVE",
"685 288 CURVE SMOOTH",
"685 424 OFFCURVE",
"617 505 OFFCURVE",
"494 505 CURVE SMOOTH",
"408 505 OFFCURVE",
"359 466 OFFCURVE",
"337 427 CURVE",
"419 417 LINE",
"387 471 OFFCURVE",
"310 505 OFFCURVE",
"207 505 CURVE SMOOTH",
"137 505 OFFCURVE",
"66 489 OFFCURVE",
"5 461 CURVE",
"36 298 LINE",
"70 311 OFFCURVE",
"124 323 OFFCURVE",
"185 323 CURVE SMOOTH",
"203 323 OFFCURVE",
"224 322 OFFCURVE",
"248 320 CURVE"
);
}
);
};
layerId = "BFFFD157-90D3-4B85-B99D-9A2F366F03CA";
paths = (
{
closed = 1;
nodes = (
"394 417 LINE",
"359 472 OFFCURVE",
"307 505 OFFCURVE",
"212 505 CURVE SMOOTH",
"140 505 OFFCURVE",
"61 487 OFFCURVE",
"5 461 CURVE",
"36 298 LINE",
"83 313 OFFCURVE",
"126 324 OFFCURVE",
"176 324 CURVE SMOOTH",
"223 324 OFFCURVE",
"248 316 OFFCURVE",
"248 295 CURVE SMOOTH",
"248 153 LINE SMOOTH",
"248 123 OFFCURVE",
"234 113 OFFCURVE",
"216 113 CURVE SMOOTH",
"194 113 OFFCURVE",
"185 127 OFFCURVE",
"185 143 CURVE SMOOTH",
"185 155 OFFCURVE",
"190 164 OFFCURVE",
"198 170 CURVE SMOOTH",
"213 181 OFFCURVE",
"234 182 OFFCURVE",
"255 182 CURVE",
"265 289 LINE",
"173 289 OFFCURVE",
"109 276 OFFCURVE",
"62 241 CURVE SMOOTH",
"24 213 OFFCURVE",
"11 172 OFFCURVE",
"11 127 CURVE SMOOTH",
"11 42 OFFCURVE",
"61 -10 OFFCURVE",
"176 -10 CURVE SMOOTH",
"229 -10 OFFCURVE",
"295 2 OFFCURVE",
"328 54 CURVE",
"341 54 LINE",
"363 20 OFFCURVE",
"417 -14 OFFCURVE",
"512 -14 CURVE SMOOTH",
"565 -14 OFFCURVE",
"621 -5 OFFCURVE",
"678 19 CURVE",
"667 152 LINE",
"624 141 OFFCURVE",
"580 135 OFFCURVE",
"541 135 CURVE SMOOTH",
"493 135 OFFCURVE",
"465 146 OFFCURVE",
"448 166 CURVE SMOOTH",
"431 187 OFFCURVE",
"426 216 OFFCURVE",
"426 252 CURVE SMOOTH",
"426 293 OFFCURVE",
"428 320 OFFCURVE",
"437 335 CURVE SMOOTH",
"443 346 OFFCURVE",
"452 351 OFFCURVE",
"466 351 CURVE SMOOTH",
"489 351 OFFCURVE",
"500 337 OFFCURVE",
"500 298 CURVE SMOOTH",
"500 287 OFFCURVE",
"499 275 OFFCURVE",
"496 265 CURVE",
"548 277 LINE",
"328 277 LINE",
"333 177 LINE",
"673 177 LINE",
"681 215 OFFCURVE",
"685 250 OFFCURVE",
"685 288 CURVE SMOOTH",
"685 424 OFFCURVE",
"612 505 OFFCURVE",
"478 505 CURVE SMOOTH",
"377 505 OFFCURVE",
"323 460 OFFCURVE",
"307 417 CURVE"
);
}
);
width = 702;
},
{
anchors = (
{
name = bottom;
position = "{355, 0}";
},
{
name = top;
position = "{360, 485}";
}
);
associatedMasterId = "3E7589AA-8194-470F-8E2F-13C1C581BE24";
background = {
paths = (
{
closed = 1;
nodes = (
"289 164 LINE SMOOTH",
"289 128 OFFCURVE",
"274 102 OFFCURVE",
"226 102 CURVE SMOOTH",
"185 102 OFFCURVE",
"174 121 OFFCURVE",
"174 138 CURVE SMOOTH",
"174 154 OFFCURVE",
"183 165 OFFCURVE",
"195 171 CURVE SMOOTH",
"221 184 OFFCURVE",
"258 187 OFFCURVE",
"295 187 CURVE",
"300 295 LINE",
"217 294 OFFCURVE",
"146 278 OFFCURVE",
"102 249 CURVE SMOOTH",
"55 218 OFFCURVE",
"38 177 OFFCURVE",
"38 124 CURVE SMOOTH",
"38 39 OFFCURVE",
"86 -11 OFFCURVE",
"181 -11 CURVE SMOOTH",
"249 -11 OFFCURVE",
"283 14 OFFCURVE",
"304 39 CURVE",
"313 39 LINE",
"325 0 LINE",
"439 0 LINE",
"439 337 LINE SMOOTH",
"439 460 OFFCURVE",
"355 499 OFFCURVE",
"241 499 CURVE SMOOTH",
"165 499 OFFCURVE",
"87 481 OFFCURVE",
"33 458 CURVE",
"62 325 LINE",
"102 340 OFFCURVE",
"155 355 OFFCURVE",
"210 355 CURVE SMOOTH",
"277 355 OFFCURVE",
"289 333 OFFCURVE",
"289 301 CURVE SMOOTH"
);
}
);
};
guideLines = (
{
angle = 90;
position = "{421, 667}";
}
);
layerId = "A051C424-9A36-41EB-9F1A-71CE68D03AF0";
name = "{155, 100}";
paths = (
{
closed = 1;
nodes = (
"399 419 LINE",
"367 474 OFFCURVE",
"310 499 OFFCURVE",
"229 499 CURVE SMOOTH",
"155 499 OFFCURVE",
"83 480 OFFCURVE",
"33 456 CURVE",
"61 330 LINE",
"103 347 OFFCURVE",
"149 362 OFFCURVE",
"205 362 CURVE SMOOTH",
"271 362 OFFCURVE",
"290 340 OFFCURVE",
"290 306 CURVE SMOOTH",
"290 170 LINE SMOOTH",
"290 126 OFFCURVE",
"267 93 OFFCURVE",
"217 93 CURVE SMOOTH",
"180 93 OFFCURVE",
"168 111 OFFCURVE",
"168 129 CURVE SMOOTH",
"168 145 OFFCURVE",
"177 158 OFFCURVE",
"191 165 CURVE SMOOTH",
"216 178 OFFCURVE",
"258 181 OFFCURVE",
"296 181 CURVE",
"301 283 LINE",
"212 282 OFFCURVE",
"150 271 OFFCURVE",
"106 246 CURVE SMOOTH",
"58 219 OFFCURVE",
"37 178 OFFCURVE",
"37 122 CURVE SMOOTH",
"37 36 OFFCURVE",
"91 -10 OFFCURVE",
"195 -10 CURVE SMOOTH",
"262 -10 OFFCURVE",
"320 10 OFFCURVE",
"352 55 CURVE",
"362 55 LINE",
"391 16 OFFCURVE",
"440 -13 OFFCURVE",
"530 -13 CURVE SMOOTH",
"589 -13 OFFCURVE",
"643 -2 OFFCURVE",
"697 23 CURVE",
"686 143 LINE",
"645 128 OFFCURVE",
"593 119 OFFCURVE",
"544 119 CURVE SMOOTH",
"499 119 OFFCURVE",
"462 127 OFFCURVE",
"441 155 CURVE SMOOTH",
"424 177 OFFCURVE",
"420 207 OFFCURVE",
"420 248 CURVE SMOOTH",
"420 285 OFFCURVE",
"423 313 OFFCURVE",
"434 333 CURVE SMOOTH",
"446 352 OFFCURVE",
"467 363 OFFCURVE",
"497 363 CURVE SMOOTH",
"543 363 OFFCURVE",
"565 337 OFFCURVE",
"565 290 CURVE SMOOTH",
"565 280 OFFCURVE",
"564 267 OFFCURVE",
"561 257 CURVE",
"600 282 LINE",
"356 282 LINE",
"361 181 LINE",
"690 181 LINE",
"698 216 OFFCURVE",
"702 249 OFFCURVE",
"702 287 CURVE SMOOTH",
"702 413 OFFCURVE",
"642 498 OFFCURVE",
"506 498 CURVE SMOOTH",
"419 498 OFFCURVE",
"366 463 OFFCURVE",
"340 418 CURVE"
);
}
);
width = 735;
},
{
anchors = (
{
name = bottom;
position = "{357, 0}";
},
{
name = top;
position = "{356, 468}";
}
);
layerId = "4E6F1D76-CF39-4449-9239-DE310961C1DD";
paths = (
{
closed = 1;
nodes = (
"353 358 LINE",
"349 440 OFFCURVE",
"306 478 OFFCURVE",
"216 478 CURVE SMOOTH",
"155 478 OFFCURVE",
"109 456 OFFCURVE",
"76 436 CURVE",
"79 433 LINE",
"115 454 OFFCURVE",
"159 473 OFFCURVE",
"218 473 CURVE SMOOTH",
"296 473 OFFCURVE",
"346 436 OFFCURVE",
"346 356 CURVE SMOOTH",
"346 142 LINE SMOOTH",
"346 62 OFFCURVE",
"295 -3 OFFCURVE",
"201 -3 CURVE SMOOTH",
"117 -3 OFFCURVE",
"79 40 OFFCURVE",
"79 103 CURVE SMOOTH",
"79 135 OFFCURVE",
"88 161 OFFCURVE",
"106 180 CURVE SMOOTH",
"148 225 OFFCURVE",
"229 236 OFFCURVE",
"349 236 CURVE",
"349 243 LINE",
"229 243 OFFCURVE",
"142 230 OFFCURVE",
"98 182 CURVE SMOOTH",
"83 161 OFFCURVE",
"74 135 OFFCURVE",
"74 103 CURVE SMOOTH",
"74 39 OFFCURVE",
"110 -10 OFFCURVE",
"203 -10 CURVE SMOOTH",
"303 -10 OFFCURVE",
"342 53 OFFCURVE",
"350 101 CURVE",
"352 101 LINE",
"372 36 OFFCURVE",
"418 -10 OFFCURVE",
"525 -10 CURVE SMOOTH",
"569 -10 OFFCURVE",
"612 -3 OFFCURVE",
"653 19 CURVE",
"648 24 LINE",
"609 2 OFFCURVE",
"563 -5 OFFCURVE",
"523 -5 CURVE SMOOTH",
"436 -5 OFFCURVE",
"369 33 OFFCURVE",
"356 114 CURVE SMOOTH",
"351 146 OFFCURVE",
"351 184 OFFCURVE",
"351 228 CURVE SMOOTH",
"351 277 OFFCURVE",
"352 318 OFFCURVE",
"356 351 CURVE SMOOTH",
"371 436 OFFCURVE",
"439 473 OFFCURVE",
"512 473 CURVE SMOOTH",
"632 473 OFFCURVE",
"663 377 OFFCURVE",
"663 301 CURVE SMOOTH",
"663 279 OFFCURVE",
"662 258 OFFCURVE",
"659 237 CURVE",
"661 243 LINE",
"344 243 LINE",
"345 237 LINE",
"663 237 LINE",
"666 260 OFFCURVE",
"668 290 OFFCURVE",
"668 307 CURVE SMOOTH",
"668 387 OFFCURVE",
"630 477 OFFCURVE",
"511 477 CURVE SMOOTH",
"433 477 OFFCURVE",
"367 438 OFFCURVE",
"350 355 CURVE"
);
}
);
width = 723;
}
);
leftKerningGroup = a;
leftMetricsKey = a;
rightKerningGroup = e;
rightMetricsKey = e;
unicode = 00E6;
},
{
glyphname = aeacute;
lastChange = "2016-11-25 19:43:40 +0000";
layers = (
{
background = {
paths = (
{
closed = 1;
nodes = (
"766 230 LINE",
"766 253 LINE SMOOTH",
"766 401 OFFCURVE",
"694 488 OFFCURVE",
"573 488 CURVE SMOOTH",
"504 488 OFFCURVE",
"450 459 OFFCURVE",
"417 403 CURVE",
"392 460 OFFCURVE",
"335 488 OFFCURVE",
"244 488 CURVE SMOOTH",
"165 488 OFFCURVE",
"115 471 OFFCURVE",
"74 414 CURVE",
"111 382 LINE",
"142 426 OFFCURVE",
"176 443 OFFCURVE",
"244 443 CURVE SMOOTH",
"343 443 OFFCURVE",
"380 402 OFFCURVE",
"380 325 CURVE SMOOTH",
"380 271 LINE",
"224 271 LINE SMOOTH",
"119 271 OFFCURVE",
"56 220 OFFCURVE",
"56 132 CURVE SMOOTH",
"56 96 OFFCURVE",
"68 61 OFFCURVE",
"91 38 CURVE SMOOTH",
"122 6 OFFCURVE",
"161 -6 OFFCURVE",
"233 -6 CURVE SMOOTH",
"322 -6 OFFCURVE",
"372 19 OFFCURVE",
"412 84 CURVE",
"445 24 OFFCURVE",
"503 -6 OFFCURVE",
"584 -6 CURVE SMOOTH",
"664 -6 OFFCURVE",
"710 19 OFFCURVE",
"759 68 CURVE",
"721 98 LINE",
"680 57 OFFCURVE",
"645 40 OFFCURVE",
"588 40 CURVE SMOOTH",
"485 40 OFFCURVE",
"431 107 OFFCURVE",
"431 230 CURVE"
);
},
{
closed = 1;
nodes = (
"380 230 LINE",
"380 168 LINE SMOOTH",
"380 124 OFFCURVE",
"371 93 OFFCURVE",
"353 76 CURVE SMOOTH",
"318 43 OFFCURVE",
"277 39 OFFCURVE",
"233 39 CURVE SMOOTH",
"145 39 OFFCURVE",
"107 69 OFFCURVE",
"107 133 CURVE SMOOTH",
"107 198 OFFCURVE",
"148 230 OFFCURVE",
"230 230 CURVE SMOOTH"
);
},
{
closed = 1;
nodes = (
"431 271 LINE",
"434 318 OFFCURVE",
"436 331 OFFCURVE",
"448 362 CURVE SMOOTH",
"468 414 OFFCURVE",
"517 443 OFFCURVE",
"573 443 CURVE SMOOTH",
"629 443 OFFCURVE",
"677 413 OFFCURVE",
"698 362 CURVE SMOOTH",
"711 333 OFFCURVE",
"712 317 OFFCURVE",
"715 271 CURVE"
);
},
{
closed = 1;
nodes = (
"544 737 LINE",
"477 737 LINE",
"380 590 LINE",
"438 590 LINE"
);
}
);
};
components = (
{
name = ae;
},
{
name = acute;
transform = "{1, 0, 0, 1, 247, 0}";
}
);
layerId = "3E7589AA-8194-470F-8E2F-13C1C581BE24";
width = 750;
},
{
background = {
paths = (
{
closed = 1;
nodes = (
"802 216 LINE",
"802 284 LINE SMOOTH",
"802 432 OFFCURVE",
"716 544 OFFCURVE",
"560 544 CURVE SMOOTH",
"504 544 OFFCURVE",
"455 529 OFFCURVE",
"416 499 CURVE",
"377 529 OFFCURVE",
"320 544 OFFCURVE",
"246 544 CURVE SMOOTH",
"155 544 OFFCURVE",
"106 525 OFFCURVE",
"51 470 CURVE",
"153 368 LINE",
"179 394 OFFCURVE",
"201 406 OFFCURVE",
"238 406 CURVE SMOOTH",
"295 406 OFFCURVE",
"319 388 OFFCURVE",
"319 339 CURVE SMOOTH",
"319 325 LINE",
"213 325 LINE SMOOTH",
"82 325 OFFCURVE",
"27 250 OFFCURVE",
"27 169 CURVE SMOOTH",
"27 119 OFFCURVE",
"43 74 OFFCURVE",
"74 43 CURVE SMOOTH",
"105 12 OFFCURVE",
"149 -6 OFFCURVE",
"203 -6 CURVE SMOOTH",
"269 -6 OFFCURVE",
"322 -1 OFFCURVE",
"387 59 CURVE",
"438 8 OFFCURVE",
"509 -6 OFFCURVE",
"575 -6 CURVE SMOOTH",
"675 -6 OFFCURVE",
"729 24 OFFCURVE",
"784 79 CURVE",
"686 177 LINE",
"657 148 OFFCURVE",
"632 132 OFFCURVE",
"575 132 CURVE SMOOTH",
"514 132 OFFCURVE",
"480 172 OFFCURVE",
"480 216 CURVE"
);
},
{
closed = 1;
nodes = (
"480 325 LINE",
"480 338 OFFCURVE",
"482 352 OFFCURVE",
"489 367 CURVE SMOOTH",
"499 389 OFFCURVE",
"521 409 OFFCURVE",
"560 409 CURVE SMOOTH",
"599 409 OFFCURVE",
"621 389 OFFCURVE",
"631 367 CURVE SMOOTH",
"638 352 OFFCURVE",
"640 338 OFFCURVE",
"640 325 CURVE"
);
},
{
closed = 1;
nodes = (
"319 202 LINE SMOOTH",
"319 174 OFFCURVE",
"315 159 OFFCURVE",
"302 147 CURVE SMOOTH",
"285 132 OFFCURVE",
"270 128 OFFCURVE",
"243 128 CURVE SMOOTH",
"203 128 OFFCURVE",
"184 147 OFFCURVE",
"184 172 CURVE SMOOTH",
"184 199 OFFCURVE",
"203 216 OFFCURVE",
"241 216 CURVE SMOOTH",
"319 216 LINE"
);
},
{
closed = 1;
nodes = (
"536 790 LINE",
"383 790 LINE",
"318 610 LINE",
"435 610 LINE"
);
}
);
};
components = (
{
name = ae;
},
{
name = acute;
transform = "{1, 0, 0, 1, 170, 0}";
}
);
layerId = "BFFFD157-90D3-4B85-B99D-9A2F366F03CA";
width = 702;
},
{
components = (
{
name = ae;
},
{
name = acute;
transform = "{1, 0, 0, 1, 281, 0}";
}
);
layerId = "4E6F1D76-CF39-4449-9239-DE310961C1DD";
width = 723;
}
);
leftKerningGroup = a;
rightKerningGroup = e;
unicode = 01FD;
},
{
glyphname = b;
lastChange = "2016-11-25 19:43:40 +0000";
layers = (
{
anchors = (
{
name = bottom;
position = "{264, 0}";
},
{
name = top;
position = "{141, 750}";
}
);
background = {
paths = (
{
closed = 1;
nodes = (
"249 23 LINE",
"249 275 LINE SMOOTH",
"249 297 OFFCURVE",
"260 306 OFFCURVE",
"282 306 CURVE SMOOTH",
"304 306 OFFCURVE",
"315 297 OFFCURVE",
"315 275 CURVE SMOOTH",
"315 23 LINE",
"535 23 LINE",
"535 360 LINE SMOOTH",
"535 488 OFFCURVE",
"464 523 OFFCURVE",
"390 523 CURVE SMOOTH",
"317 523 OFFCURVE",
"272 488 OFFCURVE",
"260 450 CURVE",
"249 450 LINE",
"249 823 LINE",
"29 823 LINE",
"29 23 LINE"
);
}
);
};
layerId = "BFFFD157-90D3-4B85-B99D-9A2F366F03CA";
paths = (
{
closed = 1;
nodes = (
"249 450 LINE",
"249 750 LINE",
"29 750 LINE",
"29 27 LINE",
"250 121 LINE",
"250 236 LINE SMOOTH",
"250 279 OFFCURVE",
"262 304 OFFCURVE",
"295 304 CURVE SMOOTH",
"327 304 OFFCURVE",
"341 281 OFFCURVE",
"341 234 CURVE SMOOTH",
"341 179 OFFCURVE",
"322 152 OFFCURVE",
"284 152 CURVE SMOOTH",
"269 152 OFFCURVE",
"253 156 OFFCURVE",
"239 167 CURVE",
"29 27 LINE",
"96 4 OFFCURVE",
"170 -11 OFFCURVE",
"260 -11 CURVE SMOOTH",
"479 -11 OFFCURVE",
"546 91 OFFCURVE",
"546 272 CURVE SMOOTH",
"546 426 OFFCURVE",
"488 502 OFFCURVE",
"376 502 CURVE SMOOTH",
"311 502 OFFCURVE",
"277 476 OFFCURVE",
"260 450 CURVE"
);
}
);
width = 561;
},
{
anchors = (
{
name = bottom;
position = "{241, 0}";
},
{
name = top;
position = "{121, 750}";
}
);
background = {
paths = (
{
closed = 1;
nodes = (
"147 409 LINE",
"139 480 LINE",
"77 480 LINE",
"77 -200 LINE",
"167 -200 LINE",
"167 254 LINE SMOOTH",
"167 359 OFFCURVE",
"212 400 OFFCURVE",
"281 400 CURVE SMOOTH",
"355 400 OFFCURVE",
"396 351 OFFCURVE",
"396 241 CURVE SMOOTH",
"396 124 OFFCURVE",
"350 77 OFFCURVE",
"252 77 CURVE SMOOTH",
"220 77 OFFCURVE",
"188 83 OFFCURVE",
"152 106 CURVE",
"132 37 LINE",
"167 4 OFFCURVE",
"210 -9 OFFCURVE",
"262 -9 CURVE SMOOTH",
"410 -9 OFFCURVE",
"486 85 OFFCURVE",
"486 251 CURVE SMOOTH",
"486 392 OFFCURVE",
"431 489 OFFCURVE",
"296 489 CURVE SMOOTH",
"227 489 OFFCURVE",
"175 460 OFFCURVE",
"155 409 CURVE"
);
}
);
};
layerId = "3E7589AA-8194-470F-8E2F-13C1C581BE24";
paths = (
{
closed = 1;
nodes = (
"167 429 LINE",
"167 750 LINE",
"77 750 LINE",
"77 19 LINE",
"167 28 LINE",
"167 250 LINE SMOOTH",
"167 358 OFFCURVE",
"212 396 OFFCURVE",
"281 396 CURVE SMOOTH",
"355 396 OFFCURVE",
"396 353 OFFCURVE",
"396 251 CURVE SMOOTH",
"396 134 OFFCURVE",
"351 77 OFFCURVE",
"251 77 CURVE SMOOTH",
"222 77 OFFCURVE",
"184 82 OFFCURVE",
"147 98 CURVE",
"77 19 LINE",
"127 0 OFFCURVE",
"185 -11 OFFCURVE",
"239 -11 CURVE SMOOTH",
"403 -11 OFFCURVE",
"486 94 OFFCURVE",
"486 261 CURVE SMOOTH",
"486 398 OFFCURVE",
"428 489 OFFCURVE",
"305 489 CURVE SMOOTH",
"242 489 OFFCURVE",
"197 465 OFFCURVE",
"175 429 CURVE"
);
}
);
width = 533;
},
{
anchors = (
{
name = bottom;
position = "{233, 0}";
},
{
name = top;
position = "{102, 750}";
}
);
hints = (
{
horizontal = 1;
origin = "{0, 21}";
target = "{0, 14}";
type = TTStem;
stem = 1;
options = 4;
},
{
horizontal = 1;
origin = "{0, 27}";
target = "{0, 8}";
type = TTStem;
stem = 1;
options = 4;
},
{
horizontal = 1;
origin = "{0, 2}";
type = Anchor;
options = 4;
}
);
layerId = "4E6F1D76-CF39-4449-9239-DE310961C1DD";
paths = (
{
closed = 1;
nodes = (
"106 355 LINE",
"106 750 LINE",
"101 750 LINE",
"101 16 LINE",
"106 16 LINE",
"106 297 LINE SMOOTH",
"106 419 OFFCURVE",
"172 473 OFFCURVE",
"265 473 CURVE SMOOTH",
"374 473 OFFCURVE",
"423 398 OFFCURVE",
"423 251 CURVE SMOOTH",
"423 80 OFFCURVE",
"350 -5 OFFCURVE",
"226 -5 CURVE SMOOTH",
"187 -5 OFFCURVE",
"146 -1 OFFCURVE",
"103 21 CURVE",
"101 16 LINE",
"144 -6 OFFCURVE",
"186 -10 OFFCURVE",
"226 -10 CURVE SMOOTH",
"353 -10 OFFCURVE",
"428 77 OFFCURVE",
"428 251 CURVE SMOOTH",
"428 401 OFFCURVE",
"377 478 OFFCURVE",
"265 478 CURVE SMOOTH",
"184 478 OFFCURVE",
"125 438 OFFCURVE",
"107 355 CURVE"
);
}
);
width = 482;
}
);
leftKerningGroup = h;
leftMetricsKey = h;
rightKerningGroup = o;
rightMetricsKey = o;
unicode = 0062;
},
{
glyphname = c;
lastChange = "2016-11-25 19:43:40 +0000";
layers = (
{
anchors = (
{
name = bottom;
position = "{260, 0}";
},
{
name = top;
position = "{263, 490}";
},
{
name = topright;
position = "{399, 490}";
}
);
background = {
paths = (
{
closed = 1;
nodes = (
"439 -15 OFFCURVE",
"538 77 OFFCURVE",
"538 248 CURVE SMOOTH",
"538 412 OFFCURVE",
"446 505 OFFCURVE",
"282 505 CURVE SMOOTH",
"117 505 OFFCURVE",
"15 410 OFFCURVE",
"15 239 CURVE SMOOTH",
"15 75 OFFCURVE",
"109 -15 OFFCURVE",
"272 -15 CURVE SMOOTH"
);
},
{
closed = 1;
nodes = (
"243 181 OFFCURVE",
"226 200 OFFCURVE",
"226 240 CURVE SMOOTH",
"226 276 OFFCURVE",
"242 293 OFFCURVE",
"275 293 CURVE SMOOTH",
"310 293 OFFCURVE",
"327 275 OFFCURVE",
"327 235 CURVE SMOOTH",
"327 199 OFFCURVE",
"311 181 OFFCURVE",
"278 181 CURVE SMOOTH"
);
}
);
};
layerId = "BFFFD157-90D3-4B85-B99D-9A2F366F03CA";
paths = (
{
closed = 1;
nodes = (
"359 196 LINE",
"339 188 OFFCURVE",
"321 183 OFFCURVE",
"295 183 CURVE SMOOTH",
"251 183 OFFCURVE",
"226 201 OFFCURVE",
"226 245 CURVE SMOOTH",
"226 288 OFFCURVE",
"251 304 OFFCURVE",
"293 304 CURVE SMOOTH",
"322 304 OFFCURVE",
"340 299 OFFCURVE",
"357 294 CURVE",
"377 486 LINE",
"345 498 OFFCURVE",
"312 505 OFFCURVE",
"262 505 CURVE SMOOTH",
"110 505 OFFCURVE",
"15 418 OFFCURVE",
"15 245 CURVE SMOOTH",
"15 81 OFFCURVE",
"106 -15 OFFCURVE",
"257 -15 CURVE SMOOTH",
"308 -15 OFFCURVE",
"343 -8 OFFCURVE",
"378 7 CURVE"
);
}
);
width = 388;
},
{
anchors = (
{
name = bottom;
position = "{271, 0}";
},
{
name = top;
position = "{270, 480}";
},
{
name = topright;
position = "{420, 480}";
}
);
background = {
paths = (
{
closed = 1;
nodes = (
"392 -12 OFFCURVE",
"465 79 OFFCURVE",
"465 239 CURVE SMOOTH",
"465 405 OFFCURVE",
"396 492 OFFCURVE",
"259 492 CURVE SMOOTH",
"121 492 OFFCURVE",
"47 404 OFFCURVE",
"47 239 CURVE SMOOTH",
"47 79 OFFCURVE",
"117 -12 OFFCURVE",
"255 -12 CURVE SMOOTH"
);
},
{
closed = 1;
nodes = (
"178 72 OFFCURVE",
"135 123 OFFCURVE",
"135 240 CURVE SMOOTH",
"135 357 OFFCURVE",
"175 403 OFFCURVE",
"255 403 CURVE SMOOTH",
"336 403 OFFCURVE",
"377 360 OFFCURVE",
"377 238 CURVE SMOOTH",
"377 119 OFFCURVE",
"339 72 OFFCURVE",
"259 72 CURVE SMOOTH"
);
}
);
};
layerId = "3E7589AA-8194-470F-8E2F-13C1C581BE24";
paths = (
{
closed = 1;
nodes = (
"379 98 LINE",
"346 83 OFFCURVE",
"310 75 OFFCURVE",
"275 75 CURVE SMOOTH",
"186 75 OFFCURVE",
"137 122 OFFCURVE",
"137 243 CURVE SMOOTH",
"137 354 OFFCURVE",
"179 400 OFFCURVE",
"271 400 CURVE SMOOTH",
"309 400 OFFCURVE",
"338 393 OFFCURVE",
"371 379 CURVE",
"388 463 LINE",
"355 479 OFFCURVE",
"319 489 OFFCURVE",
"270 489 CURVE SMOOTH",
"121 489 OFFCURVE",
"47 401 OFFCURVE",
"47 237 CURVE SMOOTH",
"47 73 OFFCURVE",
"124 -11 OFFCURVE",
"271 -11 CURVE SMOOTH",
"320 -11 OFFCURVE",
"353 -2 OFFCURVE",
"390 14 CURVE"
);
}
);
width = 419;
},
{
anchors = (
{
name = bottom;
position = "{225, 0}";
},
{
name = top;
position = "{230, 468}";
},
{
name = topright;
position = "{374, 468}";
}
);
hints = (
{
horizontal = 1;
origin = "{0, 22}";
target = "{0, 3}";
type = TTStem;
stem = 1;
options = 4;
},
{
horizontal = 1;
origin = "{0, 16}";
target = "{0, 9}";
type = TTStem;
stem = 1;
options = 4;
}
);
layerId = "4E6F1D76-CF39-4449-9239-DE310961C1DD";
paths = (
{
closed = 1;
nodes = (
"346 34 LINE",
"314 9 OFFCURVE",
"271 -5 OFFCURVE",
"224 -5 CURVE SMOOTH",
"108 -5 OFFCURVE",
"55 72 OFFCURVE",
"55 230 CURVE SMOOTH",
"55 383 OFFCURVE",
"97 473 OFFCURVE",
"227 473 CURVE SMOOTH",
"279 473 OFFCURVE",
"311 456 OFFCURVE",
"342 429 CURVE",
"344 434 LINE",
"315 460 OFFCURVE",
"282 478 OFFCURVE",
"227 478 CURVE SMOOTH",
"95 478 OFFCURVE",
"50 389 OFFCURVE",
"50 231 CURVE SMOOTH",
"50 68 OFFCURVE",
"104 -10 OFFCURVE",
"224 -10 CURVE SMOOTH",
"276 -10 OFFCURVE",
"316 4 OFFCURVE",
"348 29 CURVE"
);
}
);
width = 386;
}
);
leftKerningGroup = o;
leftMetricsKey = o;
rightKerningGroup = c;
unicode = 0063;
},
{
glyphname = ccircumflex;
lastChange = "2016-11-25 19:43:40 +0000";
layers = (
{
background = {
paths = (
{
closed = 1;
nodes = (
"405 100 LINE",
"364 55 OFFCURVE",
"332 39 OFFCURVE",
"281 39 CURVE SMOOTH",
"226 39 OFFCURVE",
"182 60 OFFCURVE",
"153 103 CURVE SMOOTH",
"129 138 OFFCURVE",
"120 176 OFFCURVE",
"120 241 CURVE SMOOTH",
"120 306 OFFCURVE",
"129 344 OFFCURVE",
"153 379 CURVE SMOOTH",
"182 422 OFFCURVE",
"226 443 OFFCURVE",
"281 443 CURVE SMOOTH",
"332 443 OFFCURVE",
"364 428 OFFCURVE",
"405 382 CURVE",
"440 414 LINE",
"389 471 OFFCURVE",
"347 488 OFFCURVE",
"281 488 CURVE SMOOTH",
"149 488 OFFCURVE",
"69 394 OFFCURVE",
"69 241 CURVE SMOOTH",
"69 88 OFFCURVE",
"149 -6 OFFCURVE",
"281 -6 CURVE SMOOTH",
"347 -6 OFFCURVE",
"389 11 OFFCURVE",
"440 68 CURVE"
);
},
{
closed = 1;
nodes = (
"431 590 LINE",
"308 737 LINE",
"254 737 LINE",
"131 590 LINE",
"188 590 LINE",
"281 699 LINE",
"374 590 LINE"
);
}
);
};
components = (
{
name = c;
},
{
name = circumflex;
transform = "{1, 0, 0, 1, 47, 0}";
}
);
layerId = "3E7589AA-8194-470F-8E2F-13C1C581BE24";
width = 419;
},
{
background = {
paths = (
{
closed = 1;
nodes = (
"346 174 LINE",
"325 153 OFFCURVE",
"307 142 OFFCURVE",
"280 142 CURVE SMOOTH",
"258 142 OFFCURVE",
"243 149 OFFCURVE",
"229 163 CURVE SMOOTH",
"210 183 OFFCURVE",
"202 218 OFFCURVE",
"202 269 CURVE SMOOTH",
"202 320 OFFCURVE",
"210 355 OFFCURVE",
"229 375 CURVE SMOOTH",
"243 389 OFFCURVE",
"258 396 OFFCURVE",
"280 396 CURVE SMOOTH",
"307 396 OFFCURVE",
"325 385 OFFCURVE",
"346 364 CURVE",
"457 475 LINE",
"413 519 OFFCURVE",
"355 544 OFFCURVE",
"280 544 CURVE SMOOTH",
"187 544 OFFCURVE",
"38 504 OFFCURVE",
"38 269 CURVE SMOOTH",
"38 34 OFFCURVE",
"187 -6 OFFCURVE",
"280 -6 CURVE SMOOTH",
"355 -6 OFFCURVE",
"413 19 OFFCURVE",
"457 63 CURVE"
);
},
{
closed = 1;
nodes = (
"481 610 LINE",
"345 789 LINE",
"215 789 LINE",
"79 610 LINE",
"201 610 LINE",
"280 693 LINE",
"359 610 LINE"
);
}
);
};
components = (
{
name = c;
},
{
name = circumflex;
transform = "{1, 0, 0, 1, -16, 0}";
}
);
layerId = "BFFFD157-90D3-4B85-B99D-9A2F366F03CA";
width = 388;
},
{
components = (
{
name = c;
},
{
name = circumflex;
transform = "{1, 0, 0, 1, 42, 0}";
}
);
layerId = "4E6F1D76-CF39-4449-9239-DE310961C1DD";
width = 386;
}
);
leftKerningGroup = o;
rightKerningGroup = c;
unicode = 0109;
},
{
glyphname = d;
lastChange = "2016-11-25 19:43:40 +0000";
layers = (
{
anchors = (
{
name = bottom;
position = "{281, 0}";
},
{
name = cedilla;
position = "{171, 1}";
},
{
name = center;
position = "{277, 245}";
},
{
name = stroke;
position = "{398, 637}";
},
{
name = top;
position = "{422, 750}";
},
{
name = topright;
position = "{535, 490}";
}
);
background = {
paths = (
{
closed = 1;
nodes = (
"325 153 LINE SMOOTH",
"325 123 OFFCURVE",
"311 113 OFFCURVE",
"293 113 CURVE SMOOTH",
"271 113 OFFCURVE",
"262 127 OFFCURVE",
"262 143 CURVE SMOOTH",
"262 155 OFFCURVE",
"267 164 OFFCURVE",
"275 170 CURVE SMOOTH",
"290 181 OFFCURVE",
"311 182 OFFCURVE",
"332 182 CURVE",
"342 289 LINE",
"250 289 OFFCURVE",
"186 276 OFFCURVE",
"139 241 CURVE SMOOTH",
"101 213 OFFCURVE",
"88 172 OFFCURVE",
"88 127 CURVE SMOOTH",
"88 42 OFFCURVE",
"140 -9 OFFCURVE",
"243 -9 CURVE SMOOTH",
"311 -9 OFFCURVE",
"350 13 OFFCURVE",
"377 44 CURVE",
"387 44 LINE",
"403 0 LINE",
"535 0 LINE",
"535 314 LINE SMOOTH",
"535 448 OFFCURVE",
"449 505 OFFCURVE",
"308 505 CURVE SMOOTH",
"226 505 OFFCURVE",
"142 487 OFFCURVE",
"82 461 CURVE",
"113 298 LINE",
"160 313 OFFCURVE",
"207 324 OFFCURVE",
"264 324 CURVE SMOOTH",
"314 324 OFFCURVE",
"325 316 OFFCURVE",
"325 295 CURVE SMOOTH"
);
}
);
};
layerId = "BFFFD157-90D3-4B85-B99D-9A2F366F03CA";
paths = (
{
closed = 1;
nodes = (
"535 750 LINE",
"314 750 LINE",
"314 219 LINE SMOOTH",
"314 184 OFFCURVE",
"301 159 OFFCURVE",
"269 159 CURVE SMOOTH",
"236 159 OFFCURVE",
"220 187 OFFCURVE",
"220 238 CURVE SMOOTH",
"220 289 OFFCURVE",
"238 312 OFFCURVE",
"276 312 CURVE SMOOTH",
"294 312 OFFCURVE",
"311 306 OFFCURVE",
"322 292 CURVE",
"354 457 LINE",
"323 485 OFFCURVE",
"281 503 OFFCURVE",
"221 503 CURVE SMOOTH",
"84 503 OFFCURVE",
"15 400 OFFCURVE",
"15 239 CURVE SMOOTH",
"15 89 OFFCURVE",
"65 -10 OFFCURVE",
"212 -10 CURVE SMOOTH",
"299 -10 OFFCURVE",
"341 27 OFFCURVE",
"364 60 CURVE",
"374 60 LINE",
"402 0 LINE",
"535 0 LINE"
);
}
);
width = 564;
},
{
anchors = (
{
name = bottom;
position = "{259, 0}";
},
{
name = cedilla;
position = "{200, 1}";
},
{
name = center;
position = "{265, 240}";
},
{
name = stroke;
position = "{377, 637}";
},
{
name = top;
position = "{410, 750}";
},
{
name = topright;
position = "{456, 480}";
}
);
background = {
paths = (
{
closed = 1;
nodes = (
"366 176 LINE SMOOTH",
"366 119 OFFCURVE",
"338 68 OFFCURVE",
"260 68 CURVE SMOOTH",
"199 68 OFFCURVE",
"186 98 OFFCURVE",
"186 125 CURVE SMOOTH",
"186 151 OFFCURVE",
"199 167 OFFCURVE",
"216 177 CURVE SMOOTH",
"252 198 OFFCURVE",
"317 204 OFFCURVE",
"371 204 CURVE",
"371 285 LINE",
"285 283 OFFCURVE",
"220 270 OFFCURVE",
"179 251 CURVE SMOOTH",
"121 224 OFFCURVE",
"98 178 OFFCURVE",
"98 124 CURVE SMOOTH",
"98 39 OFFCURVE",
"156 -9 OFFCURVE",
"248 -9 CURVE SMOOTH",
"313 -9 OFFCURVE",
"348 16 OFFCURVE",
"369 41 CURVE",
"377 41 LINE",
"385 0 LINE",
"456 0 LINE",
"456 340 LINE SMOOTH",
"456 460 OFFCURVE",
"373 492 OFFCURVE",
"280 492 CURVE SMOOTH",
"204 492 OFFCURVE",
"140 473 OFFCURVE",
"95 450 CURVE",
"121 362 LINE",
"157 381 OFFCURVE",
"206 400 OFFCURVE",
"268 400 CURVE SMOOTH",
"353 400 OFFCURVE",
"366 364 OFFCURVE",
"366 316 CURVE SMOOTH"
);
}
);
};
layerId = "3E7589AA-8194-470F-8E2F-13C1C581BE24";
paths = (
{
closed = 1;
nodes = (
"456 750 LINE",
"366 750 LINE",
"366 211 LINE SMOOTH",
"366 108 OFFCURVE",
"318 74 OFFCURVE",
"255 74 CURVE SMOOTH",
"175 74 OFFCURVE",
"137 126 OFFCURVE",
"137 236 CURVE SMOOTH",
"137 344 OFFCURVE",
"181 401 OFFCURVE",
"269 401 CURVE SMOOTH",
"311 401 OFFCURVE",
"349 388 OFFCURVE",
"375 358 CURVE",
"394 444 LINE",
"368 470 OFFCURVE",
"324 489 OFFCURVE",
"261 489 CURVE SMOOTH",
"119 489 OFFCURVE",
"47 392 OFFCURVE",
"47 228 CURVE SMOOTH",
"47 86 OFFCURVE",
"100 -11 OFFCURVE",
"231 -11 CURVE SMOOTH",
"294 -11 OFFCURVE",
"339 11 OFFCURVE",
"364 48 CURVE",
"372 48 LINE",
"384 0 LINE",
"456 0 LINE"
);
}
);
width = 533;
},
{
anchors = (
{
name = bottom;
position = "{237, 0}";
},
{
name = cedilla;
position = "{203, 1}";
},
{
name = center;
position = "{248, 234}";
},
{
name = stroke;
position = "{346, 637}";
},
{
name = top;
position = "{387, 750}";
},
{
name = topright;
position = "{391, 468}";
}
);
hints = (
{
horizontal = 1;
origin = "{0, 24}";
target = "{0, 5}";
type = TTStem;
stem = 1;
options = 4;
},
{
horizontal = 1;
origin = "{0, 18}";
target = "{0, 11}";
type = TTStem;
stem = 1;
options = 4;
},
{
horizontal = 1;
origin = "{0, 1}";
type = Anchor;
options = 4;
},
{
horizontal = 1;
origin = "{0, 29}";
type = Anchor;
options = 4;
}
);
layerId = "4E6F1D76-CF39-4449-9239-DE310961C1DD";
paths = (
{
closed = 1;
nodes = (
"391 750 LINE",
"386 750 LINE",
"386 175 LINE SMOOTH",
"386 58 OFFCURVE",
"332 -5 OFFCURVE",
"238 -5 CURVE SMOOTH",
"131 -5 OFFCURVE",
"71 68 OFFCURVE",
"71 224 CURVE SMOOTH",
"71 381 OFFCURVE",
"132 473 OFFCURVE",
"255 473 CURVE SMOOTH",
"293 473 OFFCURVE",
"346 465 OFFCURVE",
"388 418 CURVE",
"389 424 LINE",
"349 469 OFFCURVE",
"297 478 OFFCURVE",
"255 478 CURVE SMOOTH",
"129 478 OFFCURVE",
"66 387 OFFCURVE",
"66 224 CURVE SMOOTH",
"66 63 OFFCURVE",
"126 -10 OFFCURVE",
"238 -10 CURVE SMOOTH",
"318 -10 OFFCURVE",
"369 33 OFFCURVE",
"384 109 CURVE",
"385 109 LINE",
"387 0 LINE",
"391 0 LINE"
);
}
);
width = 492;
}
);
leftKerningGroup = o;
leftMetricsKey = o;
rightKerningGroup = d;
rightMetricsKey = "=|m";
unicode = 0064;
},
{
color = 0;
glyphname = eth;
lastChange = "2016-11-25 19:43:40 +0000";
layers = (
{
anchors = (
{
name = _stroke;
position = "{377, 637}";
},
{
name = bottom;
position = "{260, 0}";
},
{
name = center;
position = "{258, 240}";
},
{
name = horn;
position = "{383, 456}";
},
{
name = ogonek;
position = "{470, 10}";
},
{
name = top;
position = "{260, 480}";
},
{
name = topright;
position = "{503, 480}";
}
);
layerId = "3E7589AA-8194-470F-8E2F-13C1C581BE24";
paths = (
{
closed = 1;
nodes = (
"473 336 OFFCURVE",
"467 405 OFFCURVE",
"453 473 CURVE SMOOTH",
"427 594 OFFCURVE",
"379 708 OFFCURVE",
"326 800 CURVE",
"222 800 LINE",
"283 705 OFFCURVE",
"335 582 OFFCURVE",
"365 460 CURVE",
"359 456 LINE",
"333 478 OFFCURVE",
"300 492 OFFCURVE",
"251 492 CURVE SMOOTH",
"122 492 OFFCURVE",
"47 404 OFFCURVE",
"47 239 CURVE SMOOTH",
"47 79 OFFCURVE",
"121 -12 OFFCURVE",
"259 -12 CURVE SMOOTH",
"396 -12 OFFCURVE",
"472 69 OFFCURVE",
"473 268 CURVE SMOOTH"
);
},
{
closed = 1;
nodes = (
"182 72 OFFCURVE",
"136 123 OFFCURVE",
"136 240 CURVE SMOOTH",
"136 357 OFFCURVE",
"179 403 OFFCURVE",
"259 403 CURVE SMOOTH",
"340 403 OFFCURVE",
"384 360 OFFCURVE",
"384 238 CURVE SMOOTH",
"384 119 OFFCURVE",
"343 72 OFFCURVE",
"263 72 CURVE SMOOTH"
);
},
{
closed = 1;
nodes = (
"144 680 LINE",
"144 597 LINE",
"474 597 LINE",
"474 680 LINE"
);
}
);
width = 521;
},
{
anchors = (
{
name = _stroke;
position = "{407, 637}";
},
{
name = bottom;
position = "{262, 0}";
},
{
name = center;
position = "{261, 239}";
},
{
name = horn;
position = "{357, 460}";
},
{
name = ogonek;
position = "{485, 10}";
},
{
name = top;
position = "{266, 490}";
},
{
name = topright;
position = "{521, 490}";
}
);
background = {
paths = (
{
closed = 1;
nodes = (
"424 -15 OFFCURVE",
"508 77 OFFCURVE",
"508 248 CURVE SMOOTH",
"508 412 OFFCURVE",
"431 505 OFFCURVE",
"267 505 CURVE SMOOTH",
"102 505 OFFCURVE",
"15 410 OFFCURVE",
"15 239 CURVE SMOOTH",
"15 75 OFFCURVE",
"94 -15 OFFCURVE",
"257 -15 CURVE SMOOTH"
);
},
{
closed = 1;
nodes = (
"228 162 OFFCURVE",
"216 187 OFFCURVE",
"216 241 CURVE SMOOTH",
"216 291 OFFCURVE",
"227 314 OFFCURVE",
"260 314 CURVE SMOOTH",
"295 314 OFFCURVE",
"307 290 OFFCURVE",
"307 236 CURVE SMOOTH",
"307 186 OFFCURVE",
"296 162 OFFCURVE",
"263 162 CURVE SMOOTH"
);
}
);
};
layerId = "BFFFD157-90D3-4B85-B99D-9A2F366F03CA";
paths = (
{
closed = 1;
nodes = (
"506 333 OFFCURVE",
"500 393 OFFCURVE",
"490 451 CURVE SMOOTH",
"467 583 OFFCURVE",
"422 707 OFFCURVE",
"376 800 CURVE",
"167 800 LINE",
"219 700 OFFCURVE",
"273 575 OFFCURVE",
"299 470 CURVE",
"293 466 LINE",
"269 489 OFFCURVE",
"240 503 OFFCURVE",
"201 503 CURVE SMOOTH",
"84 503 OFFCURVE",
"15 413 OFFCURVE",
"15 244 CURVE SMOOTH",
"15 81 OFFCURVE",
"101 -12 OFFCURVE",
"260 -12 CURVE SMOOTH",
"417 -12 OFFCURVE",
"505 71 OFFCURVE",
"506 274 CURVE SMOOTH"
);
},
{
closed = 1;
nodes = (
"228 162 OFFCURVE",
"216 187 OFFCURVE",
"216 241 CURVE SMOOTH",
"216 291 OFFCURVE",
"227 314 OFFCURVE",
"260 314 CURVE SMOOTH",
"295 314 OFFCURVE",
"307 290 OFFCURVE",
"307 236 CURVE SMOOTH",
"307 186 OFFCURVE",
"296 162 OFFCURVE",
"263 162 CURVE SMOOTH"
);
},
{
closed = 1;
nodes = (
"124 722 LINE",
"124 552 LINE",
"504 552 LINE",
"504 722 LINE"
);
}
);
width = 521;
},
{
anchors = (
{
name = _stroke;
position = "{361, 637}";
},
{
name = bottom;
position = "{262, 0}";
},
{
name = center;
position = "{259, 241}";
},
{
name = horn;
position = "{404, 454}";
},
{
name = ogonek;
position = "{464, 10}";
},
{
name = top;
position = "{260, 473}";
},
{
name = topright;
position = "{495, 473}";
}
);
layerId = "4E6F1D76-CF39-4449-9239-DE310961C1DD";
paths = (
{
closed = 1;
nodes = (
"428 284 OFFCURVE",
"425 328 OFFCURVE",
"419 374 CURVE SMOOTH",
"397 532 OFFCURVE",
"353 687 OFFCURVE",
"274 800 CURVE",
"267 800 LINE",
"354 683 OFFCURVE",
"394 520 OFFCURVE",
"421 363 CURVE",
"420 363 LINE",
"378 461 OFFCURVE",
"313 478 OFFCURVE",
"250 478 CURVE SMOOTH",
"134 478 OFFCURVE",
"66 404 OFFCURVE",
"66 233 CURVE SMOOTH",
"66 73 OFFCURVE",
"128 -10 OFFCURVE",
"252 -10 CURVE SMOOTH",
"365 -10 OFFCURVE",
"428 67 OFFCURVE",
"428 232 CURVE SMOOTH"
);
},
{
closed = 1;
nodes = (
"138 -5 OFFCURVE",
"71 69 OFFCURVE",
"71 233 CURVE SMOOTH",
"71 404 OFFCURVE",
"134 474 OFFCURVE",
"249 474 CURVE SMOOTH",
"360 474 OFFCURVE",
"422 404 OFFCURVE",
"422 235 CURVE SMOOTH",
"422 70 OFFCURVE",
"364 -5 OFFCURVE",
"253 -5 CURVE SMOOTH"
);
},
{
closed = 1;
nodes = (
"145 640 LINE",
"145 635 LINE",
"452 635 LINE",
"452 640 LINE"
);
}
);
width = 506;
}
);
leftKerningGroup = o;
leftMetricsKey = o;
rightKerningGroup = eth;
rightMetricsKey = o;
unicode = 00F0;
},
{
glyphname = e;
lastChange = "2016-11-25 19:43:40 +0000";
layers = (
{
anchors = (
{
name = bottom;
position = "{279, 0}";
},
{
name = ogonek;
position = "{469, 19}";
},
{
name = top;
position = "{269, 490}";
}
);
background = {
paths = (
{
closed = 1;
nodes = (
"421 -15 OFFCURVE",
"502 77 OFFCURVE",
"502 248 CURVE SMOOTH",
"502 412 OFFCURVE",
"428 505 OFFCURVE",
"264 505 CURVE SMOOTH",
"99 505 OFFCURVE",
"15 410 OFFCURVE",
"15 239 CURVE SMOOTH",
"15 75 OFFCURVE",
"91 -15 OFFCURVE",
"254 -15 CURVE SMOOTH"
);
},
{
closed = 1;
nodes = (
"225 157 OFFCURVE",
"216 182 OFFCURVE",
"216 236 CURVE SMOOTH",
"216 286 OFFCURVE",
"224 309 OFFCURVE",
"257 309 CURVE SMOOTH",
"292 309 OFFCURVE",
"301 285 OFFCURVE",
"301 231 CURVE SMOOTH",
"301 181 OFFCURVE",
"293 157 OFFCURVE",
"260 157 CURVE SMOOTH"
);
}
);
};
layerId = "BFFFD157-90D3-4B85-B99D-9A2F366F03CA";
paths = (
{
closed = 1;
nodes = (
"339 277 LINE",
"119 277 LINE",
"124 177 LINE",
"464 177 LINE",
"472 215 OFFCURVE",
"476 250 OFFCURVE",
"476 288 CURVE SMOOTH",
"476 424 OFFCURVE",
"409 505 OFFCURVE",
"265 505 CURVE SMOOTH",
"101 505 OFFCURVE",
"15 409 OFFCURVE",
"15 243 CURVE SMOOTH",
"15 61 OFFCURVE",
"118 -14 OFFCURVE",
"288 -14 CURVE SMOOTH",
"347 -14 OFFCURVE",
"412 -5 OFFCURVE",
"469 19 CURVE",
"458 152 LINE",
"415 141 OFFCURVE",
"371 135 OFFCURVE",
"332 135 CURVE SMOOTH",
"237 135 OFFCURVE",
"217 179 OFFCURVE",
"217 252 CURVE SMOOTH",
"217 323 OFFCURVE",
"224 351 OFFCURVE",
"257 351 CURVE SMOOTH",
"280 351 OFFCURVE",
"291 337 OFFCURVE",
"291 298 CURVE SMOOTH",
"291 287 OFFCURVE",
"290 275 OFFCURVE",
"287 265 CURVE"
);
}
);
width = 493;
},
{
anchors = (
{
name = bottom;
position = "{269, 0}";
},
{
name = ogonek;
position = "{435, 27}";
},
{
name = top;
position = "{259, 480}";
}
);
background = {
paths = (
{
closed = 1;
nodes = (
"392 -12 OFFCURVE",
"465 79 OFFCURVE",
"465 239 CURVE SMOOTH",
"465 405 OFFCURVE",
"396 492 OFFCURVE",
"259 492 CURVE SMOOTH",
"121 492 OFFCURVE",
"47 404 OFFCURVE",
"47 239 CURVE SMOOTH",
"47 79 OFFCURVE",
"117 -12 OFFCURVE",
"255 -12 CURVE SMOOTH"
);
},
{
closed = 1;
nodes = (
"178 72 OFFCURVE",
"135 123 OFFCURVE",
"135 240 CURVE SMOOTH",
"135 357 OFFCURVE",
"175 403 OFFCURVE",
"255 403 CURVE SMOOTH",
"336 403 OFFCURVE",
"377 360 OFFCURVE",
"377 238 CURVE SMOOTH",
"377 119 OFFCURVE",
"339 72 OFFCURVE",
"259 72 CURVE SMOOTH"
);
}
);
};
hints = (
{
horizontal = 1;
origin = "{0, 15}";
target = "{0, 22}";
type = TTStem;
options = 4;
},
{
horizontal = 1;
origin = "{0, 2}";
target = "{0, 1}";
type = TTStem;
options = 4;
},
{
horizontal = 1;
origin = "{0, 9}";
target = "{0, 28}";
type = TTStem;
options = 4;
}
);
layerId = "3E7589AA-8194-470F-8E2F-13C1C581BE24";
paths = (
{
closed = 1;
nodes = (
"372 267 LINE",
"104 267 LINE",
"109 187 LINE",
"428 187 LINE",
"435 218 OFFCURVE",
"440 247 OFFCURVE",
"440 285 CURVE SMOOTH",
"440 401 OFFCURVE",
"393 491 OFFCURVE",
"254 491 CURVE SMOOTH",
"117 491 OFFCURVE",
"47 398 OFFCURVE",
"47 236 CURVE SMOOTH",
"47 59 OFFCURVE",
"126 -12 OFFCURVE",
"269 -12 CURVE SMOOTH",
"333 -12 OFFCURVE",
"384 2 OFFCURVE",
"435 27 CURVE",
"420 108 LINE",
"381 87 OFFCURVE",
"329 73 OFFCURVE",
"276 73 CURVE SMOOTH",
"198 73 OFFCURVE",
"135 103 OFFCURVE",
"135 243 CURVE SMOOTH",
"135 343 OFFCURVE",
"169 405 OFFCURVE",
"250 405 CURVE SMOOTH",
"320 405 OFFCURVE",
"350 360 OFFCURVE",
"350 293 CURVE SMOOTH",
"350 281 OFFCURVE",
"349 264 OFFCURVE",
"346 250 CURVE"
);
}
);
width = 492;
},
{
anchors = (
{
name = bottom;
position = "{277, 0}";
},
{
name = ogonek;
position = "{457, 23}";
},
{
name = top;
position = "{267, 485}";
}
);
associatedMasterId = "3E7589AA-8194-470F-8E2F-13C1C581BE24";
background = {
paths = (
{
closed = 1;
nodes = (
"359 276 LINE",
"115 276 LINE",
"120 182 LINE",
"449 182 LINE",
"457 217 OFFCURVE",
"461 249 OFFCURVE",
"461 287 CURVE SMOOTH",
"461 413 OFFCURVE",
"404 498 OFFCURVE",
"263 498 CURVE SMOOTH",
"112 498 OFFCURVE",
"34 404 OFFCURVE",
"34 240 CURVE SMOOTH",
"34 60 OFFCURVE",
"127 -13 OFFCURVE",
"284 -13 CURVE SMOOTH",
"345 -13 OFFCURVE",
"405 -2 OFFCURVE",
"459 23 CURVE",
"448 130 LINE",
"405 114 OFFCURVE",
"353 104 OFFCURVE",
"307 104 CURVE SMOOTH",
"221 104 OFFCURVE",
"179 141 OFFCURVE",
"179 248 CURVE SMOOTH",
"179 337 OFFCURVE",
"200 382 OFFCURVE",
"257 382 CURVE SMOOTH",
"303 382 OFFCURVE",
"324 353 OFFCURVE",
"324 300 CURVE SMOOTH",
"324 288 OFFCURVE",
"323 274 OFFCURVE",
"320 262 CURVE"
);
}
);
};
layerId = "507A9F49-2F7F-4BBE-A4B9-946874FBC2DE";
name = "{155, 100}";
paths = (
{
closed = 1;
nodes = (
"364 282 LINE",
"115 282 LINE",
"120 181 LINE",
"449 181 LINE",
"456 219 OFFCURVE",
"461 251 OFFCURVE",
"461 288 CURVE SMOOTH",
"461 413 OFFCURVE",
"406 498 OFFCURVE",
"264 498 CURVE SMOOTH",
"113 498 OFFCURVE",
"34 404 OFFCURVE",
"34 240 CURVE SMOOTH",
"34 60 OFFCURVE",
"131 -13 OFFCURVE",
"290 -13 CURVE SMOOTH",
"352 -13 OFFCURVE",
"403 -2 OFFCURVE",
"457 23 CURVE",
"445 144 LINE",
"402 128 OFFCURVE",
"351 119 OFFCURVE",
"306 119 CURVE SMOOTH",
"221 119 OFFCURVE",
"180 149 OFFCURVE",
"180 243 CURVE SMOOTH",
"180 324 OFFCURVE",
"200 363 OFFCURVE",
"257 363 CURVE SMOOTH",
"305 363 OFFCURVE",
"324 338 OFFCURVE",
"324 289 CURVE SMOOTH",
"324 277 OFFCURVE",
"324 263 OFFCURVE",
"321 251 CURVE"
);
}
);
width = 494;
},
{
anchors = (
{
name = bottom;
position = "{257, 0}";
},
{
name = ogonek;
position = "{383, 19}";
},
{
name = top;
position = "{236, 468}";
}
);
hints = (
{
horizontal = 1;
origin = "{0, 15}";
target = "{0, 22}";
type = TTStem;
options = 4;
},
{
horizontal = 1;
origin = "{0, 2}";
target = "{0, 1}";
type = TTStem;
options = 4;
},
{
horizontal = 1;
origin = "{0, 9}";
target = "{0, 28}";
type = TTStem;
options = 4;
}
);
layerId = "4E6F1D76-CF39-4449-9239-DE310961C1DD";
paths = (
{
closed = 1;
nodes = (
"389 242 LINE",
"68 242 LINE",
"69 237 LINE",
"391 237 LINE",
"394 260 OFFCURVE",
"396 279 OFFCURVE",
"396 303 CURVE SMOOTH",
"396 383 OFFCURVE",
"358 477 OFFCURVE",
"240 477 CURVE SMOOTH",
"132 477 OFFCURVE",
"66 404 OFFCURVE",
"66 229 CURVE SMOOTH",
"66 71 OFFCURVE",
"121 -10 OFFCURVE",
"262 -10 CURVE SMOOTH",
"306 -10 OFFCURVE",
"341 -3 OFFCURVE",
"383 19 CURVE",
"381 24 LINE",
"342 2 OFFCURVE",
"300 -5 OFFCURVE",
"262 -5 CURVE SMOOTH",
"124 -5 OFFCURVE",
"71 75 OFFCURVE",
"71 228 CURVE SMOOTH",
"71 400 OFFCURVE",
"133 472 OFFCURVE",
"240 472 CURVE SMOOTH",
"355 472 OFFCURVE",
"391 379 OFFCURVE",
"391 303 CURVE SMOOTH",
"391 281 OFFCURVE",
"389 258 OFFCURVE",
"386 239 CURVE"
);
}
);
width = 451;
}
);
leftKerningGroup = o;
leftMetricsKey = o;
rightKerningGroup = e;
unicode = 0065;
},
{
glyphname = ebreve;
lastChange = "2016-11-25 19:43:40 +0000";
layers = (
{
background = {
paths = (
{
closed = 1;
nodes = (
"455 230 LINE",
"455 253 LINE SMOOTH",
"455 401 OFFCURVE",
"383 488 OFFCURVE",
"262 488 CURVE SMOOTH",
"141 488 OFFCURVE",
"69 397 OFFCURVE",
"69 241 CURVE SMOOTH",
"69 80 OFFCURVE",
"141 -6 OFFCURVE",
"274 -6 CURVE SMOOTH",
"354 -6 OFFCURVE",
"399 19 OFFCURVE",
"448 68 CURVE",
"410 98 LINE",
"369 57 OFFCURVE",
"334 40 OFFCURVE",
"277 40 CURVE SMOOTH",
"174 40 OFFCURVE",
"120 107 OFFCURVE",
"120 230 CURVE"
);
},
{
closed = 1;
nodes = (
"120 271 LINE",
"123 317 OFFCURVE",
"124 333 OFFCURVE",
"137 362 CURVE SMOOTH",
"160 412 OFFCURVE",
"206 443 OFFCURVE",
"262 443 CURVE SMOOTH",
"318 443 OFFCURVE",
"366 413 OFFCURVE",
"387 362 CURVE SMOOTH",
"400 333 OFFCURVE",
"401 317 OFFCURVE",
"404 271 CURVE"
);
},
{
closed = 1;
nodes = (
"384 722 LINE",
"376 666 OFFCURVE",
"333 632 OFFCURVE",
"264 632 CURVE SMOOTH",
"195 632 OFFCURVE",
"152 666 OFFCURVE",
"144 722 CURVE",
"99 722 LINE",
"108 637 OFFCURVE",
"156 587 OFFCURVE",
"264 587 CURVE SMOOTH",
"372 587 OFFCURVE",
"420 637 OFFCURVE",
"429 722 CURVE"
);
}
);
};
components = (
{
name = e;
},
{
name = breve;
transform = "{1, 0, 0, 1, 62, 0}";
}
);
layerId = "3E7589AA-8194-470F-8E2F-13C1C581BE24";
width = 492;
},
{
background = {
paths = (
{
closed = 1;
nodes = (
"521 216 LINE",
"521 284 LINE SMOOTH",
"521 432 OFFCURVE",
"435 544 OFFCURVE",
"279 544 CURVE SMOOTH",
"138 544 OFFCURVE",
"38 445 OFFCURVE",
"38 269 CURVE SMOOTH",
"38 37 OFFCURVE",
"175 -6 OFFCURVE",
"294 -6 CURVE SMOOTH",
"394 -6 OFFCURVE",
"448 24 OFFCURVE",
"503 79 CURVE",
"405 177 LINE",
"376 148 OFFCURVE",
"351 132 OFFCURVE",
"294 132 CURVE SMOOTH",
"233 132 OFFCURVE",
"199 172 OFFCURVE",
"199 216 CURVE"
);
},
{
closed = 1;
nodes = (
"199 325 LINE",
"199 338 OFFCURVE",
"201 352 OFFCURVE",
"208 367 CURVE SMOOTH",
"218 389 OFFCURVE",
"240 409 OFFCURVE",
"279 409 CURVE SMOOTH",
"318 409 OFFCURVE",
"340 389 OFFCURVE",
"350 367 CURVE SMOOTH",
"357 352 OFFCURVE",
"359 338 OFFCURVE",
"359 325 CURVE"
);
},
{
closed = 1;
nodes = (
"341 759 LINE",
"338 722 OFFCURVE",
"308 712 OFFCURVE",
"283 712 CURVE SMOOTH",
"258 712 OFFCURVE",
"228 722 OFFCURVE",
"225 759 CURVE",
"119 759 LINE",
"122 641 OFFCURVE",
"206 602 OFFCURVE",
"283 602 CURVE SMOOTH",
"360 602 OFFCURVE",
"444 641 OFFCURVE",
"447 759 CURVE"
);
}
);
};
components = (
{
name = e;
},
{
name = breve;
transform = "{1, 0, 0, 1, 15, 0}";
}
);
layerId = "BFFFD157-90D3-4B85-B99D-9A2F366F03CA";
width = 493;
},
{
components = (
{
name = e;
},
{
name = breve;
transform = "{1, 0, 0, 1, 63, 0}";
}
);
layerId = "4E6F1D76-CF39-4449-9239-DE310961C1DD";
width = 451;
}
);
leftKerningGroup = o;
rightKerningGroup = e;
unicode = 0115;
},
{
color = 0;
glyphname = schwa;
lastChange = "2016-11-25 19:43:40 +0000";
layers = (
{
anchors = (
{
name = bottom;
position = "{243, 0}";
},
{
name = ogonek;
position = "{55, 453}";
},
{
name = top;
position = "{233, 480}";
}
);
background = {
paths = (
{
closed = 1;
nodes = (
"70 252 LINE",
"70 229 LINE SMOOTH",
"70 81 OFFCURVE",
"142 -6 OFFCURVE",
"263 -6 CURVE SMOOTH",
"384 -6 OFFCURVE",
"456 85 OFFCURVE",
"456 241 CURVE SMOOTH",
"456 402 OFFCURVE",
"384 488 OFFCURVE",
"251 488 CURVE SMOOTH",
"171 488 OFFCURVE",
"126 463 OFFCURVE",
"77 414 CURVE",
"115 384 LINE",
"156 425 OFFCURVE",
"191 442 OFFCURVE",
"248 442 CURVE SMOOTH",
"351 442 OFFCURVE",
"405 375 OFFCURVE",
"405 252 CURVE"
);
},
{
closed = 1;
nodes = (
"405 211 LINE",
"402 165 OFFCURVE",
"401 149 OFFCURVE",
"388 120 CURVE SMOOTH",
"365 70 OFFCURVE",
"319 39 OFFCURVE",
"263 39 CURVE SMOOTH",
"207 39 OFFCURVE",
"159 69 OFFCURVE",
"138 120 CURVE SMOOTH",
"125 149 OFFCURVE",
"124 165 OFFCURVE",
"121 211 CURVE"
);
}
);
};
layerId = "3E7589AA-8194-470F-8E2F-13C1C581BE24";
paths = (
{
closed = 1;
nodes = (
"120 213 LINE",
"398 213 LINE",
"393 293 LINE",
"64 293 LINE",
"57 262 OFFCURVE",
"52 233 OFFCURVE",
"52 195 CURVE SMOOTH",
"52 79 OFFCURVE",
"98 -11 OFFCURVE",
"242 -11 CURVE SMOOTH",
"384 -11 OFFCURVE",
"455 82 OFFCURVE",
"455 244 CURVE SMOOTH",
"455 421 OFFCURVE",
"372 492 OFFCURVE",
"224 492 CURVE SMOOTH",
"159 492 OFFCURVE",
"106 478 OFFCURVE",
"55 453 CURVE",
"67 373 LINE",
"109 393 OFFCURVE",
"167 407 OFFCURVE",
"221 407 CURVE SMOOTH",
"304 407 OFFCURVE",
"367 377 OFFCURVE",
"367 237 CURVE SMOOTH",
"367 137 OFFCURVE",
"333 75 OFFCURVE",
"247 75 CURVE SMOOTH",
"172 75 OFFCURVE",
"142 120 OFFCURVE",
"142 187 CURVE SMOOTH",
"142 199 OFFCURVE",
"143 216 OFFCURVE",
"146 230 CURVE"
);
}
);
width = 502;
},
{
anchors = (
{
name = bottom;
position = "{244, 0}";
},
{
name = ogonek;
position = "{28, 471}";
},
{
name = top;
position = "{234, 490}";
}
);
background = {
paths = (
{
closed = 1;
nodes = (
"39 322 LINE",
"39 254 LINE SMOOTH",
"39 106 OFFCURVE",
"125 -6 OFFCURVE",
"281 -6 CURVE SMOOTH",
"422 -6 OFFCURVE",
"522 93 OFFCURVE",
"522 269 CURVE SMOOTH",
"522 501 OFFCURVE",
"385 544 OFFCURVE",
"266 544 CURVE SMOOTH",
"166 544 OFFCURVE",
"112 514 OFFCURVE",
"57 459 CURVE",
"155 361 LINE",
"184 390 OFFCURVE",
"209 406 OFFCURVE",
"266 406 CURVE SMOOTH",
"327 406 OFFCURVE",
"361 366 OFFCURVE",
"361 322 CURVE"
);
},
{
closed = 1;
nodes = (
"361 213 LINE",
"361 200 OFFCURVE",
"359 186 OFFCURVE",
"352 171 CURVE SMOOTH",
"342 149 OFFCURVE",
"320 129 OFFCURVE",
"281 129 CURVE SMOOTH",
"242 129 OFFCURVE",
"220 149 OFFCURVE",
"210 171 CURVE SMOOTH",
"203 186 OFFCURVE",
"201 200 OFFCURVE",
"201 213 CURVE"
);
}
);
};
layerId = "BFFFD157-90D3-4B85-B99D-9A2F366F03CA";
paths = (
{
closed = 1;
nodes = (
"161 201 LINE",
"394 201 LINE",
"389 313 LINE",
"29 313 LINE",
"21 275 OFFCURVE",
"17 240 OFFCURVE",
"17 202 CURVE SMOOTH",
"17 66 OFFCURVE",
"82 -15 OFFCURVE",
"241 -15 CURVE SMOOTH",
"410 -15 OFFCURVE",
"498 81 OFFCURVE",
"498 247 CURVE SMOOTH",
"498 429 OFFCURVE",
"388 504 OFFCURVE",
"218 504 CURVE SMOOTH",
"159 504 OFFCURVE",
"85 495 OFFCURVE",
"28 471 CURVE",
"50 338 LINE",
"95 350 OFFCURVE",
"141 355 OFFCURVE",
"176 355 CURVE SMOOTH",
"271 355 OFFCURVE",
"283 311 OFFCURVE",
"283 238 CURVE SMOOTH",
"283 159 OFFCURVE",
"276 131 OFFCURVE",
"243 131 CURVE SMOOTH",
"220 131 OFFCURVE",
"209 145 OFFCURVE",
"209 184 CURVE SMOOTH",
"209 195 OFFCURVE",
"210 207 OFFCURVE",
"213 217 CURVE"
);
}
);
width = 513;
},
{
anchors = (
{
name = bottom;
position = "{242, 0}";
},
{
name = ogonek;
position = "{40, 462}";
},
{
name = top;
position = "{232, 485}";
}
);
associatedMasterId = "3E7589AA-8194-470F-8E2F-13C1C581BE24";
background = {
paths = (
{
closed = 1;
nodes = (
"139 207 LINE",
"395 207 LINE",
"390 303 LINE",
"45 303 LINE",
"38 269 OFFCURVE",
"33 237 OFFCURVE",
"33 199 CURVE SMOOTH",
"33 73 OFFCURVE",
"89 -13 OFFCURVE",
"240 -13 CURVE SMOOTH",
"396 -13 OFFCURVE",
"475 82 OFFCURVE",
"475 246 CURVE SMOOTH",
"475 425 OFFCURVE",
"379 498 OFFCURVE",
"220 498 CURVE SMOOTH",
"158 498 OFFCURVE",
"94 487 OFFCURVE",
"40 462 CURVE",
"57 356 LINE",
"101 372 OFFCURVE",
"153 381 OFFCURVE",
"197 381 CURVE SMOOTH",
"286 381 OFFCURVE",
"324 344 OFFCURVE",
"324 238 CURVE SMOOTH",
"324 148 OFFCURVE",
"303 103 OFFCURVE",
"244 103 CURVE SMOOTH",
"195 103 OFFCURVE",
"174 133 OFFCURVE",
"174 186 CURVE SMOOTH",
"174 197 OFFCURVE",
"175 212 OFFCURVE",
"178 224 CURVE"
);
}
);
};
layerId = "B5A32AD9-8E6A-4C7F-881C-7D5631422822";
name = "{155, 100}";
paths = (
{
closed = 1;
nodes = (
"140 199 LINE",
"395 199 LINE",
"390 304 LINE",
"46 304 LINE",
"39 266 OFFCURVE",
"34 234 OFFCURVE",
"34 197 CURVE SMOOTH",
"34 72 OFFCURVE",
"89 -13 OFFCURVE",
"241 -13 CURVE SMOOTH",
"396 -13 OFFCURVE",
"476 81 OFFCURVE",
"476 245 CURVE SMOOTH",
"476 425 OFFCURVE",
"379 498 OFFCURVE",
"220 498 CURVE SMOOTH",
"158 498 OFFCURVE",
"95 487 OFFCURVE",
"41 462 CURVE",
"58 341 LINE",
"101 357 OFFCURVE",
"153 366 OFFCURVE",
"198 366 CURVE SMOOTH",
"283 366 OFFCURVE",
"324 336 OFFCURVE",
"324 242 CURVE SMOOTH",
"324 157 OFFCURVE",
"304 119 OFFCURVE",
"247 119 CURVE SMOOTH",
"199 119 OFFCURVE",
"180 143 OFFCURVE",
"180 192 CURVE SMOOTH",
"180 204 OFFCURVE",
"180 218 OFFCURVE",
"183 230 CURVE"
);
}
);
width = 509;
},
{
anchors = (
{
name = bottom;
position = "{214, 0}";
},
{
name = ogonek;
position = "{69, 450}";
},
{
name = top;
position = "{192, 468}";
}
);
layerId = "4E6F1D76-CF39-4449-9239-DE310961C1DD";
paths = (
{
closed = 1;
nodes = (
"62 226 LINE",
"382 226 LINE",
"380 231 LINE",
"61 231 LINE",
"57 208 OFFCURVE",
"55 178 OFFCURVE",
"55 161 CURVE SMOOTH",
"55 81 OFFCURVE",
"93 -9 OFFCURVE",
"211 -9 CURVE SMOOTH",
"318 -9 OFFCURVE",
"384 65 OFFCURVE",
"384 239 CURVE SMOOTH",
"384 398 OFFCURVE",
"329 478 OFFCURVE",
"188 478 CURVE SMOOTH",
"145 478 OFFCURVE",
"111 471 OFFCURVE",
"69 450 CURVE",
"75 444 LINE",
"114 466 OFFCURVE",
"151 473 OFFCURVE",
"190 473 CURVE SMOOTH",
"327 473 OFFCURVE",
"379 394 OFFCURVE",
"379 240 CURVE SMOOTH",
"379 68 OFFCURVE",
"316 -4 OFFCURVE",
"210 -4 CURVE SMOOTH",
"92 -4 OFFCURVE",
"60 91 OFFCURVE",
"60 167 CURVE SMOOTH",
"60 190 OFFCURVE",
"61 210 OFFCURVE",
"64 231 CURVE"
);
}
);
width = 450;
}
);
leftKerningGroup = o;
leftMetricsKey = "=|e";
rightKerningGroup = o;
rightMetricsKey = "=|e";
unicode = 0259;
},
